solid OpenSCAD_Model
  facet normal 0.991445 0.130527 0
    outer loop
      vertex -2.41481 -0.647047 12
      vertex -2.5 3.06162e-16 0
      vertex -2.5 3.06162e-16 12
    endloop
  endfacet
  facet normal 0.991445 0.130527 0
    outer loop
      vertex -2.5 3.06162e-16 0
      vertex -2.41481 -0.647047 12
      vertex -2.41481 -0.647047 0
    endloop
  endfacet
  facet normal -0.991445 0.130527 0
    outer loop
      vertex 2.41481 -0.647047 0
      vertex 2.5 -3.06162e-16 12
      vertex 2.5 -3.06162e-16 0
    endloop
  endfacet
  facet normal -0.991445 0.130527 0
    outer loop
      vertex 2.5 -3.06162e-16 12
      vertex 2.41481 -0.647047 0
      vertex 2.41481 -0.647047 12
    endloop
  endfacet
  facet normal -0.130527 -0.991445 0
    outer loop
      vertex 3.06162e-16 2.5 0
      vertex 0.647047 2.41481 12
      vertex 3.06162e-16 2.5 12
    endloop
  endfacet
  facet normal -0.130527 -0.991445 -0
    outer loop
      vertex 0.647047 2.41481 12
      vertex 3.06162e-16 2.5 0
      vertex 0.647047 2.41481 0
    endloop
  endfacet
  facet normal 0.793354 0.60876 0
    outer loop
      vertex -1.76777 -1.76777 12
      vertex -2.16506 -1.25 0
      vertex -2.16506 -1.25 12
    endloop
  endfacet
  facet normal 0.793354 0.60876 0
    outer loop
      vertex -2.16506 -1.25 0
      vertex -1.76777 -1.76777 12
      vertex -1.76777 -1.76777 0
    endloop
  endfacet
  facet normal 0.923879 0.382684 0
    outer loop
      vertex -2.16506 -1.25 12
      vertex -2.41481 -0.647047 0
      vertex -2.41481 -0.647047 12
    endloop
  endfacet
  facet normal 0.923879 0.382684 0
    outer loop
      vertex -2.41481 -0.647047 0
      vertex -2.16506 -1.25 12
      vertex -2.16506 -1.25 0
    endloop
  endfacet
  facet normal 0.608761 0.793354 -0
    outer loop
      vertex -1.46511 -2 0
      vertex -1.76777 -1.76777 12
      vertex -1.46511 -2 12
    endloop
  endfacet
  facet normal 0.608761 0.793354 0
    outer loop
      vertex -1.76777 -1.76777 12
      vertex -1.46511 -2 0
      vertex -1.76777 -1.76777 0
    endloop
  endfacet
  facet normal -0.60876 0.793354 0
    outer loop
      vertex 1.76777 -1.76777 0
      vertex 1.46511 -2 12
      vertex 1.76777 -1.76777 12
    endloop
  endfacet
  facet normal -0.60876 0.793354 0
    outer loop
      vertex 1.46511 -2 12
      vertex 1.76777 -1.76777 0
      vertex 1.46511 -2 0
    endloop
  endfacet
  facet normal 0.793354 -0.608761 0
    outer loop
      vertex -2.16506 1.25 12
      vertex -1.76777 1.76777 0
      vertex -1.76777 1.76777 12
    endloop
  endfacet
  facet normal 0.793354 -0.608761 0
    outer loop
      vertex -1.76777 1.76777 0
      vertex -2.16506 1.25 12
      vertex -2.16506 1.25 0
    endloop
  endfacet
  facet normal -0.608761 -0.793354 0
    outer loop
      vertex 1.25 2.16506 0
      vertex 1.76777 1.76777 12
      vertex 1.25 2.16506 12
    endloop
  endfacet
  facet normal -0.608761 -0.793354 -0
    outer loop
      vertex 1.76777 1.76777 12
      vertex 1.25 2.16506 0
      vertex 1.76777 1.76777 0
    endloop
  endfacet
  facet normal -0.991445 -0.130527 0
    outer loop
      vertex 2.5 -3.06162e-16 0
      vertex 2.41481 0.647047 12
      vertex 2.41481 0.647047 0
    endloop
  endfacet
  facet normal -0.991445 -0.130527 0
    outer loop
      vertex 2.41481 0.647047 12
      vertex 2.5 -3.06162e-16 0
      vertex 2.5 -3.06162e-16 12
    endloop
  endfacet
  facet normal -0.793354 0.60876 0
    outer loop
      vertex 1.76777 -1.76777 0
      vertex 2.16506 -1.25 12
      vertex 2.16506 -1.25 0
    endloop
  endfacet
  facet normal -0.793354 0.60876 0
    outer loop
      vertex 2.16506 -1.25 12
      vertex 1.76777 -1.76777 0
      vertex 1.76777 -1.76777 12
    endloop
  endfacet
  facet normal -0.923879 0.382684 0
    outer loop
      vertex 2.16506 -1.25 0
      vertex 2.41481 -0.647047 12
      vertex 2.41481 -0.647047 0
    endloop
  endfacet
  facet normal -0.923879 0.382684 0
    outer loop
      vertex 2.41481 -0.647047 12
      vertex 2.16506 -1.25 0
      vertex 2.16506 -1.25 12
    endloop
  endfacet
  facet normal 0.130527 -0.991445 0
    outer loop
      vertex -0.647047 2.41481 0
      vertex 3.06162e-16 2.5 12
      vertex -0.647047 2.41481 12
    endloop
  endfacet
  facet normal 0.130527 -0.991445 0
    outer loop
      vertex 3.06162e-16 2.5 12
      vertex -0.647047 2.41481 0
      vertex 3.06162e-16 2.5 0
    endloop
  endfacet
  facet normal 0.608761 -0.793354 0
    outer loop
      vertex -1.76777 1.76777 0
      vertex -1.25 2.16506 12
      vertex -1.76777 1.76777 12
    endloop
  endfacet
  facet normal 0.608761 -0.793354 0
    outer loop
      vertex -1.25 2.16506 12
      vertex -1.76777 1.76777 0
      vertex -1.25 2.16506 0
    endloop
  endfacet
  facet normal -0.382683 -0.92388 0
    outer loop
      vertex 0.647047 2.41481 0
      vertex 1.25 2.16506 12
      vertex 0.647047 2.41481 12
    endloop
  endfacet
  facet normal -0.382683 -0.92388 -0
    outer loop
      vertex 1.25 2.16506 12
      vertex 0.647047 2.41481 0
      vertex 1.25 2.16506 0
    endloop
  endfacet
  facet normal -0.923879 -0.382684 0
    outer loop
      vertex 2.41481 0.647047 0
      vertex 2.16506 1.25 12
      vertex 2.16506 1.25 0
    endloop
  endfacet
  facet normal -0.923879 -0.382684 0
    outer loop
      vertex 2.16506 1.25 12
      vertex 2.41481 0.647047 0
      vertex 2.41481 0.647047 12
    endloop
  endfacet
  facet normal 0.382683 -0.92388 0
    outer loop
      vertex -1.25 2.16506 0
      vertex -0.647047 2.41481 12
      vertex -1.25 2.16506 12
    endloop
  endfacet
  facet normal 0.382683 -0.92388 0
    outer loop
      vertex -0.647047 2.41481 12
      vertex -1.25 2.16506 0
      vertex -0.647047 2.41481 0
    endloop
  endfacet
  facet normal 0.92388 -0.382683 0
    outer loop
      vertex -2.41481 0.647047 12
      vertex -2.16506 1.25 0
      vertex -2.16506 1.25 12
    endloop
  endfacet
  facet normal 0.92388 -0.382683 0
    outer loop
      vertex -2.16506 1.25 0
      vertex -2.41481 0.647047 12
      vertex -2.41481 0.647047 0
    endloop
  endfacet
  facet normal 0.991445 -0.130527 0
    outer loop
      vertex -2.5 3.06162e-16 12
      vertex -2.41481 0.647047 0
      vertex -2.41481 0.647047 12
    endloop
  endfacet
  facet normal 0.991445 -0.130527 0
    outer loop
      vertex -2.41481 0.647047 0
      vertex -2.5 3.06162e-16 12
      vertex -2.5 3.06162e-16 0
    endloop
  endfacet
  facet normal -0.793354 -0.60876 0
    outer loop
      vertex 2.16506 1.25 0
      vertex 1.76777 1.76777 12
      vertex 1.76777 1.76777 0
    endloop
  endfacet
  facet normal -0.793354 -0.60876 0
    outer loop
      vertex 1.76777 1.76777 12
      vertex 2.16506 1.25 0
      vertex 2.16506 1.25 12
    endloop
  endfacet
  facet normal 0 1 -0
    outer loop
      vertex 1.46511 -2 0
      vertex -1.46511 -2 12
      vertex 1.46511 -2 12
    endloop
  endfacet
  facet normal 0 1 0
    outer loop
      vertex -1.46511 -2 12
      vertex 1.46511 -2 0
      vertex -1.46511 -2 0
    endloop
  endfacet
  facet normal 0.986361 0.164595 0
    outer loop
      vertex 6 0 12
      vertex 5.6749 1.9482 0
      vertex 5.6749 1.9482 12
    endloop
  endfacet
  facet normal 0.986361 0.164595 0
    outer loop
      vertex 5.6749 1.9482 0
      vertex 6 0 12
      vertex 6 0 0
    endloop
  endfacet
  facet normal -1 0 0
    outer loop
      vertex -5.91817 -0.987567 0
      vertex -5.91817 0.987567 12
      vertex -5.91817 0.987567 0
    endloop
  endfacet
  facet normal -1 -0 0
    outer loop
      vertex -5.91817 0.987567 12
      vertex -5.91817 -0.987567 0
      vertex -5.91817 -0.987567 12
    endloop
  endfacet
  facet normal 0.0825792 0.996585 -0
    outer loop
      vertex 1.47291 5.8164 0
      vertex -0.495476 5.97951 12
      vertex 1.47291 5.8164 12
    endloop
  endfacet
  facet normal 0.0825792 0.996585 0
    outer loop
      vertex -0.495476 5.97951 12
      vertex 1.47291 5.8164 0
      vertex -0.495476 5.97951 0
    endloop
  endfacet
  facet normal 0.0825792 -0.996585 0
    outer loop
      vertex -0.495476 -5.97951 0
      vertex 1.47291 -5.8164 12
      vertex -0.495476 -5.97951 12
    endloop
  endfacet
  facet normal 0.0825792 -0.996585 0
    outer loop
      vertex 1.47291 -5.8164 12
      vertex -0.495476 -5.97951 0
      vertex 1.47291 -5.8164 0
    endloop
  endfacet
  facet normal 0.401695 -0.915773 0
    outer loop
      vertex 1.47291 -5.8164 0
      vertex 3.28169 -5.023 12
      vertex 1.47291 -5.8164 12
    endloop
  endfacet
  facet normal 0.401695 -0.915773 0
    outer loop
      vertex 3.28169 -5.023 12
      vertex 1.47291 -5.8164 0
      vertex 3.28169 -5.023 0
    endloop
  endfacet
  facet normal 0 0 -1
    outer loop
      vertex 2.41481 -0.647047 0
      vertex 6 0 0
      vertex 5.6749 -1.9482 0
    endloop
  endfacet
  facet normal 0 0 -1
    outer loop
      vertex 2.16506 -1.25 0
      vertex 5.6749 -1.9482 0
      vertex 4.73484 -3.68528 0
    endloop
  endfacet
  facet normal 0 0 -1
    outer loop
      vertex 6 0 0
      vertex 2.41481 -0.647047 0
      vertex 2.5 -3.06162e-16 0
    endloop
  endfacet
  facet normal 0 0 -1
    outer loop
      vertex 1.76777 -1.76777 0
      vertex 4.73484 -3.68528 0
      vertex 3.28169 -5.023 0
    endloop
  endfacet
  facet normal 0 0 -1
    outer loop
      vertex 2.41481 0.647047 0
      vertex 6 0 0
      vertex 2.5 -3.06162e-16 0
    endloop
  endfacet
  facet normal 0 0 -1
    outer loop
      vertex 2.16506 1.25 0
      vertex 5.6749 1.9482 0
      vertex 2.41481 0.647047 0
    endloop
  endfacet
  facet normal 0 0 -1
    outer loop
      vertex 6 0 0
      vertex 2.41481 0.647047 0
      vertex 5.6749 1.9482 0
    endloop
  endfacet
  facet normal 0 0 -1
    outer loop
      vertex 5.6749 -1.9482 0
      vertex 2.16506 -1.25 0
      vertex 2.41481 -0.647047 0
    endloop
  endfacet
  facet normal 0 0 -1
    outer loop
      vertex 4.73484 -3.68528 0
      vertex 1.76777 -1.76777 0
      vertex 2.16506 -1.25 0
    endloop
  endfacet
  facet normal 0 0 -1
    outer loop
      vertex 1.46511 -2 0
      vertex 3.28169 -5.023 0
      vertex 1.47291 -5.8164 0
    endloop
  endfacet
  facet normal 0 0 -1
    outer loop
      vertex 3.28169 -5.023 0
      vertex 1.46511 -2 0
      vertex 1.76777 -1.76777 0
    endloop
  endfacet
  facet normal 0 0 -1
    outer loop
      vertex -0.495476 -5.97951 0
      vertex 1.46511 -2 0
      vertex 1.47291 -5.8164 0
    endloop
  endfacet
  facet normal 0 0 -1
    outer loop
      vertex -0.495476 -5.97951 0
      vertex -1.46511 -2 0
      vertex 1.46511 -2 0
    endloop
  endfacet
  facet normal 0 0 -1
    outer loop
      vertex -2.41017 -5.49464 0
      vertex -1.46511 -2 0
      vertex -0.495476 -5.97951 0
    endloop
  endfacet
  facet normal 0 0 -1
    outer loop
      vertex -4.06369 -4.41434 0
      vertex -1.46511 -2 0
      vertex -2.41017 -5.49464 0
    endloop
  endfacet
  facet normal -0 0 -1
    outer loop
      vertex -1.46511 -2 0
      vertex -4.06369 -4.41434 0
      vertex -1.76777 -1.76777 0
    endloop
  endfacet
  facet normal 0 0 -1
    outer loop
      vertex -5.27684 -2.85568 0
      vertex -1.76777 -1.76777 0
      vertex -4.06369 -4.41434 0
    endloop
  endfacet
  facet normal -0 0 -1
    outer loop
      vertex -1.76777 -1.76777 0
      vertex -5.27684 -2.85568 0
      vertex -2.16506 -1.25 0
    endloop
  endfacet
  facet normal -0 0 -1
    outer loop
      vertex -2.16506 -1.25 0
      vertex -5.27684 -2.85568 0
      vertex -2.41481 -0.647047 0
    endloop
  endfacet
  facet normal -0 0 -1
    outer loop
      vertex 5.6749 1.9482 0
      vertex 2.16506 1.25 0
      vertex 4.73484 3.68528 0
    endloop
  endfacet
  facet normal 0 0 -1
    outer loop
      vertex 1.76777 1.76777 0
      vertex 4.73484 3.68528 0
      vertex 2.16506 1.25 0
    endloop
  endfacet
  facet normal -0 0 -1
    outer loop
      vertex 4.73484 3.68528 0
      vertex 1.76777 1.76777 0
      vertex 3.28169 5.023 0
    endloop
  endfacet
  facet normal 0 0 -1
    outer loop
      vertex 1.25 2.16506 0
      vertex 3.28169 5.023 0
      vertex 1.76777 1.76777 0
    endloop
  endfacet
  facet normal -0 0 -1
    outer loop
      vertex 3.28169 5.023 0
      vertex 1.25 2.16506 0
      vertex 1.47291 5.8164 0
    endloop
  endfacet
  facet normal 0 0 -1
    outer loop
      vertex 0.647047 2.41481 0
      vertex 1.47291 5.8164 0
      vertex 1.25 2.16506 0
    endloop
  endfacet
  facet normal 0 0 -1
    outer loop
      vertex 3.06162e-16 2.5 0
      vertex 1.47291 5.8164 0
      vertex 0.647047 2.41481 0
    endloop
  endfacet
  facet normal 0 0 -1
    outer loop
      vertex 3.06162e-16 2.5 0
      vertex -0.495476 5.97951 0
      vertex 1.47291 5.8164 0
    endloop
  endfacet
  facet normal 0 0 -1
    outer loop
      vertex -0.647047 2.41481 0
      vertex -0.495476 5.97951 0
      vertex 3.06162e-16 2.5 0
    endloop
  endfacet
  facet normal 0 0 -1
    outer loop
      vertex -2.41017 5.49464 0
      vertex -0.647047 2.41481 0
      vertex -1.25 2.16506 0
    endloop
  endfacet
  facet normal 0 0 -1
    outer loop
      vertex -4.06369 4.41434 0
      vertex -1.25 2.16506 0
      vertex -1.76777 1.76777 0
    endloop
  endfacet
  facet normal 0 0 -1
    outer loop
      vertex -5.27684 2.85568 0
      vertex -1.76777 1.76777 0
      vertex -2.16506 1.25 0
    endloop
  endfacet
  facet normal 0 0 -1
    outer loop
      vertex -0.647047 2.41481 0
      vertex -2.41017 5.49464 0
      vertex -0.495476 5.97951 0
    endloop
  endfacet
  facet normal 0 0 -1
    outer loop
      vertex -5.27684 2.85568 0
      vertex -2.16506 1.25 0
      vertex -2.41481 0.647047 0
    endloop
  endfacet
  facet normal 0 0 -1
    outer loop
      vertex -5.91817 0.987567 0
      vertex -2.41481 0.647047 0
      vertex -2.5 3.06162e-16 0
    endloop
  endfacet
  facet normal 0 0 -1
    outer loop
      vertex -5.91817 -0.987567 0
      vertex -2.41481 -0.647047 0
      vertex -5.27684 -2.85568 0
    endloop
  endfacet
  facet normal 0 0 -1
    outer loop
      vertex -1.25 2.16506 0
      vertex -4.06369 4.41434 0
      vertex -2.41017 5.49464 0
    endloop
  endfacet
  facet normal -0 0 -1
    outer loop
      vertex -2.41481 -0.647047 0
      vertex -5.91817 -0.987567 0
      vertex -2.5 3.06162e-16 0
    endloop
  endfacet
  facet normal 0 0 -1
    outer loop
      vertex -1.76777 1.76777 0
      vertex -5.27684 2.85568 0
      vertex -4.06369 4.41434 0
    endloop
  endfacet
  facet normal 0 0 -1
    outer loop
      vertex -5.91817 0.987567 0
      vertex -2.5 3.06162e-16 0
      vertex -5.91817 -0.987567 0
    endloop
  endfacet
  facet normal 0 0 -1
    outer loop
      vertex -2.41481 0.647047 0
      vertex -5.91817 0.987567 0
      vertex -5.27684 2.85568 0
    endloop
  endfacet
  facet normal 0.677282 0.735724 -0
    outer loop
      vertex 4.73484 3.68528 0
      vertex 3.28169 5.023 12
      vertex 4.73484 3.68528 12
    endloop
  endfacet
  facet normal 0.677282 0.735724 0
    outer loop
      vertex 3.28169 5.023 12
      vertex 4.73484 3.68528 0
      vertex 3.28169 5.023 0
    endloop
  endfacet
  facet normal 0.879474 0.475947 0
    outer loop
      vertex 5.6749 1.9482 12
      vertex 4.73484 3.68528 0
      vertex 4.73484 3.68528 12
    endloop
  endfacet
  facet normal 0.879474 0.475947 0
    outer loop
      vertex 4.73484 3.68528 0
      vertex 5.6749 1.9482 12
      vertex 5.6749 1.9482 0
    endloop
  endfacet
  facet normal 0.401695 0.915773 -0
    outer loop
      vertex 3.28169 5.023 0
      vertex 1.47291 5.8164 12
      vertex 3.28169 5.023 12
    endloop
  endfacet
  facet normal 0.401695 0.915773 0
    outer loop
      vertex 1.47291 5.8164 12
      vertex 3.28169 5.023 0
      vertex 1.47291 5.8164 0
    endloop
  endfacet
  facet normal -0.78914 0.614213 0
    outer loop
      vertex -5.27684 2.85568 0
      vertex -4.06369 4.41434 12
      vertex -4.06369 4.41434 0
    endloop
  endfacet
  facet normal -0.78914 0.614213 0
    outer loop
      vertex -4.06369 4.41434 12
      vertex -5.27684 2.85568 0
      vertex -5.27684 2.85568 12
    endloop
  endfacet
  facet normal -0.945817 0.324699 0
    outer loop
      vertex -5.91817 0.987567 0
      vertex -5.27684 2.85568 12
      vertex -5.27684 2.85568 0
    endloop
  endfacet
  facet normal -0.945817 0.324699 0
    outer loop
      vertex -5.27684 2.85568 12
      vertex -5.91817 0.987567 0
      vertex -5.91817 0.987567 12
    endloop
  endfacet
  facet normal -0 0 1
    outer loop
      vertex 2.41481 0.647047 12
      vertex 6 0 12
      vertex 5.6749 1.9482 12
    endloop
  endfacet
  facet normal 0 0 1
    outer loop
      vertex 2.16506 1.25 12
      vertex 5.6749 1.9482 12
      vertex 4.73484 3.68528 12
    endloop
  endfacet
  facet normal 0 0 1
    outer loop
      vertex 6 0 12
      vertex 2.41481 0.647047 12
      vertex 2.5 -3.06162e-16 12
    endloop
  endfacet
  facet normal 0 0 1
    outer loop
      vertex 1.76777 1.76777 12
      vertex 4.73484 3.68528 12
      vertex 3.28169 5.023 12
    endloop
  endfacet
  facet normal 0 0 1
    outer loop
      vertex 2.41481 -0.647047 12
      vertex 6 0 12
      vertex 2.5 -3.06162e-16 12
    endloop
  endfacet
  facet normal -0 0 1
    outer loop
      vertex 2.16506 -1.25 12
      vertex 5.6749 -1.9482 12
      vertex 2.41481 -0.647047 12
    endloop
  endfacet
  facet normal 0 0 1
    outer loop
      vertex 6 0 12
      vertex 2.41481 -0.647047 12
      vertex 5.6749 -1.9482 12
    endloop
  endfacet
  facet normal 0 0 1
    outer loop
      vertex 5.6749 1.9482 12
      vertex 2.16506 1.25 12
      vertex 2.41481 0.647047 12
    endloop
  endfacet
  facet normal 0 0 1
    outer loop
      vertex 4.73484 3.68528 12
      vertex 1.76777 1.76777 12
      vertex 2.16506 1.25 12
    endloop
  endfacet
  facet normal 0 0 1
    outer loop
      vertex 1.25 2.16506 12
      vertex 3.28169 5.023 12
      vertex 1.47291 5.8164 12
    endloop
  endfacet
  facet normal 0 0 1
    outer loop
      vertex 3.28169 5.023 12
      vertex 1.25 2.16506 12
      vertex 1.76777 1.76777 12
    endloop
  endfacet
  facet normal 0 0 1
    outer loop
      vertex 1.47291 5.8164 12
      vertex 0.647047 2.41481 12
      vertex 1.25 2.16506 12
    endloop
  endfacet
  facet normal 0 0 1
    outer loop
      vertex 1.47291 5.8164 12
      vertex 3.06162e-16 2.5 12
      vertex 0.647047 2.41481 12
    endloop
  endfacet
  facet normal 0 0 1
    outer loop
      vertex -0.495476 5.97951 12
      vertex 3.06162e-16 2.5 12
      vertex 1.47291 5.8164 12
    endloop
  endfacet
  facet normal 0 0 1
    outer loop
      vertex -0.495476 5.97951 12
      vertex -0.647047 2.41481 12
      vertex 3.06162e-16 2.5 12
    endloop
  endfacet
  facet normal -0 0 1
    outer loop
      vertex -2.41017 5.49464 12
      vertex -0.647047 2.41481 12
      vertex -0.495476 5.97951 12
    endloop
  endfacet
  facet normal 0 0 1
    outer loop
      vertex -0.647047 2.41481 12
      vertex -2.41017 5.49464 12
      vertex -1.25 2.16506 12
    endloop
  endfacet
  facet normal -0 0 1
    outer loop
      vertex -4.06369 4.41434 12
      vertex -1.25 2.16506 12
      vertex -2.41017 5.49464 12
    endloop
  endfacet
  facet normal 0 0 1
    outer loop
      vertex -1.25 2.16506 12
      vertex -4.06369 4.41434 12
      vertex -1.76777 1.76777 12
    endloop
  endfacet
  facet normal -0 0 1
    outer loop
      vertex -5.27684 2.85568 12
      vertex -1.76777 1.76777 12
      vertex -4.06369 4.41434 12
    endloop
  endfacet
  facet normal 0 0 1
    outer loop
      vertex -1.76777 1.76777 12
      vertex -5.27684 2.85568 12
      vertex -2.16506 1.25 12
    endloop
  endfacet
  facet normal 0 0 1
    outer loop
      vertex -2.16506 1.25 12
      vertex -5.27684 2.85568 12
      vertex -2.41481 0.647047 12
    endloop
  endfacet
  facet normal 0 0 1
    outer loop
      vertex 5.6749 -1.9482 12
      vertex 2.16506 -1.25 12
      vertex 4.73484 -3.68528 12
    endloop
  endfacet
  facet normal -0 0 1
    outer loop
      vertex 1.76777 -1.76777 12
      vertex 4.73484 -3.68528 12
      vertex 2.16506 -1.25 12
    endloop
  endfacet
  facet normal 0 0 1
    outer loop
      vertex 4.73484 -3.68528 12
      vertex 1.76777 -1.76777 12
      vertex 3.28169 -5.023 12
    endloop
  endfacet
  facet normal -0 0 1
    outer loop
      vertex 1.46511 -2 12
      vertex 3.28169 -5.023 12
      vertex 1.76777 -1.76777 12
    endloop
  endfacet
  facet normal 0 0 1
    outer loop
      vertex 3.28169 -5.023 12
      vertex 1.46511 -2 12
      vertex 1.47291 -5.8164 12
    endloop
  endfacet
  facet normal 0 0 1
    outer loop
      vertex 1.46511 -2 12
      vertex -0.495476 -5.97951 12
      vertex 1.47291 -5.8164 12
    endloop
  endfacet
  facet normal -0 0 1
    outer loop
      vertex -1.46511 -2 12
      vertex -0.495476 -5.97951 12
      vertex 1.46511 -2 12
    endloop
  endfacet
  facet normal 0 0 1
    outer loop
      vertex -4.06369 -4.41434 12
      vertex -1.46511 -2 12
      vertex -1.76777 -1.76777 12
    endloop
  endfacet
  facet normal 0 0 1
    outer loop
      vertex -5.27684 -2.85568 12
      vertex -1.76777 -1.76777 12
      vertex -2.16506 -1.25 12
    endloop
  endfacet
  facet normal 0 0 1
    outer loop
      vertex -1.46511 -2 12
      vertex -2.41017 -5.49464 12
      vertex -0.495476 -5.97951 12
    endloop
  endfacet
  facet normal 0 0 1
    outer loop
      vertex -5.27684 -2.85568 12
      vertex -2.16506 -1.25 12
      vertex -2.41481 -0.647047 12
    endloop
  endfacet
  facet normal 0 0 1
    outer loop
      vertex -5.91817 -0.987567 12
      vertex -2.41481 -0.647047 12
      vertex -2.5 3.06162e-16 12
    endloop
  endfacet
  facet normal -0 0 1
    outer loop
      vertex -5.91817 0.987567 12
      vertex -2.41481 0.647047 12
      vertex -5.27684 2.85568 12
    endloop
  endfacet
  facet normal 0 0 1
    outer loop
      vertex -1.46511 -2 12
      vertex -4.06369 -4.41434 12
      vertex -2.41017 -5.49464 12
    endloop
  endfacet
  facet normal 0 0 1
    outer loop
      vertex -2.41481 0.647047 12
      vertex -5.91817 0.987567 12
      vertex -2.5 3.06162e-16 12
    endloop
  endfacet
  facet normal 0 0 1
    outer loop
      vertex -1.76777 -1.76777 12
      vertex -5.27684 -2.85568 12
      vertex -4.06369 -4.41434 12
    endloop
  endfacet
  facet normal 0 0 1
    outer loop
      vertex -5.91817 -0.987567 12
      vertex -2.5 3.06162e-16 12
      vertex -5.91817 0.987567 12
    endloop
  endfacet
  facet normal 0 0 1
    outer loop
      vertex -2.41481 -0.647047 12
      vertex -5.91817 -0.987567 12
      vertex -5.27684 -2.85568 12
    endloop
  endfacet
  facet normal -0.245486 0.9694 0
    outer loop
      vertex -0.495476 5.97951 0
      vertex -2.41017 5.49464 12
      vertex -0.495476 5.97951 12
    endloop
  endfacet
  facet normal -0.245486 0.9694 0
    outer loop
      vertex -2.41017 5.49464 12
      vertex -0.495476 5.97951 0
      vertex -2.41017 5.49464 0
    endloop
  endfacet
  facet normal 0.986361 -0.164595 0
    outer loop
      vertex 5.6749 -1.9482 12
      vertex 6 0 0
      vertex 6 0 12
    endloop
  endfacet
  facet normal 0.986361 -0.164595 0
    outer loop
      vertex 6 0 0
      vertex 5.6749 -1.9482 12
      vertex 5.6749 -1.9482 0
    endloop
  endfacet
  facet normal -0.546948 -0.837166 0
    outer loop
      vertex -4.06369 -4.41434 0
      vertex -2.41017 -5.49464 12
      vertex -4.06369 -4.41434 12
    endloop
  endfacet
  facet normal -0.546948 -0.837166 -0
    outer loop
      vertex -2.41017 -5.49464 12
      vertex -4.06369 -4.41434 0
      vertex -2.41017 -5.49464 0
    endloop
  endfacet
  facet normal -0.945817 -0.324699 0
    outer loop
      vertex -5.27684 -2.85568 0
      vertex -5.91817 -0.987567 12
      vertex -5.91817 -0.987567 0
    endloop
  endfacet
  facet normal -0.945817 -0.324699 0
    outer loop
      vertex -5.91817 -0.987567 12
      vertex -5.27684 -2.85568 0
      vertex -5.27684 -2.85568 12
    endloop
  endfacet
  facet normal -0.546948 0.837166 0
    outer loop
      vertex -2.41017 5.49464 0
      vertex -4.06369 4.41434 12
      vertex -2.41017 5.49464 12
    endloop
  endfacet
  facet normal -0.546948 0.837166 0
    outer loop
      vertex -4.06369 4.41434 12
      vertex -2.41017 5.49464 0
      vertex -4.06369 4.41434 0
    endloop
  endfacet
  facet normal -0.245486 -0.9694 0
    outer loop
      vertex -2.41017 -5.49464 0
      vertex -0.495476 -5.97951 12
      vertex -2.41017 -5.49464 12
    endloop
  endfacet
  facet normal -0.245486 -0.9694 -0
    outer loop
      vertex -0.495476 -5.97951 12
      vertex -2.41017 -5.49464 0
      vertex -0.495476 -5.97951 0
    endloop
  endfacet
  facet normal -0.78914 -0.614213 0
    outer loop
      vertex -4.06369 -4.41434 0
      vertex -5.27684 -2.85568 12
      vertex -5.27684 -2.85568 0
    endloop
  endfacet
  facet normal -0.78914 -0.614213 0
    outer loop
      vertex -5.27684 -2.85568 12
      vertex -4.06369 -4.41434 0
      vertex -4.06369 -4.41434 12
    endloop
  endfacet
  facet normal 0.677282 -0.735724 0
    outer loop
      vertex 3.28169 -5.023 0
      vertex 4.73484 -3.68528 12
      vertex 3.28169 -5.023 12
    endloop
  endfacet
  facet normal 0.677282 -0.735724 0
    outer loop
      vertex 4.73484 -3.68528 12
      vertex 3.28169 -5.023 0
      vertex 4.73484 -3.68528 0
    endloop
  endfacet
  facet normal 0.879474 -0.475947 0
    outer loop
      vertex 4.73484 -3.68528 12
      vertex 5.6749 -1.9482 0
      vertex 5.6749 -1.9482 12
    endloop
  endfacet
  facet normal 0.879474 -0.475947 0
    outer loop
      vertex 5.6749 -1.9482 0
      vertex 4.73484 -3.68528 12
      vertex 4.73484 -3.68528 0
    endloop
  endfacet
endsolid OpenSCAD_Model
