solid OpenSCAD_Model
  facet normal 0.991445 0.130527 0
    outer loop
      vertex -2.41481 -0.647047 6
      vertex -2.5 3.06162e-16 1
      vertex -2.5 3.06162e-16 6
    endloop
  endfacet
  facet normal 0.991445 0.130527 0
    outer loop
      vertex -2.5 3.06162e-16 1
      vertex -2.41481 -0.647047 6
      vertex -2.41481 -0.647047 1
    endloop
  endfacet
  facet normal -0.991445 0.130527 0
    outer loop
      vertex 2.41481 -0.647047 1
      vertex 2.5 -3.06162e-16 6
      vertex 2.5 -3.06162e-16 1
    endloop
  endfacet
  facet normal -0.991445 0.130527 0
    outer loop
      vertex 2.5 -3.06162e-16 6
      vertex 2.41481 -0.647047 1
      vertex 2.41481 -0.647047 6
    endloop
  endfacet
  facet normal -0.130527 -0.991445 0
    outer loop
      vertex 3.06162e-16 2.5 1
      vertex 0.647047 2.41481 6
      vertex 3.06162e-16 2.5 6
    endloop
  endfacet
  facet normal -0.130527 -0.991445 -0
    outer loop
      vertex 0.647047 2.41481 6
      vertex 3.06162e-16 2.5 1
      vertex 0.647047 2.41481 1
    endloop
  endfacet
  facet normal 0.793354 0.60876 0
    outer loop
      vertex -1.76777 -1.76777 6
      vertex -2.16506 -1.25 1
      vertex -2.16506 -1.25 6
    endloop
  endfacet
  facet normal 0.793354 0.60876 0
    outer loop
      vertex -2.16506 -1.25 1
      vertex -1.76777 -1.76777 6
      vertex -1.76777 -1.76777 1
    endloop
  endfacet
  facet normal 0.923879 0.382684 0
    outer loop
      vertex -2.16506 -1.25 6
      vertex -2.41481 -0.647047 1
      vertex -2.41481 -0.647047 6
    endloop
  endfacet
  facet normal 0.923879 0.382684 0
    outer loop
      vertex -2.41481 -0.647047 1
      vertex -2.16506 -1.25 6
      vertex -2.16506 -1.25 1
    endloop
  endfacet
  facet normal 0.608761 0.793354 -0
    outer loop
      vertex -1.46511 -2 1
      vertex -1.76777 -1.76777 6
      vertex -1.46511 -2 6
    endloop
  endfacet
  facet normal 0.608761 0.793354 0
    outer loop
      vertex -1.76777 -1.76777 6
      vertex -1.46511 -2 1
      vertex -1.76777 -1.76777 1
    endloop
  endfacet
  facet normal -0.60876 0.793354 0
    outer loop
      vertex 1.76777 -1.76777 1
      vertex 1.46511 -2 6
      vertex 1.76777 -1.76777 6
    endloop
  endfacet
  facet normal -0.60876 0.793354 0
    outer loop
      vertex 1.46511 -2 6
      vertex 1.76777 -1.76777 1
      vertex 1.46511 -2 1
    endloop
  endfacet
  facet normal 0.793354 -0.608761 0
    outer loop
      vertex -2.16506 1.25 6
      vertex -1.76777 1.76777 1
      vertex -1.76777 1.76777 6
    endloop
  endfacet
  facet normal 0.793354 -0.608761 0
    outer loop
      vertex -1.76777 1.76777 1
      vertex -2.16506 1.25 6
      vertex -2.16506 1.25 1
    endloop
  endfacet
  facet normal -0.608761 -0.793354 0
    outer loop
      vertex 1.25 2.16506 1
      vertex 1.76777 1.76777 6
      vertex 1.25 2.16506 6
    endloop
  endfacet
  facet normal -0.608761 -0.793354 -0
    outer loop
      vertex 1.76777 1.76777 6
      vertex 1.25 2.16506 1
      vertex 1.76777 1.76777 1
    endloop
  endfacet
  facet normal -0.991445 -0.130527 0
    outer loop
      vertex 2.5 -3.06162e-16 1
      vertex 2.41481 0.647047 6
      vertex 2.41481 0.647047 1
    endloop
  endfacet
  facet normal -0.991445 -0.130527 0
    outer loop
      vertex 2.41481 0.647047 6
      vertex 2.5 -3.06162e-16 1
      vertex 2.5 -3.06162e-16 6
    endloop
  endfacet
  facet normal -0.793354 0.60876 0
    outer loop
      vertex 1.76777 -1.76777 1
      vertex 2.16506 -1.25 6
      vertex 2.16506 -1.25 1
    endloop
  endfacet
  facet normal -0.793354 0.60876 0
    outer loop
      vertex 2.16506 -1.25 6
      vertex 1.76777 -1.76777 1
      vertex 1.76777 -1.76777 6
    endloop
  endfacet
  facet normal -0.923879 0.382684 0
    outer loop
      vertex 2.16506 -1.25 1
      vertex 2.41481 -0.647047 6
      vertex 2.41481 -0.647047 1
    endloop
  endfacet
  facet normal -0.923879 0.382684 0
    outer loop
      vertex 2.41481 -0.647047 6
      vertex 2.16506 -1.25 1
      vertex 2.16506 -1.25 6
    endloop
  endfacet
  facet normal 0.130527 -0.991445 0
    outer loop
      vertex -0.647047 2.41481 1
      vertex 3.06162e-16 2.5 6
      vertex -0.647047 2.41481 6
    endloop
  endfacet
  facet normal 0.130527 -0.991445 0
    outer loop
      vertex 3.06162e-16 2.5 6
      vertex -0.647047 2.41481 1
      vertex 3.06162e-16 2.5 1
    endloop
  endfacet
  facet normal 0.608761 -0.793354 0
    outer loop
      vertex -1.76777 1.76777 1
      vertex -1.25 2.16506 6
      vertex -1.76777 1.76777 6
    endloop
  endfacet
  facet normal 0.608761 -0.793354 0
    outer loop
      vertex -1.25 2.16506 6
      vertex -1.76777 1.76777 1
      vertex -1.25 2.16506 1
    endloop
  endfacet
  facet normal -0.382683 -0.92388 0
    outer loop
      vertex 0.647047 2.41481 1
      vertex 1.25 2.16506 6
      vertex 0.647047 2.41481 6
    endloop
  endfacet
  facet normal -0.382683 -0.92388 -0
    outer loop
      vertex 1.25 2.16506 6
      vertex 0.647047 2.41481 1
      vertex 1.25 2.16506 1
    endloop
  endfacet
  facet normal -0.923879 -0.382684 0
    outer loop
      vertex 2.41481 0.647047 1
      vertex 2.16506 1.25 6
      vertex 2.16506 1.25 1
    endloop
  endfacet
  facet normal -0.923879 -0.382684 0
    outer loop
      vertex 2.16506 1.25 6
      vertex 2.41481 0.647047 1
      vertex 2.41481 0.647047 6
    endloop
  endfacet
  facet normal 0.382683 -0.92388 0
    outer loop
      vertex -1.25 2.16506 1
      vertex -0.647047 2.41481 6
      vertex -1.25 2.16506 6
    endloop
  endfacet
  facet normal 0.382683 -0.92388 0
    outer loop
      vertex -0.647047 2.41481 6
      vertex -1.25 2.16506 1
      vertex -0.647047 2.41481 1
    endloop
  endfacet
  facet normal 0.92388 -0.382683 0
    outer loop
      vertex -2.41481 0.647047 6
      vertex -2.16506 1.25 1
      vertex -2.16506 1.25 6
    endloop
  endfacet
  facet normal 0.92388 -0.382683 0
    outer loop
      vertex -2.16506 1.25 1
      vertex -2.41481 0.647047 6
      vertex -2.41481 0.647047 1
    endloop
  endfacet
  facet normal 0.991445 -0.130527 0
    outer loop
      vertex -2.5 3.06162e-16 6
      vertex -2.41481 0.647047 1
      vertex -2.41481 0.647047 6
    endloop
  endfacet
  facet normal 0.991445 -0.130527 0
    outer loop
      vertex -2.41481 0.647047 1
      vertex -2.5 3.06162e-16 6
      vertex -2.5 3.06162e-16 1
    endloop
  endfacet
  facet normal -0.793354 -0.60876 0
    outer loop
      vertex 2.16506 1.25 1
      vertex 1.76777 1.76777 6
      vertex 1.76777 1.76777 1
    endloop
  endfacet
  facet normal -0.793354 -0.60876 0
    outer loop
      vertex 1.76777 1.76777 6
      vertex 2.16506 1.25 1
      vertex 2.16506 1.25 6
    endloop
  endfacet
  facet normal 0 1 -0
    outer loop
      vertex 1.46511 -2 1
      vertex -1.46511 -2 6
      vertex 1.46511 -2 6
    endloop
  endfacet
  facet normal 0 1 0
    outer loop
      vertex -1.46511 -2 6
      vertex 1.46511 -2 1
      vertex -1.46511 -2 1
    endloop
  endfacet
  facet normal -1 0 0
    outer loop
      vertex -12.5 -12.5 1
      vertex -12.5 12.5 6
      vertex -12.5 12.5 1
    endloop
  endfacet
  facet normal -1 -0 0
    outer loop
      vertex -12.5 12.5 6
      vertex -12.5 -12.5 1
      vertex -12.5 -12.5 6
    endloop
  endfacet
  facet normal 0 0 1
    outer loop
      vertex 2.16506 1.25 6
      vertex 40 7.5 6
      vertex 40 12.5 6
    endloop
  endfacet
  facet normal 0 0 1
    outer loop
      vertex 40 7.5 6
      vertex 31.5 -9.5 6
      vertex 40 -7.5 6
    endloop
  endfacet
  facet normal 0 0 1
    outer loop
      vertex 40 -7.5 6
      vertex 36.25 -9.5 6
      vertex 40 -12.5 6
    endloop
  endfacet
  facet normal 0 0 1
    outer loop
      vertex 40 -7.5 6
      vertex 31.5 -9.5 6
      vertex 36.25 -9.5 6
    endloop
  endfacet
  facet normal 0 0 1
    outer loop
      vertex 31.5 -9.5 6
      vertex 8.5 -9.5 6
      vertex 31.5 -12.5 6
    endloop
  endfacet
  facet normal 0 0 1
    outer loop
      vertex 40 7.5 6
      vertex 2.41481 0.647047 6
      vertex 31.5 -9.5 6
    endloop
  endfacet
  facet normal 0 0 1
    outer loop
      vertex 31.5 -9.5 6
      vertex 2.41481 0.647047 6
      vertex 8.5 -9.5 6
    endloop
  endfacet
  facet normal -0 0 1
    outer loop
      vertex 2.16506 -1.25 6
      vertex 8.5 -9.5 6
      vertex 2.41481 -0.647047 6
    endloop
  endfacet
  facet normal -0 0 1
    outer loop
      vertex 2.41481 -0.647047 6
      vertex 8.5 -9.5 6
      vertex 2.5 -3.06162e-16 6
    endloop
  endfacet
  facet normal 0 0 1
    outer loop
      vertex 8.5 -9.5 6
      vertex 2.41481 0.647047 6
      vertex 2.5 -3.06162e-16 6
    endloop
  endfacet
  facet normal 0 0 1
    outer loop
      vertex 40 7.5 6
      vertex 2.16506 1.25 6
      vertex 2.41481 0.647047 6
    endloop
  endfacet
  facet normal 0 0 1
    outer loop
      vertex 40 12.5 6
      vertex 1.76777 1.76777 6
      vertex 2.16506 1.25 6
    endloop
  endfacet
  facet normal 0 0 1
    outer loop
      vertex 40 12.5 6
      vertex 1.25 2.16506 6
      vertex 1.76777 1.76777 6
    endloop
  endfacet
  facet normal 0 0 1
    outer loop
      vertex 40 12.5 6
      vertex 0.647047 2.41481 6
      vertex 1.25 2.16506 6
    endloop
  endfacet
  facet normal -0 0 1
    outer loop
      vertex -12.5 12.5 6
      vertex 0.647047 2.41481 6
      vertex 40 12.5 6
    endloop
  endfacet
  facet normal 0 0 1
    outer loop
      vertex 0.647047 2.41481 6
      vertex -12.5 12.5 6
      vertex 3.06162e-16 2.5 6
    endloop
  endfacet
  facet normal 0 0 1
    outer loop
      vertex -2.41481 0.647047 6
      vertex -12.5 12.5 6
      vertex -2.5 3.06162e-16 6
    endloop
  endfacet
  facet normal 0 0 1
    outer loop
      vertex -2.16506 1.25 6
      vertex -12.5 12.5 6
      vertex -2.41481 0.647047 6
    endloop
  endfacet
  facet normal 0 0 1
    outer loop
      vertex -1.76777 1.76777 6
      vertex -12.5 12.5 6
      vertex -2.16506 1.25 6
    endloop
  endfacet
  facet normal 0 0 1
    outer loop
      vertex -1.25 2.16506 6
      vertex -12.5 12.5 6
      vertex -1.76777 1.76777 6
    endloop
  endfacet
  facet normal 0 0 1
    outer loop
      vertex -0.647047 2.41481 6
      vertex -12.5 12.5 6
      vertex -1.25 2.16506 6
    endloop
  endfacet
  facet normal 0 0 1
    outer loop
      vertex 3.06162e-16 2.5 6
      vertex -12.5 12.5 6
      vertex -0.647047 2.41481 6
    endloop
  endfacet
  facet normal -0 0 1
    outer loop
      vertex 40 7.5 6
      vertex 50 -7.5 6
      vertex 50 7.5 6
    endloop
  endfacet
  facet normal 0 0 1
    outer loop
      vertex 50 -7.5 6
      vertex 40 7.5 6
      vertex 40 -7.5 6
    endloop
  endfacet
  facet normal 0 0 1
    outer loop
      vertex 40 -12.5 6
      vertex 36.25 -9.5 6
      vertex 36.25 -12.5 6
    endloop
  endfacet
  facet normal 0 0 1
    outer loop
      vertex 31.5 -12.5 6
      vertex 8.5 -9.5 6
      vertex 8.5 -12.5 6
    endloop
  endfacet
  facet normal -0 0 1
    outer loop
      vertex 1.76777 -1.76777 6
      vertex 8.5 -9.5 6
      vertex 2.16506 -1.25 6
    endloop
  endfacet
  facet normal 0 0 1
    outer loop
      vertex 8.5 -9.5 6
      vertex 1.76777 -1.76777 6
      vertex 3.75 -9.5 6
    endloop
  endfacet
  facet normal -0 0 1
    outer loop
      vertex 1.46511 -2 6
      vertex 3.75 -9.5 6
      vertex 1.76777 -1.76777 6
    endloop
  endfacet
  facet normal -0 0 1
    outer loop
      vertex -1.46511 -2 6
      vertex 3.75 -9.5 6
      vertex 1.46511 -2 6
    endloop
  endfacet
  facet normal 0 0 1
    outer loop
      vertex -12.5 -12.5 6
      vertex 3.75 -9.5 6
      vertex -1.46511 -2 6
    endloop
  endfacet
  facet normal 0 0 1
    outer loop
      vertex -12.5 -12.5 6
      vertex -1.46511 -2 6
      vertex -1.76777 -1.76777 6
    endloop
  endfacet
  facet normal 0 0 1
    outer loop
      vertex -12.5 -12.5 6
      vertex -1.76777 -1.76777 6
      vertex -2.16506 -1.25 6
    endloop
  endfacet
  facet normal 0 0 1
    outer loop
      vertex -12.5 -12.5 6
      vertex -2.5 3.06162e-16 6
      vertex -12.5 12.5 6
    endloop
  endfacet
  facet normal 0 0 1
    outer loop
      vertex -2.5 3.06162e-16 6
      vertex -12.5 -12.5 6
      vertex -2.41481 -0.647047 6
    endloop
  endfacet
  facet normal 0 0 1
    outer loop
      vertex -2.41481 -0.647047 6
      vertex -12.5 -12.5 6
      vertex -2.16506 -1.25 6
    endloop
  endfacet
  facet normal 0 0 1
    outer loop
      vertex 3.75 -9.5 6
      vertex -12.5 -12.5 6
      vertex 3.75 -12.5 6
    endloop
  endfacet
  facet normal 0 0 0
    outer loop
      vertex 31.5 -12.5 6
      vertex 8.5 -12.5 6
      vertex 40 -12.5 6
    endloop
  endfacet
  facet normal 0 0 0
    outer loop
      vertex 40 -12.5 6
      vertex 36.25 -12.5 6
      vertex 31.5 -12.5 6
    endloop
  endfacet
  facet normal 1 0 0
    outer loop
      vertex 50 -7.5 11
      vertex 50 -13.5 11
      vertex 50 -7.5 6
    endloop
  endfacet
  facet normal 1 0 0
    outer loop
      vertex 50 7.5 6
      vertex 50 13.5 11
      vertex 50 7.5 11
    endloop
  endfacet
  facet normal 1 0 0
    outer loop
      vertex 50 13.5 11
      vertex 50 7.5 6
      vertex 50 13.5 1
    endloop
  endfacet
  facet normal 1 -0 0
    outer loop
      vertex 50 -7.5 6
      vertex 50 13.5 1
      vertex 50 7.5 6
    endloop
  endfacet
  facet normal 1 0 0
    outer loop
      vertex 50 -7.5 6
      vertex 50 -13.5 1
      vertex 50 13.5 1
    endloop
  endfacet
  facet normal 1 0 0
    outer loop
      vertex 50 -13.5 1
      vertex 50 -7.5 6
      vertex 50 -13.5 11
    endloop
  endfacet
  facet normal 0 1 -0
    outer loop
      vertex 40 12.5 1
      vertex -12.5 12.5 6
      vertex 40 12.5 6
    endloop
  endfacet
  facet normal 0 1 0
    outer loop
      vertex -12.5 12.5 6
      vertex 40 12.5 1
      vertex -12.5 12.5 1
    endloop
  endfacet
  facet normal 0 0 -1
    outer loop
      vertex 40 -12.5 1
      vertex 2.5 -3.06162e-16 1
      vertex 40 12.5 1
    endloop
  endfacet
  facet normal 0 0 -1
    outer loop
      vertex 40 -12.5 1
      vertex 2.41481 -0.647047 1
      vertex 2.5 -3.06162e-16 1
    endloop
  endfacet
  facet normal 0 0 -1
    outer loop
      vertex 40 -12.5 1
      vertex 2.16506 -1.25 1
      vertex 2.41481 -0.647047 1
    endloop
  endfacet
  facet normal 0 0 -1
    outer loop
      vertex 40 -12.5 1
      vertex 1.76777 -1.76777 1
      vertex 2.16506 -1.25 1
    endloop
  endfacet
  facet normal 0 0 -1
    outer loop
      vertex 40 -12.5 1
      vertex 1.46511 -2 1
      vertex 1.76777 -1.76777 1
    endloop
  endfacet
  facet normal 0 0 -1
    outer loop
      vertex -12.5 -12.5 1
      vertex 1.46511 -2 1
      vertex 40 -12.5 1
    endloop
  endfacet
  facet normal -0 0 -1
    outer loop
      vertex -2.41481 -0.647047 1
      vertex -12.5 -12.5 1
      vertex -2.5 3.06162e-16 1
    endloop
  endfacet
  facet normal -0 0 -1
    outer loop
      vertex -2.16506 -1.25 1
      vertex -12.5 -12.5 1
      vertex -2.41481 -0.647047 1
    endloop
  endfacet
  facet normal -0 0 -1
    outer loop
      vertex -1.76777 -1.76777 1
      vertex -12.5 -12.5 1
      vertex -2.16506 -1.25 1
    endloop
  endfacet
  facet normal -0 0 -1
    outer loop
      vertex -1.46511 -2 1
      vertex -12.5 -12.5 1
      vertex -1.76777 -1.76777 1
    endloop
  endfacet
  facet normal -0 0 -1
    outer loop
      vertex 1.46511 -2 1
      vertex -12.5 -12.5 1
      vertex -1.46511 -2 1
    endloop
  endfacet
  facet normal 0 0 -1
    outer loop
      vertex 40 -12.5 1
      vertex 50 -13.5 1
      vertex 40 -13.5 1
    endloop
  endfacet
  facet normal 0 0 -1
    outer loop
      vertex 50 -13.5 1
      vertex 40 -12.5 1
      vertex 50 13.5 1
    endloop
  endfacet
  facet normal 0 0 -1
    outer loop
      vertex 40 12.5 1
      vertex 50 13.5 1
      vertex 40 -12.5 1
    endloop
  endfacet
  facet normal -0 0 -1
    outer loop
      vertex 50 13.5 1
      vertex 40 12.5 1
      vertex 40 13.5 1
    endloop
  endfacet
  facet normal 0 0 -1
    outer loop
      vertex 2.41481 0.647047 1
      vertex 40 12.5 1
      vertex 2.5 -3.06162e-16 1
    endloop
  endfacet
  facet normal 0 0 -1
    outer loop
      vertex 2.16506 1.25 1
      vertex 40 12.5 1
      vertex 2.41481 0.647047 1
    endloop
  endfacet
  facet normal 0 0 -1
    outer loop
      vertex 1.76777 1.76777 1
      vertex 40 12.5 1
      vertex 2.16506 1.25 1
    endloop
  endfacet
  facet normal 0 0 -1
    outer loop
      vertex 1.25 2.16506 1
      vertex 40 12.5 1
      vertex 1.76777 1.76777 1
    endloop
  endfacet
  facet normal 0 0 -1
    outer loop
      vertex 0.647047 2.41481 1
      vertex 40 12.5 1
      vertex 1.25 2.16506 1
    endloop
  endfacet
  facet normal 0 0 -1
    outer loop
      vertex -12.5 12.5 1
      vertex 0.647047 2.41481 1
      vertex 3.06162e-16 2.5 1
    endloop
  endfacet
  facet normal 0 0 -1
    outer loop
      vertex -12.5 12.5 1
      vertex 3.06162e-16 2.5 1
      vertex -0.647047 2.41481 1
    endloop
  endfacet
  facet normal 0 0 -1
    outer loop
      vertex -12.5 12.5 1
      vertex -2.5 3.06162e-16 1
      vertex -12.5 -12.5 1
    endloop
  endfacet
  facet normal 0 0 -1
    outer loop
      vertex -2.5 3.06162e-16 1
      vertex -12.5 12.5 1
      vertex -2.41481 0.647047 1
    endloop
  endfacet
  facet normal 0 0 -1
    outer loop
      vertex 0.647047 2.41481 1
      vertex -12.5 12.5 1
      vertex 40 12.5 1
    endloop
  endfacet
  facet normal 0 0 -1
    outer loop
      vertex -1.25 2.16506 1
      vertex -12.5 12.5 1
      vertex -0.647047 2.41481 1
    endloop
  endfacet
  facet normal 0 0 -1
    outer loop
      vertex -1.76777 1.76777 1
      vertex -12.5 12.5 1
      vertex -1.25 2.16506 1
    endloop
  endfacet
  facet normal 0 0 -1
    outer loop
      vertex -2.16506 1.25 1
      vertex -12.5 12.5 1
      vertex -1.76777 1.76777 1
    endloop
  endfacet
  facet normal 0 0 -1
    outer loop
      vertex -2.41481 0.647047 1
      vertex -12.5 12.5 1
      vertex -2.16506 1.25 1
    endloop
  endfacet
  facet normal 0 -1 0
    outer loop
      vertex -12.5 -12.5 1
      vertex 3.75 -12.5 6
      vertex -12.5 -12.5 6
    endloop
  endfacet
  facet normal 0 -1 -0
    outer loop
      vertex 3.75 -12.5 6
      vertex -12.5 -12.5 1
      vertex 8.5 -12.5 6
    endloop
  endfacet
  facet normal 0 -1 0
    outer loop
      vertex 40 -12.5 1
      vertex 8.5 -12.5 6
      vertex -12.5 -12.5 1
    endloop
  endfacet
  facet normal 0 -1 0
    outer loop
      vertex 8.5 -12.5 6
      vertex 40 -12.5 1
      vertex 40 -12.5 6
    endloop
  endfacet
  facet normal -1 0 0
    outer loop
      vertex 40 -12.5 1
      vertex 40 -13.5 1
      vertex 40 -12.5 6
    endloop
  endfacet
  facet normal -1 0 0
    outer loop
      vertex 40 -12.5 6
      vertex 40 -7.5 11
      vertex 40 -7.5 6
    endloop
  endfacet
  facet normal -1 0 0
    outer loop
      vertex 40 -12.5 6
      vertex 40 -13.5 11
      vertex 40 -7.5 11
    endloop
  endfacet
  facet normal -1 0 0
    outer loop
      vertex 40 -13.5 11
      vertex 40 -12.5 6
      vertex 40 -13.5 1
    endloop
  endfacet
  facet normal -0 0 1
    outer loop
      vertex 40 -7.5 11
      vertex 40.1584 -7.5 11
      vertex 43.1817 -7.5 11
    endloop
  endfacet
  facet normal 0 0 1
    outer loop
      vertex 40 -7.5 11
      vertex 40.1584 -13.5 11
      vertex 40.1584 -7.5 11
    endloop
  endfacet
  facet normal 0 0 1
    outer loop
      vertex 40.1584 -13.5 11
      vertex 40 -7.5 11
      vertex 40 -13.5 11
    endloop
  endfacet
  facet normal 0 0 1
    outer loop
      vertex 50 -7.5 11
      vertex 49.8416 -7.5 11
      vertex 50 -13.5 11
    endloop
  endfacet
  facet normal -0 0 1
    outer loop
      vertex 46.8183 -7.5 11
      vertex 49.8416 -7.5 11
      vertex 50 -7.5 11
    endloop
  endfacet
  facet normal 0 0 1
    outer loop
      vertex 50 -13.5 11
      vertex 49.8416 -7.5 11
      vertex 49.8416 -13.5 11
    endloop
  endfacet
  facet normal 0 -1 0
    outer loop
      vertex 40 -13.5 1
      vertex 40.1584 -13.5 11
      vertex 40 -13.5 11
    endloop
  endfacet
  facet normal 0 -1 0
    outer loop
      vertex 40.1584 -13.5 11
      vertex 43.7657 -13.5 10.3011
      vertex 43.3011 -13.5 10.7657
    endloop
  endfacet
  facet normal 0 -1 -0
    outer loop
      vertex 40.1584 -13.5 11
      vertex 40 -13.5 1
      vertex 43.7657 -13.5 10.3011
    endloop
  endfacet
  facet normal 0 -1 -0
    outer loop
      vertex 44.3511 -13.5 10.0028
      vertex 40 -13.5 1
      vertex 45 -13.5 9.9
    endloop
  endfacet
  facet normal 0 -1 -0
    outer loop
      vertex 43.7657 -13.5 10.3011
      vertex 40 -13.5 1
      vertex 44.3511 -13.5 10.0028
    endloop
  endfacet
  facet normal 0 -1 0
    outer loop
      vertex 45 -13.5 14.1
      vertex 45 -13.5 17
      vertex 43.4549 -13.5 16.7553
    endloop
  endfacet
  facet normal 0 -1 0
    outer loop
      vertex 44.3511 -13.5 13.9972
      vertex 43.4549 -13.5 16.7553
      vertex 42.0611 -13.5 16.0451
    endloop
  endfacet
  facet normal 0 -1 0
    outer loop
      vertex 45 -13.5 17
      vertex 45 -13.5 14.1
      vertex 46.5451 -13.5 16.7553
    endloop
  endfacet
  facet normal 0 -1 0
    outer loop
      vertex 43.7657 -13.5 13.6989
      vertex 42.0611 -13.5 16.0451
      vertex 40.9549 -13.5 14.9389
    endloop
  endfacet
  facet normal 0 -1 0
    outer loop
      vertex 45.6489 -13.5 13.9972
      vertex 46.5451 -13.5 16.7553
      vertex 45 -13.5 14.1
    endloop
  endfacet
  facet normal 0 -1 -0
    outer loop
      vertex 46.5451 -13.5 16.7553
      vertex 45.6489 -13.5 13.9972
      vertex 47.9389 -13.5 16.0451
    endloop
  endfacet
  facet normal 0 -1 0
    outer loop
      vertex 43.4549 -13.5 16.7553
      vertex 44.3511 -13.5 13.9972
      vertex 45 -13.5 14.1
    endloop
  endfacet
  facet normal 0 -1 0
    outer loop
      vertex 42.0611 -13.5 16.0451
      vertex 43.7657 -13.5 13.6989
      vertex 44.3511 -13.5 13.9972
    endloop
  endfacet
  facet normal 0 -1 0
    outer loop
      vertex 43.3011 -13.5 13.2343
      vertex 40.9549 -13.5 14.9389
      vertex 40.2447 -13.5 13.5451
    endloop
  endfacet
  facet normal 0 -1 0
    outer loop
      vertex 40.9549 -13.5 14.9389
      vertex 43.3011 -13.5 13.2343
      vertex 43.7657 -13.5 13.6989
    endloop
  endfacet
  facet normal 0 -1 0
    outer loop
      vertex 40.2447 -13.5 13.5451
      vertex 43.0028 -13.5 12.6489
      vertex 43.3011 -13.5 13.2343
    endloop
  endfacet
  facet normal 0 -1 0
    outer loop
      vertex 40 -13.5 12
      vertex 43.0028 -13.5 12.6489
      vertex 40.2447 -13.5 13.5451
    endloop
  endfacet
  facet normal 0 -1 0
    outer loop
      vertex 40 -13.5 12
      vertex 42.9 -13.5 12
      vertex 43.0028 -13.5 12.6489
    endloop
  endfacet
  facet normal 0 -1 0
    outer loop
      vertex 40.1584 -13.5 11
      vertex 42.9 -13.5 12
      vertex 40 -13.5 12
    endloop
  endfacet
  facet normal 0 -1 -0
    outer loop
      vertex 42.9 -13.5 12
      vertex 40.1584 -13.5 11
      vertex 43.0028 -13.5 11.3511
    endloop
  endfacet
  facet normal 0 -1 -0
    outer loop
      vertex 43.0028 -13.5 11.3511
      vertex 40.1584 -13.5 11
      vertex 43.3011 -13.5 10.7657
    endloop
  endfacet
  facet normal 0 -1 0
    outer loop
      vertex 46.2343 -13.5 13.6989
      vertex 47.9389 -13.5 16.0451
      vertex 45.6489 -13.5 13.9972
    endloop
  endfacet
  facet normal 0 -1 -0
    outer loop
      vertex 47.9389 -13.5 16.0451
      vertex 46.2343 -13.5 13.6989
      vertex 49.0451 -13.5 14.9389
    endloop
  endfacet
  facet normal 0 -1 0
    outer loop
      vertex 46.6989 -13.5 13.2343
      vertex 49.0451 -13.5 14.9389
      vertex 46.2343 -13.5 13.6989
    endloop
  endfacet
  facet normal 0 -1 -0
    outer loop
      vertex 49.0451 -13.5 14.9389
      vertex 46.6989 -13.5 13.2343
      vertex 49.7553 -13.5 13.5451
    endloop
  endfacet
  facet normal 0 -1 0
    outer loop
      vertex 46.9972 -13.5 12.6489
      vertex 49.7553 -13.5 13.5451
      vertex 46.6989 -13.5 13.2343
    endloop
  endfacet
  facet normal 0 -1 0
    outer loop
      vertex 47.1 -13.5 12
      vertex 49.7553 -13.5 13.5451
      vertex 46.9972 -13.5 12.6489
    endloop
  endfacet
  facet normal 0 -1 0
    outer loop
      vertex 47.1 -13.5 12
      vertex 50 -13.5 12
      vertex 49.7553 -13.5 13.5451
    endloop
  endfacet
  facet normal 0 -1 0
    outer loop
      vertex 49.8416 -13.5 11
      vertex 47.1 -13.5 12
      vertex 46.9972 -13.5 11.3511
    endloop
  endfacet
  facet normal 0 -1 0
    outer loop
      vertex 47.1 -13.5 12
      vertex 49.8416 -13.5 11
      vertex 50 -13.5 12
    endloop
  endfacet
  facet normal 0 -1 0
    outer loop
      vertex 46.6989 -13.5 10.7657
      vertex 49.8416 -13.5 11
      vertex 46.9972 -13.5 11.3511
    endloop
  endfacet
  facet normal 0 -1 0
    outer loop
      vertex 46.2343 -13.5 10.3011
      vertex 49.8416 -13.5 11
      vertex 46.6989 -13.5 10.7657
    endloop
  endfacet
  facet normal 0 -1 0
    outer loop
      vertex 50 -13.5 1
      vertex 49.8416 -13.5 11
      vertex 46.2343 -13.5 10.3011
    endloop
  endfacet
  facet normal 0 -1 0
    outer loop
      vertex 50 -13.5 1
      vertex 46.2343 -13.5 10.3011
      vertex 45.6489 -13.5 10.0028
    endloop
  endfacet
  facet normal 0 -1 0
    outer loop
      vertex 50 -13.5 1
      vertex 45 -13.5 9.9
      vertex 40 -13.5 1
    endloop
  endfacet
  facet normal 0 -1 0
    outer loop
      vertex 45 -13.5 9.9
      vertex 50 -13.5 1
      vertex 45.6489 -13.5 10.0028
    endloop
  endfacet
  facet normal 0 -1 0
    outer loop
      vertex 49.8416 -13.5 11
      vertex 50 -13.5 1
      vertex 50 -13.5 11
    endloop
  endfacet
  facet normal 0 1 0
    outer loop
      vertex 50 -7.5 11
      vertex 46.6989 -7.5 10.7657
      vertex 46.8183 -7.5 11
    endloop
  endfacet
  facet normal 0 1 0
    outer loop
      vertex 50 -7.5 11
      vertex 46.2343 -7.5 10.3011
      vertex 46.6989 -7.5 10.7657
    endloop
  endfacet
  facet normal 0 1 -0
    outer loop
      vertex 50 -7.5 6
      vertex 46.2343 -7.5 10.3011
      vertex 50 -7.5 11
    endloop
  endfacet
  facet normal 0 1 0
    outer loop
      vertex 45.6489 -7.5 10.0028
      vertex 50 -7.5 6
      vertex 45 -7.5 9.9
    endloop
  endfacet
  facet normal 0 1 0
    outer loop
      vertex 46.2343 -7.5 10.3011
      vertex 50 -7.5 6
      vertex 45.6489 -7.5 10.0028
    endloop
  endfacet
  facet normal 0 1 0
    outer loop
      vertex 43.3011 -7.5 10.7657
      vertex 40 -7.5 11
      vertex 43.1817 -7.5 11
    endloop
  endfacet
  facet normal 0 1 0
    outer loop
      vertex 43.7657 -7.5 10.3011
      vertex 40 -7.5 11
      vertex 43.3011 -7.5 10.7657
    endloop
  endfacet
  facet normal 0 1 0
    outer loop
      vertex 40 -7.5 6
      vertex 43.7657 -7.5 10.3011
      vertex 44.3511 -7.5 10.0028
    endloop
  endfacet
  facet normal 0 1 0
    outer loop
      vertex 40 -7.5 6
      vertex 45 -7.5 9.9
      vertex 50 -7.5 6
    endloop
  endfacet
  facet normal 0 1 0
    outer loop
      vertex 45 -7.5 9.9
      vertex 40 -7.5 6
      vertex 44.3511 -7.5 10.0028
    endloop
  endfacet
  facet normal 0 1 0
    outer loop
      vertex 43.7657 -7.5 10.3011
      vertex 40 -7.5 6
      vertex 40 -7.5 11
    endloop
  endfacet
  facet normal 0.987688 0 -0.156436
    outer loop
      vertex 50 -13.5 12
      vertex 49.8416 -7.5 11
      vertex 50 -7.5 12
    endloop
  endfacet
  facet normal 0.987688 0 -0.156436
    outer loop
      vertex 49.8416 -7.5 11
      vertex 50 -13.5 12
      vertex 49.8416 -13.5 11
    endloop
  endfacet
  facet normal 0.156434 0 0.987688
    outer loop
      vertex 45 -7.5 17
      vertex 46.5451 -13.5 16.7553
      vertex 46.5451 -7.5 16.7553
    endloop
  endfacet
  facet normal 0.156434 0 0.987688
    outer loop
      vertex 46.5451 -13.5 16.7553
      vertex 45 -7.5 17
      vertex 45 -13.5 17
    endloop
  endfacet
  facet normal 0.891006 -0 0.453991
    outer loop
      vertex 49.0451 -13.5 14.9389
      vertex 49.7553 -7.5 13.5451
      vertex 49.0451 -7.5 14.9389
    endloop
  endfacet
  facet normal 0.891006 0 0.453991
    outer loop
      vertex 49.7553 -7.5 13.5451
      vertex 49.0451 -13.5 14.9389
      vertex 49.7553 -13.5 13.5451
    endloop
  endfacet
  facet normal -0.987689 0 -0.156433
    outer loop
      vertex 40.1584 -13.5 11
      vertex 40 -7.5 12
      vertex 40.1584 -7.5 11
    endloop
  endfacet
  facet normal -0.987689 -0 -0.156433
    outer loop
      vertex 40 -7.5 12
      vertex 40.1584 -13.5 11
      vertex 40 -13.5 12
    endloop
  endfacet
  facet normal 0 1 0
    outer loop
      vertex 45 -7.5 14.1
      vertex 45 -7.5 17
      vertex 46.5451 -7.5 16.7553
    endloop
  endfacet
  facet normal 0 1 0
    outer loop
      vertex 45.6489 -7.5 13.9972
      vertex 46.5451 -7.5 16.7553
      vertex 47.9389 -7.5 16.0451
    endloop
  endfacet
  facet normal 0 1 0
    outer loop
      vertex 45 -7.5 17
      vertex 45 -7.5 14.1
      vertex 43.4549 -7.5 16.7553
    endloop
  endfacet
  facet normal 0 1 0
    outer loop
      vertex 46.2343 -7.5 13.6989
      vertex 47.9389 -7.5 16.0451
      vertex 49.0451 -7.5 14.9389
    endloop
  endfacet
  facet normal 0 1 -0
    outer loop
      vertex 44.3511 -7.5 13.9972
      vertex 43.4549 -7.5 16.7553
      vertex 45 -7.5 14.1
    endloop
  endfacet
  facet normal 0 1 0
    outer loop
      vertex 43.4549 -7.5 16.7553
      vertex 44.3511 -7.5 13.9972
      vertex 42.0611 -7.5 16.0451
    endloop
  endfacet
  facet normal 0 1 0
    outer loop
      vertex 46.5451 -7.5 16.7553
      vertex 45.6489 -7.5 13.9972
      vertex 45 -7.5 14.1
    endloop
  endfacet
  facet normal 0 1 0
    outer loop
      vertex 47.9389 -7.5 16.0451
      vertex 46.2343 -7.5 13.6989
      vertex 45.6489 -7.5 13.9972
    endloop
  endfacet
  facet normal 0 1 0
    outer loop
      vertex 46.6989 -7.5 13.2343
      vertex 49.0451 -7.5 14.9389
      vertex 49.7553 -7.5 13.5451
    endloop
  endfacet
  facet normal 0 1 0
    outer loop
      vertex 49.0451 -7.5 14.9389
      vertex 46.6989 -7.5 13.2343
      vertex 46.2343 -7.5 13.6989
    endloop
  endfacet
  facet normal 0 1 0
    outer loop
      vertex 49.7553 -7.5 13.5451
      vertex 46.9972 -7.5 12.6489
      vertex 46.6989 -7.5 13.2343
    endloop
  endfacet
  facet normal 0 1 0
    outer loop
      vertex 50 -7.5 12
      vertex 46.9972 -7.5 12.6489
      vertex 49.7553 -7.5 13.5451
    endloop
  endfacet
  facet normal 0 1 0
    outer loop
      vertex 50 -7.5 12
      vertex 47.1 -7.5 12
      vertex 46.9972 -7.5 12.6489
    endloop
  endfacet
  facet normal 0 1 -0
    outer loop
      vertex 49.8416 -7.5 11
      vertex 47.1 -7.5 12
      vertex 50 -7.5 12
    endloop
  endfacet
  facet normal 0 1 0
    outer loop
      vertex 47.1 -7.5 12
      vertex 49.8416 -7.5 11
      vertex 46.9972 -7.5 11.3511
    endloop
  endfacet
  facet normal 0 1 0
    outer loop
      vertex 46.9972 -7.5 11.3511
      vertex 49.8416 -7.5 11
      vertex 46.8183 -7.5 11
    endloop
  endfacet
  facet normal 0 1 -0
    outer loop
      vertex 43.7657 -7.5 13.6989
      vertex 42.0611 -7.5 16.0451
      vertex 44.3511 -7.5 13.9972
    endloop
  endfacet
  facet normal 0 1 0
    outer loop
      vertex 42.0611 -7.5 16.0451
      vertex 43.7657 -7.5 13.6989
      vertex 40.9549 -7.5 14.9389
    endloop
  endfacet
  facet normal 0 1 -0
    outer loop
      vertex 43.3011 -7.5 13.2343
      vertex 40.9549 -7.5 14.9389
      vertex 43.7657 -7.5 13.6989
    endloop
  endfacet
  facet normal 0 1 0
    outer loop
      vertex 40.9549 -7.5 14.9389
      vertex 43.3011 -7.5 13.2343
      vertex 40.2447 -7.5 13.5451
    endloop
  endfacet
  facet normal 0 1 -0
    outer loop
      vertex 43.0028 -7.5 12.6489
      vertex 40.2447 -7.5 13.5451
      vertex 43.3011 -7.5 13.2343
    endloop
  endfacet
  facet normal 0 1 -0
    outer loop
      vertex 42.9 -7.5 12
      vertex 40.2447 -7.5 13.5451
      vertex 43.0028 -7.5 12.6489
    endloop
  endfacet
  facet normal 0 1 0
    outer loop
      vertex 42.9 -7.5 12
      vertex 40 -7.5 12
      vertex 40.2447 -7.5 13.5451
    endloop
  endfacet
  facet normal 0 1 0
    outer loop
      vertex 40.1584 -7.5 11
      vertex 42.9 -7.5 12
      vertex 43.0028 -7.5 11.3511
    endloop
  endfacet
  facet normal 0 1 0
    outer loop
      vertex 40.1584 -7.5 11
      vertex 43.0028 -7.5 11.3511
      vertex 43.1817 -7.5 11
    endloop
  endfacet
  facet normal 0 1 0
    outer loop
      vertex 42.9 -7.5 12
      vertex 40.1584 -7.5 11
      vertex 40 -7.5 12
    endloop
  endfacet
  facet normal 0.987688 -0 0.156434
    outer loop
      vertex 49.7553 -13.5 13.5451
      vertex 50 -7.5 12
      vertex 49.7553 -7.5 13.5451
    endloop
  endfacet
  facet normal 0.987688 0 0.156434
    outer loop
      vertex 50 -7.5 12
      vertex 49.7553 -13.5 13.5451
      vertex 50 -13.5 12
    endloop
  endfacet
  facet normal -0.987688 0 0.156434
    outer loop
      vertex 40 -13.5 12
      vertex 40.2447 -7.5 13.5451
      vertex 40 -7.5 12
    endloop
  endfacet
  facet normal -0.987688 0 0.156434
    outer loop
      vertex 40.2447 -7.5 13.5451
      vertex 40 -13.5 12
      vertex 40.2447 -13.5 13.5451
    endloop
  endfacet
  facet normal 0.453991 0 0.891006
    outer loop
      vertex 46.5451 -7.5 16.7553
      vertex 47.9389 -13.5 16.0451
      vertex 47.9389 -7.5 16.0451
    endloop
  endfacet
  facet normal 0.453991 0 0.891006
    outer loop
      vertex 47.9389 -13.5 16.0451
      vertex 46.5451 -7.5 16.7553
      vertex 46.5451 -13.5 16.7553
    endloop
  endfacet
  facet normal -0.891006 0 0.453991
    outer loop
      vertex 40.2447 -13.5 13.5451
      vertex 40.9549 -7.5 14.9389
      vertex 40.2447 -7.5 13.5451
    endloop
  endfacet
  facet normal -0.891006 0 0.453991
    outer loop
      vertex 40.9549 -7.5 14.9389
      vertex 40.2447 -13.5 13.5451
      vertex 40.9549 -13.5 14.9389
    endloop
  endfacet
  facet normal 0.707107 -0 0.707106
    outer loop
      vertex 47.9389 -13.5 16.0451
      vertex 49.0451 -7.5 14.9389
      vertex 47.9389 -7.5 16.0451
    endloop
  endfacet
  facet normal 0.707107 0 0.707106
    outer loop
      vertex 49.0451 -7.5 14.9389
      vertex 47.9389 -13.5 16.0451
      vertex 49.0451 -13.5 14.9389
    endloop
  endfacet
  facet normal -0.156434 0 0.987688
    outer loop
      vertex 43.4549 -7.5 16.7553
      vertex 45 -13.5 17
      vertex 45 -7.5 17
    endloop
  endfacet
  facet normal -0.156434 0 0.987688
    outer loop
      vertex 45 -13.5 17
      vertex 43.4549 -7.5 16.7553
      vertex 43.4549 -13.5 16.7553
    endloop
  endfacet
  facet normal -0.707107 0 0.707106
    outer loop
      vertex 40.9549 -13.5 14.9389
      vertex 42.0611 -7.5 16.0451
      vertex 40.9549 -7.5 14.9389
    endloop
  endfacet
  facet normal -0.707107 0 0.707106
    outer loop
      vertex 42.0611 -7.5 16.0451
      vertex 40.9549 -13.5 14.9389
      vertex 42.0611 -13.5 16.0451
    endloop
  endfacet
  facet normal -0.453991 0 0.891006
    outer loop
      vertex 42.0611 -7.5 16.0451
      vertex 43.4549 -13.5 16.7553
      vertex 43.4549 -7.5 16.7553
    endloop
  endfacet
  facet normal -0.453991 0 0.891006
    outer loop
      vertex 43.4549 -13.5 16.7553
      vertex 42.0611 -7.5 16.0451
      vertex 42.0611 -13.5 16.0451
    endloop
  endfacet
  facet normal -0.987689 0 0.156431
    outer loop
      vertex 46.9972 -13.5 11.3511
      vertex 47.1 -7.5 12
      vertex 46.9972 -7.5 11.3511
    endloop
  endfacet
  facet normal -0.987689 0 0.156431
    outer loop
      vertex 47.1 -7.5 12
      vertex 46.9972 -13.5 11.3511
      vertex 47.1 -13.5 12
    endloop
  endfacet
  facet normal 0.987689 -0 0.156431
    outer loop
      vertex 42.9 -13.5 12
      vertex 43.0028 -7.5 11.3511
      vertex 42.9 -7.5 12
    endloop
  endfacet
  facet normal 0.987689 0 0.156431
    outer loop
      vertex 43.0028 -7.5 11.3511
      vertex 42.9 -13.5 12
      vertex 43.0028 -13.5 11.3511
    endloop
  endfacet
  facet normal 0.156434 0 0.987688
    outer loop
      vertex 44.3511 -7.5 10.0028
      vertex 45 -13.5 9.9
      vertex 45 -7.5 9.9
    endloop
  endfacet
  facet normal 0.156434 0 0.987688
    outer loop
      vertex 45 -13.5 9.9
      vertex 44.3511 -7.5 10.0028
      vertex 44.3511 -13.5 10.0028
    endloop
  endfacet
  facet normal -0.707106 0 0.707108
    outer loop
      vertex 46.2343 -7.5 10.3011
      vertex 46.6989 -13.5 10.7657
      vertex 46.6989 -7.5 10.7657
    endloop
  endfacet
  facet normal -0.707106 0 0.707108
    outer loop
      vertex 46.6989 -13.5 10.7657
      vertex 46.2343 -7.5 10.3011
      vertex 46.2343 -13.5 10.3011
    endloop
  endfacet
  facet normal -0.891005 0 0.453993
    outer loop
      vertex 46.6989 -13.5 10.7657
      vertex 46.8183 -7.5 11
      vertex 46.6989 -7.5 10.7657
    endloop
  endfacet
  facet normal -0.891007 1.22028e-07 0.45399
    outer loop
      vertex 46.9972 -13.5 11.3511
      vertex 46.8183 -7.5 11
      vertex 46.6989 -13.5 10.7657
    endloop
  endfacet
  facet normal -0.891007 0 0.453989
    outer loop
      vertex 46.8183 -7.5 11
      vertex 46.9972 -13.5 11.3511
      vertex 46.9972 -7.5 11.3511
    endloop
  endfacet
  facet normal -0.156435 0 0.987688
    outer loop
      vertex 45 -7.5 9.9
      vertex 45.6489 -13.5 10.0028
      vertex 45.6489 -7.5 10.0028
    endloop
  endfacet
  facet normal -0.156435 0 0.987688
    outer loop
      vertex 45.6489 -13.5 10.0028
      vertex 45 -7.5 9.9
      vertex 45 -13.5 9.9
    endloop
  endfacet
  facet normal 0.453991 0 0.891006
    outer loop
      vertex 43.7657 -7.5 10.3011
      vertex 44.3511 -13.5 10.0028
      vertex 44.3511 -7.5 10.0028
    endloop
  endfacet
  facet normal 0.453991 0 0.891006
    outer loop
      vertex 44.3511 -13.5 10.0028
      vertex 43.7657 -7.5 10.3011
      vertex 43.7657 -13.5 10.3011
    endloop
  endfacet
  facet normal 0.891007 0 0.453989
    outer loop
      vertex 43.0028 -7.5 11.3511
      vertex 43.0028 -13.5 11.3511
      vertex 43.1817 -7.5 11
    endloop
  endfacet
  facet normal 0.891007 1.22028e-07 0.45399
    outer loop
      vertex 43.3011 -13.5 10.7657
      vertex 43.1817 -7.5 11
      vertex 43.0028 -13.5 11.3511
    endloop
  endfacet
  facet normal 0.891005 0 0.453993
    outer loop
      vertex 43.1817 -7.5 11
      vertex 43.3011 -13.5 10.7657
      vertex 43.3011 -7.5 10.7657
    endloop
  endfacet
  facet normal 0.707106 0 0.707108
    outer loop
      vertex 43.3011 -7.5 10.7657
      vertex 43.7657 -13.5 10.3011
      vertex 43.7657 -7.5 10.3011
    endloop
  endfacet
  facet normal 0.707106 0 0.707108
    outer loop
      vertex 43.7657 -13.5 10.3011
      vertex 43.3011 -7.5 10.7657
      vertex 43.3011 -13.5 10.7657
    endloop
  endfacet
  facet normal -0.453989 0 0.891007
    outer loop
      vertex 45.6489 -7.5 10.0028
      vertex 46.2343 -13.5 10.3011
      vertex 46.2343 -7.5 10.3011
    endloop
  endfacet
  facet normal -0.453989 0 0.891007
    outer loop
      vertex 46.2343 -13.5 10.3011
      vertex 45.6489 -7.5 10.0028
      vertex 45.6489 -13.5 10.0028
    endloop
  endfacet
  facet normal -0.891007 0 -0.45399
    outer loop
      vertex 46.9972 -13.5 12.6489
      vertex 46.6989 -7.5 13.2343
      vertex 46.9972 -7.5 12.6489
    endloop
  endfacet
  facet normal -0.891007 -0 -0.45399
    outer loop
      vertex 46.6989 -7.5 13.2343
      vertex 46.9972 -13.5 12.6489
      vertex 46.6989 -13.5 13.2343
    endloop
  endfacet
  facet normal 0.453991 0 -0.891006
    outer loop
      vertex 43.7657 -13.5 13.6989
      vertex 44.3511 -7.5 13.9972
      vertex 44.3511 -13.5 13.9972
    endloop
  endfacet
  facet normal 0.453991 0 -0.891006
    outer loop
      vertex 44.3511 -7.5 13.9972
      vertex 43.7657 -13.5 13.6989
      vertex 43.7657 -7.5 13.6989
    endloop
  endfacet
  facet normal 0.707106 0 -0.707108
    outer loop
      vertex 43.3011 -13.5 13.2343
      vertex 43.7657 -7.5 13.6989
      vertex 43.7657 -13.5 13.6989
    endloop
  endfacet
  facet normal 0.707106 0 -0.707108
    outer loop
      vertex 43.7657 -7.5 13.6989
      vertex 43.3011 -13.5 13.2343
      vertex 43.3011 -7.5 13.2343
    endloop
  endfacet
  facet normal -0.453989 0 -0.891007
    outer loop
      vertex 45.6489 -13.5 13.9972
      vertex 46.2343 -7.5 13.6989
      vertex 46.2343 -13.5 13.6989
    endloop
  endfacet
  facet normal -0.453989 0 -0.891007
    outer loop
      vertex 46.2343 -7.5 13.6989
      vertex 45.6489 -13.5 13.9972
      vertex 45.6489 -7.5 13.9972
    endloop
  endfacet
  facet normal -0.707106 0 -0.707108
    outer loop
      vertex 46.2343 -13.5 13.6989
      vertex 46.6989 -7.5 13.2343
      vertex 46.6989 -13.5 13.2343
    endloop
  endfacet
  facet normal -0.707106 0 -0.707108
    outer loop
      vertex 46.6989 -7.5 13.2343
      vertex 46.2343 -13.5 13.6989
      vertex 46.2343 -7.5 13.6989
    endloop
  endfacet
  facet normal -0.987689 0 -0.156432
    outer loop
      vertex 47.1 -13.5 12
      vertex 46.9972 -7.5 12.6489
      vertex 47.1 -7.5 12
    endloop
  endfacet
  facet normal -0.987689 -0 -0.156432
    outer loop
      vertex 46.9972 -7.5 12.6489
      vertex 47.1 -13.5 12
      vertex 46.9972 -13.5 12.6489
    endloop
  endfacet
  facet normal -0.156435 0 -0.987688
    outer loop
      vertex 45 -13.5 14.1
      vertex 45.6489 -7.5 13.9972
      vertex 45.6489 -13.5 13.9972
    endloop
  endfacet
  facet normal -0.156435 0 -0.987688
    outer loop
      vertex 45.6489 -7.5 13.9972
      vertex 45 -13.5 14.1
      vertex 45 -7.5 14.1
    endloop
  endfacet
  facet normal 0.987689 0 -0.156432
    outer loop
      vertex 43.0028 -13.5 12.6489
      vertex 42.9 -7.5 12
      vertex 43.0028 -7.5 12.6489
    endloop
  endfacet
  facet normal 0.987689 0 -0.156432
    outer loop
      vertex 42.9 -7.5 12
      vertex 43.0028 -13.5 12.6489
      vertex 42.9 -13.5 12
    endloop
  endfacet
  facet normal 0.156434 0 -0.987688
    outer loop
      vertex 44.3511 -13.5 13.9972
      vertex 45 -7.5 14.1
      vertex 45 -13.5 14.1
    endloop
  endfacet
  facet normal 0.156434 0 -0.987688
    outer loop
      vertex 45 -7.5 14.1
      vertex 44.3511 -13.5 13.9972
      vertex 44.3511 -7.5 13.9972
    endloop
  endfacet
  facet normal 0.891007 0 -0.45399
    outer loop
      vertex 43.3011 -13.5 13.2343
      vertex 43.0028 -7.5 12.6489
      vertex 43.3011 -7.5 13.2343
    endloop
  endfacet
  facet normal 0.891007 0 -0.45399
    outer loop
      vertex 43.0028 -7.5 12.6489
      vertex 43.3011 -13.5 13.2343
      vertex 43.0028 -13.5 12.6489
    endloop
  endfacet
  facet normal -1 0 0
    outer loop
      vertex 40 12.5 6
      vertex 40 13.5 1
      vertex 40 12.5 1
    endloop
  endfacet
  facet normal -1 0 0
    outer loop
      vertex 40 13.5 1
      vertex 40 12.5 6
      vertex 40 13.5 11
    endloop
  endfacet
  facet normal -1 0 0
    outer loop
      vertex 40 7.5 11
      vertex 40 12.5 6
      vertex 40 7.5 6
    endloop
  endfacet
  facet normal -1 0 0
    outer loop
      vertex 40 12.5 6
      vertex 40 7.5 11
      vertex 40 13.5 11
    endloop
  endfacet
  facet normal -0 0 1
    outer loop
      vertex 40 13.5 11
      vertex 40.1584 13.5 11
      vertex 43.1817 13.5 11
    endloop
  endfacet
  facet normal 0 0 1
    outer loop
      vertex 40 13.5 11
      vertex 40.1584 7.5 11
      vertex 40.1584 13.5 11
    endloop
  endfacet
  facet normal 0 0 1
    outer loop
      vertex 40.1584 7.5 11
      vertex 40 13.5 11
      vertex 40 7.5 11
    endloop
  endfacet
  facet normal 0 0 1
    outer loop
      vertex 50 13.5 11
      vertex 49.8416 13.5 11
      vertex 50 7.5 11
    endloop
  endfacet
  facet normal -0 0 1
    outer loop
      vertex 46.8183 13.5 11
      vertex 49.8416 13.5 11
      vertex 50 13.5 11
    endloop
  endfacet
  facet normal 0 0 1
    outer loop
      vertex 50 7.5 11
      vertex 49.8416 13.5 11
      vertex 49.8416 7.5 11
    endloop
  endfacet
  facet normal 0 -1 0
    outer loop
      vertex 40 7.5 6
      vertex 40.1584 7.5 11
      vertex 40 7.5 11
    endloop
  endfacet
  facet normal 0 -1 0
    outer loop
      vertex 40.1584 7.5 11
      vertex 43.7657 7.5 10.3011
      vertex 43.3011 7.5 10.7657
    endloop
  endfacet
  facet normal 0 -1 -0
    outer loop
      vertex 40.1584 7.5 11
      vertex 40 7.5 6
      vertex 43.7657 7.5 10.3011
    endloop
  endfacet
  facet normal 0 -1 -0
    outer loop
      vertex 44.3511 7.5 10.0028
      vertex 40 7.5 6
      vertex 45 7.5 9.9
    endloop
  endfacet
  facet normal 0 -1 -0
    outer loop
      vertex 43.7657 7.5 10.3011
      vertex 40 7.5 6
      vertex 44.3511 7.5 10.0028
    endloop
  endfacet
  facet normal 0 -1 0
    outer loop
      vertex 45 7.5 14.1
      vertex 45 7.5 17
      vertex 43.4549 7.5 16.7553
    endloop
  endfacet
  facet normal 0 -1 0
    outer loop
      vertex 44.3511 7.5 13.9972
      vertex 43.4549 7.5 16.7553
      vertex 42.0611 7.5 16.0451
    endloop
  endfacet
  facet normal 0 -1 0
    outer loop
      vertex 45 7.5 17
      vertex 45 7.5 14.1
      vertex 46.5451 7.5 16.7553
    endloop
  endfacet
  facet normal 0 -1 0
    outer loop
      vertex 43.7657 7.5 13.6989
      vertex 42.0611 7.5 16.0451
      vertex 40.9549 7.5 14.9389
    endloop
  endfacet
  facet normal 0 -1 0
    outer loop
      vertex 45.6489 7.5 13.9972
      vertex 46.5451 7.5 16.7553
      vertex 45 7.5 14.1
    endloop
  endfacet
  facet normal 0 -1 -0
    outer loop
      vertex 46.5451 7.5 16.7553
      vertex 45.6489 7.5 13.9972
      vertex 47.9389 7.5 16.0451
    endloop
  endfacet
  facet normal 0 -1 0
    outer loop
      vertex 43.4549 7.5 16.7553
      vertex 44.3511 7.5 13.9972
      vertex 45 7.5 14.1
    endloop
  endfacet
  facet normal 0 -1 0
    outer loop
      vertex 42.0611 7.5 16.0451
      vertex 43.7657 7.5 13.6989
      vertex 44.3511 7.5 13.9972
    endloop
  endfacet
  facet normal 0 -1 0
    outer loop
      vertex 43.3011 7.5 13.2343
      vertex 40.9549 7.5 14.9389
      vertex 40.2447 7.5 13.5451
    endloop
  endfacet
  facet normal 0 -1 0
    outer loop
      vertex 40.9549 7.5 14.9389
      vertex 43.3011 7.5 13.2343
      vertex 43.7657 7.5 13.6989
    endloop
  endfacet
  facet normal 0 -1 0
    outer loop
      vertex 40.2447 7.5 13.5451
      vertex 43.0028 7.5 12.6489
      vertex 43.3011 7.5 13.2343
    endloop
  endfacet
  facet normal 0 -1 0
    outer loop
      vertex 40 7.5 12
      vertex 43.0028 7.5 12.6489
      vertex 40.2447 7.5 13.5451
    endloop
  endfacet
  facet normal 0 -1 0
    outer loop
      vertex 40 7.5 12
      vertex 42.9 7.5 12
      vertex 43.0028 7.5 12.6489
    endloop
  endfacet
  facet normal 0 -1 0
    outer loop
      vertex 40.1584 7.5 11
      vertex 42.9 7.5 12
      vertex 40 7.5 12
    endloop
  endfacet
  facet normal 0 -1 -0
    outer loop
      vertex 42.9 7.5 12
      vertex 40.1584 7.5 11
      vertex 43.0028 7.5 11.3511
    endloop
  endfacet
  facet normal 0 -1 -0
    outer loop
      vertex 43.0028 7.5 11.3511
      vertex 40.1584 7.5 11
      vertex 43.3011 7.5 10.7657
    endloop
  endfacet
  facet normal 0 -1 0
    outer loop
      vertex 46.2343 7.5 13.6989
      vertex 47.9389 7.5 16.0451
      vertex 45.6489 7.5 13.9972
    endloop
  endfacet
  facet normal 0 -1 -0
    outer loop
      vertex 47.9389 7.5 16.0451
      vertex 46.2343 7.5 13.6989
      vertex 49.0451 7.5 14.9389
    endloop
  endfacet
  facet normal 0 -1 0
    outer loop
      vertex 46.6989 7.5 13.2343
      vertex 49.0451 7.5 14.9389
      vertex 46.2343 7.5 13.6989
    endloop
  endfacet
  facet normal 0 -1 -0
    outer loop
      vertex 49.0451 7.5 14.9389
      vertex 46.6989 7.5 13.2343
      vertex 49.7553 7.5 13.5451
    endloop
  endfacet
  facet normal 0 -1 0
    outer loop
      vertex 46.9972 7.5 12.6489
      vertex 49.7553 7.5 13.5451
      vertex 46.6989 7.5 13.2343
    endloop
  endfacet
  facet normal 0 -1 0
    outer loop
      vertex 47.1 7.5 12
      vertex 49.7553 7.5 13.5451
      vertex 46.9972 7.5 12.6489
    endloop
  endfacet
  facet normal 0 -1 0
    outer loop
      vertex 47.1 7.5 12
      vertex 50 7.5 12
      vertex 49.7553 7.5 13.5451
    endloop
  endfacet
  facet normal 0 -1 0
    outer loop
      vertex 49.8416 7.5 11
      vertex 47.1 7.5 12
      vertex 46.9972 7.5 11.3511
    endloop
  endfacet
  facet normal 0 -1 0
    outer loop
      vertex 47.1 7.5 12
      vertex 49.8416 7.5 11
      vertex 50 7.5 12
    endloop
  endfacet
  facet normal 0 -1 0
    outer loop
      vertex 46.6989 7.5 10.7657
      vertex 49.8416 7.5 11
      vertex 46.9972 7.5 11.3511
    endloop
  endfacet
  facet normal 0 -1 0
    outer loop
      vertex 46.2343 7.5 10.3011
      vertex 49.8416 7.5 11
      vertex 46.6989 7.5 10.7657
    endloop
  endfacet
  facet normal 0 -1 0
    outer loop
      vertex 50 7.5 6
      vertex 49.8416 7.5 11
      vertex 46.2343 7.5 10.3011
    endloop
  endfacet
  facet normal 0 -1 0
    outer loop
      vertex 50 7.5 6
      vertex 46.2343 7.5 10.3011
      vertex 45.6489 7.5 10.0028
    endloop
  endfacet
  facet normal 0 -1 0
    outer loop
      vertex 50 7.5 6
      vertex 45 7.5 9.9
      vertex 40 7.5 6
    endloop
  endfacet
  facet normal 0 -1 0
    outer loop
      vertex 45 7.5 9.9
      vertex 50 7.5 6
      vertex 45.6489 7.5 10.0028
    endloop
  endfacet
  facet normal 0 -1 0
    outer loop
      vertex 49.8416 7.5 11
      vertex 50 7.5 6
      vertex 50 7.5 11
    endloop
  endfacet
  facet normal 0 1 0
    outer loop
      vertex 50 13.5 11
      vertex 46.6989 13.5 10.7657
      vertex 46.8183 13.5 11
    endloop
  endfacet
  facet normal 0 1 0
    outer loop
      vertex 50 13.5 11
      vertex 46.2343 13.5 10.3011
      vertex 46.6989 13.5 10.7657
    endloop
  endfacet
  facet normal 0 1 -0
    outer loop
      vertex 50 13.5 1
      vertex 46.2343 13.5 10.3011
      vertex 50 13.5 11
    endloop
  endfacet
  facet normal 0 1 0
    outer loop
      vertex 45.6489 13.5 10.0028
      vertex 50 13.5 1
      vertex 45 13.5 9.9
    endloop
  endfacet
  facet normal 0 1 0
    outer loop
      vertex 46.2343 13.5 10.3011
      vertex 50 13.5 1
      vertex 45.6489 13.5 10.0028
    endloop
  endfacet
  facet normal 0 1 0
    outer loop
      vertex 43.3011 13.5 10.7657
      vertex 40 13.5 11
      vertex 43.1817 13.5 11
    endloop
  endfacet
  facet normal 0 1 0
    outer loop
      vertex 43.7657 13.5 10.3011
      vertex 40 13.5 11
      vertex 43.3011 13.5 10.7657
    endloop
  endfacet
  facet normal 0 1 0
    outer loop
      vertex 40 13.5 1
      vertex 43.7657 13.5 10.3011
      vertex 44.3511 13.5 10.0028
    endloop
  endfacet
  facet normal 0 1 0
    outer loop
      vertex 40 13.5 1
      vertex 45 13.5 9.9
      vertex 50 13.5 1
    endloop
  endfacet
  facet normal 0 1 0
    outer loop
      vertex 45 13.5 9.9
      vertex 40 13.5 1
      vertex 44.3511 13.5 10.0028
    endloop
  endfacet
  facet normal 0 1 0
    outer loop
      vertex 43.7657 13.5 10.3011
      vertex 40 13.5 1
      vertex 40 13.5 11
    endloop
  endfacet
  facet normal 0.987688 0 -0.156436
    outer loop
      vertex 50 7.5 12
      vertex 49.8416 13.5 11
      vertex 50 13.5 12
    endloop
  endfacet
  facet normal 0.987688 0 -0.156436
    outer loop
      vertex 49.8416 13.5 11
      vertex 50 7.5 12
      vertex 49.8416 7.5 11
    endloop
  endfacet
  facet normal 0.156434 0 0.987688
    outer loop
      vertex 45 13.5 17
      vertex 46.5451 7.5 16.7553
      vertex 46.5451 13.5 16.7553
    endloop
  endfacet
  facet normal 0.156434 0 0.987688
    outer loop
      vertex 46.5451 7.5 16.7553
      vertex 45 13.5 17
      vertex 45 7.5 17
    endloop
  endfacet
  facet normal 0.891006 -0 0.453991
    outer loop
      vertex 49.0451 7.5 14.9389
      vertex 49.7553 13.5 13.5451
      vertex 49.0451 13.5 14.9389
    endloop
  endfacet
  facet normal 0.891006 0 0.453991
    outer loop
      vertex 49.7553 13.5 13.5451
      vertex 49.0451 7.5 14.9389
      vertex 49.7553 7.5 13.5451
    endloop
  endfacet
  facet normal -0.987689 0 -0.156433
    outer loop
      vertex 40.1584 7.5 11
      vertex 40 13.5 12
      vertex 40.1584 13.5 11
    endloop
  endfacet
  facet normal -0.987689 -0 -0.156433
    outer loop
      vertex 40 13.5 12
      vertex 40.1584 7.5 11
      vertex 40 7.5 12
    endloop
  endfacet
  facet normal 0 1 0
    outer loop
      vertex 45 13.5 14.1
      vertex 45 13.5 17
      vertex 46.5451 13.5 16.7553
    endloop
  endfacet
  facet normal 0 1 0
    outer loop
      vertex 45.6489 13.5 13.9972
      vertex 46.5451 13.5 16.7553
      vertex 47.9389 13.5 16.0451
    endloop
  endfacet
  facet normal 0 1 0
    outer loop
      vertex 45 13.5 17
      vertex 45 13.5 14.1
      vertex 43.4549 13.5 16.7553
    endloop
  endfacet
  facet normal 0 1 0
    outer loop
      vertex 46.2343 13.5 13.6989
      vertex 47.9389 13.5 16.0451
      vertex 49.0451 13.5 14.9389
    endloop
  endfacet
  facet normal 0 1 -0
    outer loop
      vertex 44.3511 13.5 13.9972
      vertex 43.4549 13.5 16.7553
      vertex 45 13.5 14.1
    endloop
  endfacet
  facet normal 0 1 0
    outer loop
      vertex 43.4549 13.5 16.7553
      vertex 44.3511 13.5 13.9972
      vertex 42.0611 13.5 16.0451
    endloop
  endfacet
  facet normal 0 1 0
    outer loop
      vertex 46.5451 13.5 16.7553
      vertex 45.6489 13.5 13.9972
      vertex 45 13.5 14.1
    endloop
  endfacet
  facet normal 0 1 0
    outer loop
      vertex 47.9389 13.5 16.0451
      vertex 46.2343 13.5 13.6989
      vertex 45.6489 13.5 13.9972
    endloop
  endfacet
  facet normal 0 1 0
    outer loop
      vertex 46.6989 13.5 13.2343
      vertex 49.0451 13.5 14.9389
      vertex 49.7553 13.5 13.5451
    endloop
  endfacet
  facet normal 0 1 0
    outer loop
      vertex 49.0451 13.5 14.9389
      vertex 46.6989 13.5 13.2343
      vertex 46.2343 13.5 13.6989
    endloop
  endfacet
  facet normal 0 1 0
    outer loop
      vertex 49.7553 13.5 13.5451
      vertex 46.9972 13.5 12.6489
      vertex 46.6989 13.5 13.2343
    endloop
  endfacet
  facet normal 0 1 0
    outer loop
      vertex 50 13.5 12
      vertex 46.9972 13.5 12.6489
      vertex 49.7553 13.5 13.5451
    endloop
  endfacet
  facet normal 0 1 0
    outer loop
      vertex 50 13.5 12
      vertex 47.1 13.5 12
      vertex 46.9972 13.5 12.6489
    endloop
  endfacet
  facet normal 0 1 -0
    outer loop
      vertex 49.8416 13.5 11
      vertex 47.1 13.5 12
      vertex 50 13.5 12
    endloop
  endfacet
  facet normal 0 1 0
    outer loop
      vertex 47.1 13.5 12
      vertex 49.8416 13.5 11
      vertex 46.9972 13.5 11.3511
    endloop
  endfacet
  facet normal 0 1 0
    outer loop
      vertex 46.9972 13.5 11.3511
      vertex 49.8416 13.5 11
      vertex 46.8183 13.5 11
    endloop
  endfacet
  facet normal 0 1 -0
    outer loop
      vertex 43.7657 13.5 13.6989
      vertex 42.0611 13.5 16.0451
      vertex 44.3511 13.5 13.9972
    endloop
  endfacet
  facet normal 0 1 0
    outer loop
      vertex 42.0611 13.5 16.0451
      vertex 43.7657 13.5 13.6989
      vertex 40.9549 13.5 14.9389
    endloop
  endfacet
  facet normal 0 1 -0
    outer loop
      vertex 43.3011 13.5 13.2343
      vertex 40.9549 13.5 14.9389
      vertex 43.7657 13.5 13.6989
    endloop
  endfacet
  facet normal 0 1 0
    outer loop
      vertex 40.9549 13.5 14.9389
      vertex 43.3011 13.5 13.2343
      vertex 40.2447 13.5 13.5451
    endloop
  endfacet
  facet normal 0 1 -0
    outer loop
      vertex 43.0028 13.5 12.6489
      vertex 40.2447 13.5 13.5451
      vertex 43.3011 13.5 13.2343
    endloop
  endfacet
  facet normal 0 1 -0
    outer loop
      vertex 42.9 13.5 12
      vertex 40.2447 13.5 13.5451
      vertex 43.0028 13.5 12.6489
    endloop
  endfacet
  facet normal 0 1 0
    outer loop
      vertex 42.9 13.5 12
      vertex 40 13.5 12
      vertex 40.2447 13.5 13.5451
    endloop
  endfacet
  facet normal 0 1 0
    outer loop
      vertex 40.1584 13.5 11
      vertex 42.9 13.5 12
      vertex 43.0028 13.5 11.3511
    endloop
  endfacet
  facet normal 0 1 0
    outer loop
      vertex 40.1584 13.5 11
      vertex 43.0028 13.5 11.3511
      vertex 43.1817 13.5 11
    endloop
  endfacet
  facet normal 0 1 0
    outer loop
      vertex 42.9 13.5 12
      vertex 40.1584 13.5 11
      vertex 40 13.5 12
    endloop
  endfacet
  facet normal 0.987688 -0 0.156434
    outer loop
      vertex 49.7553 7.5 13.5451
      vertex 50 13.5 12
      vertex 49.7553 13.5 13.5451
    endloop
  endfacet
  facet normal 0.987688 0 0.156434
    outer loop
      vertex 50 13.5 12
      vertex 49.7553 7.5 13.5451
      vertex 50 7.5 12
    endloop
  endfacet
  facet normal -0.987688 0 0.156434
    outer loop
      vertex 40 7.5 12
      vertex 40.2447 13.5 13.5451
      vertex 40 13.5 12
    endloop
  endfacet
  facet normal -0.987688 0 0.156434
    outer loop
      vertex 40.2447 13.5 13.5451
      vertex 40 7.5 12
      vertex 40.2447 7.5 13.5451
    endloop
  endfacet
  facet normal 0.453991 0 0.891006
    outer loop
      vertex 46.5451 13.5 16.7553
      vertex 47.9389 7.5 16.0451
      vertex 47.9389 13.5 16.0451
    endloop
  endfacet
  facet normal 0.453991 0 0.891006
    outer loop
      vertex 47.9389 7.5 16.0451
      vertex 46.5451 13.5 16.7553
      vertex 46.5451 7.5 16.7553
    endloop
  endfacet
  facet normal -0.891006 0 0.453991
    outer loop
      vertex 40.2447 7.5 13.5451
      vertex 40.9549 13.5 14.9389
      vertex 40.2447 13.5 13.5451
    endloop
  endfacet
  facet normal -0.891006 0 0.453991
    outer loop
      vertex 40.9549 13.5 14.9389
      vertex 40.2447 7.5 13.5451
      vertex 40.9549 7.5 14.9389
    endloop
  endfacet
  facet normal 0.707107 -0 0.707106
    outer loop
      vertex 47.9389 7.5 16.0451
      vertex 49.0451 13.5 14.9389
      vertex 47.9389 13.5 16.0451
    endloop
  endfacet
  facet normal 0.707107 0 0.707106
    outer loop
      vertex 49.0451 13.5 14.9389
      vertex 47.9389 7.5 16.0451
      vertex 49.0451 7.5 14.9389
    endloop
  endfacet
  facet normal -0.156434 0 0.987688
    outer loop
      vertex 43.4549 13.5 16.7553
      vertex 45 7.5 17
      vertex 45 13.5 17
    endloop
  endfacet
  facet normal -0.156434 0 0.987688
    outer loop
      vertex 45 7.5 17
      vertex 43.4549 13.5 16.7553
      vertex 43.4549 7.5 16.7553
    endloop
  endfacet
  facet normal -0.707107 0 0.707106
    outer loop
      vertex 40.9549 7.5 14.9389
      vertex 42.0611 13.5 16.0451
      vertex 40.9549 13.5 14.9389
    endloop
  endfacet
  facet normal -0.707107 0 0.707106
    outer loop
      vertex 42.0611 13.5 16.0451
      vertex 40.9549 7.5 14.9389
      vertex 42.0611 7.5 16.0451
    endloop
  endfacet
  facet normal -0.453991 0 0.891006
    outer loop
      vertex 42.0611 13.5 16.0451
      vertex 43.4549 7.5 16.7553
      vertex 43.4549 13.5 16.7553
    endloop
  endfacet
  facet normal -0.453991 0 0.891006
    outer loop
      vertex 43.4549 7.5 16.7553
      vertex 42.0611 13.5 16.0451
      vertex 42.0611 7.5 16.0451
    endloop
  endfacet
  facet normal -0.987689 0 0.156431
    outer loop
      vertex 46.9972 7.5 11.3511
      vertex 47.1 13.5 12
      vertex 46.9972 13.5 11.3511
    endloop
  endfacet
  facet normal -0.987689 0 0.156431
    outer loop
      vertex 47.1 13.5 12
      vertex 46.9972 7.5 11.3511
      vertex 47.1 7.5 12
    endloop
  endfacet
  facet normal 0.987689 -0 0.156431
    outer loop
      vertex 42.9 7.5 12
      vertex 43.0028 13.5 11.3511
      vertex 42.9 13.5 12
    endloop
  endfacet
  facet normal 0.987689 0 0.156431
    outer loop
      vertex 43.0028 13.5 11.3511
      vertex 42.9 7.5 12
      vertex 43.0028 7.5 11.3511
    endloop
  endfacet
  facet normal 0.156434 0 0.987688
    outer loop
      vertex 44.3511 13.5 10.0028
      vertex 45 7.5 9.9
      vertex 45 13.5 9.9
    endloop
  endfacet
  facet normal 0.156434 0 0.987688
    outer loop
      vertex 45 7.5 9.9
      vertex 44.3511 13.5 10.0028
      vertex 44.3511 7.5 10.0028
    endloop
  endfacet
  facet normal -0.707106 0 0.707108
    outer loop
      vertex 46.2343 13.5 10.3011
      vertex 46.6989 7.5 10.7657
      vertex 46.6989 13.5 10.7657
    endloop
  endfacet
  facet normal -0.707106 0 0.707108
    outer loop
      vertex 46.6989 7.5 10.7657
      vertex 46.2343 13.5 10.3011
      vertex 46.2343 7.5 10.3011
    endloop
  endfacet
  facet normal -0.891005 0 0.453993
    outer loop
      vertex 46.6989 7.5 10.7657
      vertex 46.8183 13.5 11
      vertex 46.6989 13.5 10.7657
    endloop
  endfacet
  facet normal -0.891007 1.22028e-07 0.45399
    outer loop
      vertex 46.9972 7.5 11.3511
      vertex 46.8183 13.5 11
      vertex 46.6989 7.5 10.7657
    endloop
  endfacet
  facet normal -0.891007 0 0.453989
    outer loop
      vertex 46.8183 13.5 11
      vertex 46.9972 7.5 11.3511
      vertex 46.9972 13.5 11.3511
    endloop
  endfacet
  facet normal -0.156435 0 0.987688
    outer loop
      vertex 45 13.5 9.9
      vertex 45.6489 7.5 10.0028
      vertex 45.6489 13.5 10.0028
    endloop
  endfacet
  facet normal -0.156435 0 0.987688
    outer loop
      vertex 45.6489 7.5 10.0028
      vertex 45 13.5 9.9
      vertex 45 7.5 9.9
    endloop
  endfacet
  facet normal 0.453991 0 0.891006
    outer loop
      vertex 43.7657 13.5 10.3011
      vertex 44.3511 7.5 10.0028
      vertex 44.3511 13.5 10.0028
    endloop
  endfacet
  facet normal 0.453991 0 0.891006
    outer loop
      vertex 44.3511 7.5 10.0028
      vertex 43.7657 13.5 10.3011
      vertex 43.7657 7.5 10.3011
    endloop
  endfacet
  facet normal 0.891007 0 0.453989
    outer loop
      vertex 43.0028 13.5 11.3511
      vertex 43.0028 7.5 11.3511
      vertex 43.1817 13.5 11
    endloop
  endfacet
  facet normal 0.891007 1.22028e-07 0.45399
    outer loop
      vertex 43.3011 7.5 10.7657
      vertex 43.1817 13.5 11
      vertex 43.0028 7.5 11.3511
    endloop
  endfacet
  facet normal 0.891005 0 0.453993
    outer loop
      vertex 43.1817 13.5 11
      vertex 43.3011 7.5 10.7657
      vertex 43.3011 13.5 10.7657
    endloop
  endfacet
  facet normal 0.707106 0 0.707108
    outer loop
      vertex 43.3011 13.5 10.7657
      vertex 43.7657 7.5 10.3011
      vertex 43.7657 13.5 10.3011
    endloop
  endfacet
  facet normal 0.707106 0 0.707108
    outer loop
      vertex 43.7657 7.5 10.3011
      vertex 43.3011 13.5 10.7657
      vertex 43.3011 7.5 10.7657
    endloop
  endfacet
  facet normal -0.453989 0 0.891007
    outer loop
      vertex 45.6489 13.5 10.0028
      vertex 46.2343 7.5 10.3011
      vertex 46.2343 13.5 10.3011
    endloop
  endfacet
  facet normal -0.453989 0 0.891007
    outer loop
      vertex 46.2343 7.5 10.3011
      vertex 45.6489 13.5 10.0028
      vertex 45.6489 7.5 10.0028
    endloop
  endfacet
  facet normal -0.891007 0 -0.45399
    outer loop
      vertex 46.9972 7.5 12.6489
      vertex 46.6989 13.5 13.2343
      vertex 46.9972 13.5 12.6489
    endloop
  endfacet
  facet normal -0.891007 -0 -0.45399
    outer loop
      vertex 46.6989 13.5 13.2343
      vertex 46.9972 7.5 12.6489
      vertex 46.6989 7.5 13.2343
    endloop
  endfacet
  facet normal 0.453991 0 -0.891006
    outer loop
      vertex 43.7657 7.5 13.6989
      vertex 44.3511 13.5 13.9972
      vertex 44.3511 7.5 13.9972
    endloop
  endfacet
  facet normal 0.453991 0 -0.891006
    outer loop
      vertex 44.3511 13.5 13.9972
      vertex 43.7657 7.5 13.6989
      vertex 43.7657 13.5 13.6989
    endloop
  endfacet
  facet normal 0.707106 0 -0.707108
    outer loop
      vertex 43.3011 7.5 13.2343
      vertex 43.7657 13.5 13.6989
      vertex 43.7657 7.5 13.6989
    endloop
  endfacet
  facet normal 0.707106 0 -0.707108
    outer loop
      vertex 43.7657 13.5 13.6989
      vertex 43.3011 7.5 13.2343
      vertex 43.3011 13.5 13.2343
    endloop
  endfacet
  facet normal -0.453989 0 -0.891007
    outer loop
      vertex 45.6489 7.5 13.9972
      vertex 46.2343 13.5 13.6989
      vertex 46.2343 7.5 13.6989
    endloop
  endfacet
  facet normal -0.453989 0 -0.891007
    outer loop
      vertex 46.2343 13.5 13.6989
      vertex 45.6489 7.5 13.9972
      vertex 45.6489 13.5 13.9972
    endloop
  endfacet
  facet normal -0.707106 0 -0.707108
    outer loop
      vertex 46.2343 7.5 13.6989
      vertex 46.6989 13.5 13.2343
      vertex 46.6989 7.5 13.2343
    endloop
  endfacet
  facet normal -0.707106 0 -0.707108
    outer loop
      vertex 46.6989 13.5 13.2343
      vertex 46.2343 7.5 13.6989
      vertex 46.2343 13.5 13.6989
    endloop
  endfacet
  facet normal -0.987689 0 -0.156432
    outer loop
      vertex 47.1 7.5 12
      vertex 46.9972 13.5 12.6489
      vertex 47.1 13.5 12
    endloop
  endfacet
  facet normal -0.987689 -0 -0.156432
    outer loop
      vertex 46.9972 13.5 12.6489
      vertex 47.1 7.5 12
      vertex 46.9972 7.5 12.6489
    endloop
  endfacet
  facet normal -0.156435 0 -0.987688
    outer loop
      vertex 45 7.5 14.1
      vertex 45.6489 13.5 13.9972
      vertex 45.6489 7.5 13.9972
    endloop
  endfacet
  facet normal -0.156435 0 -0.987688
    outer loop
      vertex 45.6489 13.5 13.9972
      vertex 45 7.5 14.1
      vertex 45 13.5 14.1
    endloop
  endfacet
  facet normal 0.987689 0 -0.156432
    outer loop
      vertex 43.0028 7.5 12.6489
      vertex 42.9 13.5 12
      vertex 43.0028 13.5 12.6489
    endloop
  endfacet
  facet normal 0.987689 0 -0.156432
    outer loop
      vertex 42.9 13.5 12
      vertex 43.0028 7.5 12.6489
      vertex 42.9 7.5 12
    endloop
  endfacet
  facet normal 0.156434 0 -0.987688
    outer loop
      vertex 44.3511 7.5 13.9972
      vertex 45 13.5 14.1
      vertex 45 7.5 14.1
    endloop
  endfacet
  facet normal 0.156434 0 -0.987688
    outer loop
      vertex 45 13.5 14.1
      vertex 44.3511 7.5 13.9972
      vertex 44.3511 13.5 13.9972
    endloop
  endfacet
  facet normal 0.891007 0 -0.45399
    outer loop
      vertex 43.3011 7.5 13.2343
      vertex 43.0028 13.5 12.6489
      vertex 43.3011 13.5 13.2343
    endloop
  endfacet
  facet normal 0.891007 0 -0.45399
    outer loop
      vertex 43.0028 13.5 12.6489
      vertex 43.3011 7.5 13.2343
      vertex 43.0028 7.5 12.6489
    endloop
  endfacet
  facet normal -0.156434 0 0.987688
    outer loop
      vertex 6.25 -9.5 10.9
      vertex 6.55902 -12.5 10.9489
      vertex 6.55902 -9.5 10.9489
    endloop
  endfacet
  facet normal -0.156434 0 0.987688
    outer loop
      vertex 6.55902 -12.5 10.9489
      vertex 6.25 -9.5 10.9
      vertex 6.25 -12.5 10.9
    endloop
  endfacet
  facet normal -0.156434 0 -0.987688
    outer loop
      vertex 6.25 -12.5 12.9
      vertex 6.55902 -9.5 12.8511
      vertex 6.55902 -12.5 12.8511
    endloop
  endfacet
  facet normal -0.156434 0 -0.987688
    outer loop
      vertex 6.55902 -9.5 12.8511
      vertex 6.25 -12.5 12.9
      vertex 6.25 -9.5 12.9
    endloop
  endfacet
  facet normal -0.987689 0 -0.156432
    outer loop
      vertex 7.25 -12.5 11.9
      vertex 7.20106 -9.5 12.209
      vertex 7.25 -9.5 11.9
    endloop
  endfacet
  facet normal -0.987689 -0 -0.156432
    outer loop
      vertex 7.20106 -9.5 12.209
      vertex 7.25 -12.5 11.9
      vertex 7.20106 -12.5 12.209
    endloop
  endfacet
  facet normal 0.987688 -0 0.156434
    outer loop
      vertex 5.25 -12.5 11.9
      vertex 5.29894 -9.5 11.591
      vertex 5.25 -9.5 11.9
    endloop
  endfacet
  facet normal 0.987688 0 0.156434
    outer loop
      vertex 5.29894 -9.5 11.591
      vertex 5.25 -12.5 11.9
      vertex 5.29894 -12.5 11.591
    endloop
  endfacet
  facet normal 0.891006 -0 0.453992
    outer loop
      vertex 5.29894 -12.5 11.591
      vertex 5.44098 -9.5 11.3122
      vertex 5.29894 -9.5 11.591
    endloop
  endfacet
  facet normal 0.891006 0 0.453992
    outer loop
      vertex 5.44098 -9.5 11.3122
      vertex 5.29894 -12.5 11.591
      vertex 5.44098 -12.5 11.3122
    endloop
  endfacet
  facet normal -0.891006 0 0.453992
    outer loop
      vertex 7.05902 -12.5 11.3122
      vertex 7.20106 -9.5 11.591
      vertex 7.05902 -9.5 11.3122
    endloop
  endfacet
  facet normal -0.891006 0 0.453992
    outer loop
      vertex 7.20106 -9.5 11.591
      vertex 7.05902 -12.5 11.3122
      vertex 7.20106 -12.5 11.591
    endloop
  endfacet
  facet normal -0.45399 0 0.891007
    outer loop
      vertex 6.55902 -9.5 10.9489
      vertex 6.83779 -12.5 11.091
      vertex 6.83779 -9.5 11.091
    endloop
  endfacet
  facet normal -0.45399 0 0.891007
    outer loop
      vertex 6.83779 -12.5 11.091
      vertex 6.55902 -9.5 10.9489
      vertex 6.55902 -12.5 10.9489
    endloop
  endfacet
  facet normal -0.987689 0 0.156432
    outer loop
      vertex 7.20106 -12.5 11.591
      vertex 7.25 -9.5 11.9
      vertex 7.20106 -9.5 11.591
    endloop
  endfacet
  facet normal -0.987689 0 0.156432
    outer loop
      vertex 7.25 -9.5 11.9
      vertex 7.20106 -12.5 11.591
      vertex 7.25 -12.5 11.9
    endloop
  endfacet
  facet normal -0.707108 0 -0.707105
    outer loop
      vertex 7.05902 -12.5 12.4878
      vertex 6.83779 -9.5 12.709
      vertex 7.05902 -9.5 12.4878
    endloop
  endfacet
  facet normal -0.707108 -0 -0.707105
    outer loop
      vertex 6.83779 -9.5 12.709
      vertex 7.05902 -12.5 12.4878
      vertex 6.83779 -12.5 12.709
    endloop
  endfacet
  facet normal -0.45399 0 -0.891007
    outer loop
      vertex 6.55902 -12.5 12.8511
      vertex 6.83779 -9.5 12.709
      vertex 6.83779 -12.5 12.709
    endloop
  endfacet
  facet normal -0.45399 0 -0.891007
    outer loop
      vertex 6.83779 -9.5 12.709
      vertex 6.55902 -12.5 12.8511
      vertex 6.55902 -9.5 12.8511
    endloop
  endfacet
  facet normal -0.891005 0 -0.453993
    outer loop
      vertex 7.20106 -12.5 12.209
      vertex 7.05902 -9.5 12.4878
      vertex 7.20106 -9.5 12.209
    endloop
  endfacet
  facet normal -0.891005 -0 -0.453993
    outer loop
      vertex 7.05902 -9.5 12.4878
      vertex 7.20106 -12.5 12.209
      vertex 7.05902 -12.5 12.4878
    endloop
  endfacet
  facet normal 0.707108 0 -0.707105
    outer loop
      vertex 5.66222 -12.5 12.709
      vertex 5.44098 -9.5 12.4878
      vertex 5.66222 -9.5 12.709
    endloop
  endfacet
  facet normal 0.707108 0 -0.707105
    outer loop
      vertex 5.44098 -9.5 12.4878
      vertex 5.66222 -12.5 12.709
      vertex 5.44098 -12.5 12.4878
    endloop
  endfacet
  facet normal -0.707107 0 0.707107
    outer loop
      vertex 6.83779 -12.5 11.091
      vertex 7.05902 -9.5 11.3122
      vertex 6.83779 -9.5 11.091
    endloop
  endfacet
  facet normal -0.707107 0 0.707107
    outer loop
      vertex 7.05902 -9.5 11.3122
      vertex 6.83779 -12.5 11.091
      vertex 7.05902 -12.5 11.3122
    endloop
  endfacet
  facet normal 0.156435 0 0.987688
    outer loop
      vertex 5.94098 -9.5 10.9489
      vertex 6.25 -12.5 10.9
      vertex 6.25 -9.5 10.9
    endloop
  endfacet
  facet normal 0.156435 0 0.987688
    outer loop
      vertex 6.25 -12.5 10.9
      vertex 5.94098 -9.5 10.9489
      vertex 5.94098 -12.5 10.9489
    endloop
  endfacet
  facet normal 0.707107 -0 0.707107
    outer loop
      vertex 5.44098 -12.5 11.3122
      vertex 5.66222 -9.5 11.091
      vertex 5.44098 -9.5 11.3122
    endloop
  endfacet
  facet normal 0.707107 0 0.707107
    outer loop
      vertex 5.66222 -9.5 11.091
      vertex 5.44098 -12.5 11.3122
      vertex 5.66222 -12.5 11.091
    endloop
  endfacet
  facet normal 0.45399 0 0.891007
    outer loop
      vertex 5.66222 -9.5 11.091
      vertex 5.94098 -12.5 10.9489
      vertex 5.94098 -9.5 10.9489
    endloop
  endfacet
  facet normal 0.45399 0 0.891007
    outer loop
      vertex 5.94098 -12.5 10.9489
      vertex 5.66222 -9.5 11.091
      vertex 5.66222 -12.5 11.091
    endloop
  endfacet
  facet normal 0.987688 0 -0.156434
    outer loop
      vertex 5.29894 -12.5 12.209
      vertex 5.25 -9.5 11.9
      vertex 5.29894 -9.5 12.209
    endloop
  endfacet
  facet normal 0.987688 0 -0.156434
    outer loop
      vertex 5.25 -9.5 11.9
      vertex 5.29894 -12.5 12.209
      vertex 5.25 -12.5 11.9
    endloop
  endfacet
  facet normal 0.891005 0 -0.453993
    outer loop
      vertex 5.44098 -12.5 12.4878
      vertex 5.29894 -9.5 12.209
      vertex 5.44098 -9.5 12.4878
    endloop
  endfacet
  facet normal 0.891005 0 -0.453993
    outer loop
      vertex 5.29894 -9.5 12.209
      vertex 5.44098 -12.5 12.4878
      vertex 5.29894 -12.5 12.209
    endloop
  endfacet
  facet normal 0.45399 0 -0.891007
    outer loop
      vertex 5.66222 -12.5 12.709
      vertex 5.94098 -9.5 12.8511
      vertex 5.94098 -12.5 12.8511
    endloop
  endfacet
  facet normal 0.45399 0 -0.891007
    outer loop
      vertex 5.94098 -9.5 12.8511
      vertex 5.66222 -12.5 12.709
      vertex 5.66222 -9.5 12.709
    endloop
  endfacet
  facet normal 0.156435 0 -0.987688
    outer loop
      vertex 5.94098 -12.5 12.8511
      vertex 6.25 -9.5 12.9
      vertex 6.25 -12.5 12.9
    endloop
  endfacet
  facet normal 0.156435 0 -0.987688
    outer loop
      vertex 6.25 -9.5 12.9
      vertex 5.94098 -12.5 12.8511
      vertex 5.94098 -9.5 12.8511
    endloop
  endfacet
  facet normal -0.156434 0 0.987688
    outer loop
      vertex 33.75 -9.5 10.9
      vertex 34.059 -12.5 10.9489
      vertex 34.059 -9.5 10.9489
    endloop
  endfacet
  facet normal -0.156434 0 0.987688
    outer loop
      vertex 34.059 -12.5 10.9489
      vertex 33.75 -9.5 10.9
      vertex 33.75 -12.5 10.9
    endloop
  endfacet
  facet normal 0.156434 0 -0.987688
    outer loop
      vertex 33.441 -12.5 12.8511
      vertex 33.75 -9.5 12.9
      vertex 33.75 -12.5 12.9
    endloop
  endfacet
  facet normal 0.156434 0 -0.987688
    outer loop
      vertex 33.75 -9.5 12.9
      vertex 33.441 -12.5 12.8511
      vertex 33.441 -9.5 12.8511
    endloop
  endfacet
  facet normal -0.987689 0 -0.156432
    outer loop
      vertex 34.75 -12.5 11.9
      vertex 34.7011 -9.5 12.209
      vertex 34.75 -9.5 11.9
    endloop
  endfacet
  facet normal -0.987689 -0 -0.156432
    outer loop
      vertex 34.7011 -9.5 12.209
      vertex 34.75 -12.5 11.9
      vertex 34.7011 -12.5 12.209
    endloop
  endfacet
  facet normal 0.891005 0 -0.453993
    outer loop
      vertex 32.941 -12.5 12.4878
      vertex 32.7989 -9.5 12.209
      vertex 32.941 -9.5 12.4878
    endloop
  endfacet
  facet normal 0.891005 0 -0.453993
    outer loop
      vertex 32.7989 -9.5 12.209
      vertex 32.941 -12.5 12.4878
      vertex 32.7989 -12.5 12.209
    endloop
  endfacet
  facet normal -0.891006 0 0.453992
    outer loop
      vertex 34.559 -12.5 11.3122
      vertex 34.7011 -9.5 11.591
      vertex 34.559 -9.5 11.3122
    endloop
  endfacet
  facet normal -0.891006 0 0.453992
    outer loop
      vertex 34.7011 -9.5 11.591
      vertex 34.559 -12.5 11.3122
      vertex 34.7011 -12.5 11.591
    endloop
  endfacet
  facet normal -0.453992 0 0.891006
    outer loop
      vertex 34.059 -9.5 10.9489
      vertex 34.3378 -12.5 11.091
      vertex 34.3378 -9.5 11.091
    endloop
  endfacet
  facet normal -0.453992 0 0.891006
    outer loop
      vertex 34.3378 -12.5 11.091
      vertex 34.059 -9.5 10.9489
      vertex 34.059 -12.5 10.9489
    endloop
  endfacet
  facet normal -0.987689 0 0.156432
    outer loop
      vertex 34.7011 -12.5 11.591
      vertex 34.75 -9.5 11.9
      vertex 34.7011 -9.5 11.591
    endloop
  endfacet
  facet normal -0.987689 0 0.156432
    outer loop
      vertex 34.75 -9.5 11.9
      vertex 34.7011 -12.5 11.591
      vertex 34.75 -12.5 11.9
    endloop
  endfacet
  facet normal -0.707105 0 -0.707108
    outer loop
      vertex 34.3378 -12.5 12.709
      vertex 34.559 -9.5 12.4878
      vertex 34.559 -12.5 12.4878
    endloop
  endfacet
  facet normal -0.707105 0 -0.707108
    outer loop
      vertex 34.559 -9.5 12.4878
      vertex 34.3378 -12.5 12.709
      vertex 34.3378 -9.5 12.709
    endloop
  endfacet
  facet normal -0.891005 0 -0.453993
    outer loop
      vertex 34.7011 -12.5 12.209
      vertex 34.559 -9.5 12.4878
      vertex 34.7011 -9.5 12.209
    endloop
  endfacet
  facet normal -0.891005 -0 -0.453993
    outer loop
      vertex 34.559 -9.5 12.4878
      vertex 34.7011 -12.5 12.209
      vertex 34.559 -12.5 12.4878
    endloop
  endfacet
  facet normal 0.891006 -0 0.453992
    outer loop
      vertex 32.7989 -12.5 11.591
      vertex 32.941 -9.5 11.3122
      vertex 32.7989 -9.5 11.591
    endloop
  endfacet
  facet normal 0.891006 0 0.453992
    outer loop
      vertex 32.941 -9.5 11.3122
      vertex 32.7989 -12.5 11.591
      vertex 32.941 -12.5 11.3122
    endloop
  endfacet
  facet normal 0.453992 0 0.891006
    outer loop
      vertex 33.1622 -9.5 11.091
      vertex 33.441 -12.5 10.9489
      vertex 33.441 -9.5 10.9489
    endloop
  endfacet
  facet normal 0.453992 0 0.891006
    outer loop
      vertex 33.441 -12.5 10.9489
      vertex 33.1622 -9.5 11.091
      vertex 33.1622 -12.5 11.091
    endloop
  endfacet
  facet normal 0.987689 0 -0.156432
    outer loop
      vertex 32.7989 -12.5 12.209
      vertex 32.75 -9.5 11.9
      vertex 32.7989 -9.5 12.209
    endloop
  endfacet
  facet normal 0.987689 0 -0.156432
    outer loop
      vertex 32.75 -9.5 11.9
      vertex 32.7989 -12.5 12.209
      vertex 32.75 -12.5 11.9
    endloop
  endfacet
  facet normal 0.453992 0 -0.891006
    outer loop
      vertex 33.1622 -12.5 12.709
      vertex 33.441 -9.5 12.8511
      vertex 33.441 -12.5 12.8511
    endloop
  endfacet
  facet normal 0.453992 0 -0.891006
    outer loop
      vertex 33.441 -9.5 12.8511
      vertex 33.1622 -12.5 12.709
      vertex 33.1622 -9.5 12.709
    endloop
  endfacet
  facet normal -0.707104 0 0.70711
    outer loop
      vertex 34.3378 -9.5 11.091
      vertex 34.559 -12.5 11.3122
      vertex 34.559 -9.5 11.3122
    endloop
  endfacet
  facet normal -0.707104 0 0.70711
    outer loop
      vertex 34.559 -12.5 11.3122
      vertex 34.3378 -9.5 11.091
      vertex 34.3378 -12.5 11.091
    endloop
  endfacet
  facet normal -0.453992 0 -0.891006
    outer loop
      vertex 34.059 -12.5 12.8511
      vertex 34.3378 -9.5 12.709
      vertex 34.3378 -12.5 12.709
    endloop
  endfacet
  facet normal -0.453992 0 -0.891006
    outer loop
      vertex 34.3378 -9.5 12.709
      vertex 34.059 -12.5 12.8511
      vertex 34.059 -9.5 12.8511
    endloop
  endfacet
  facet normal -0.156434 0 -0.987688
    outer loop
      vertex 33.75 -12.5 12.9
      vertex 34.059 -9.5 12.8511
      vertex 34.059 -12.5 12.8511
    endloop
  endfacet
  facet normal -0.156434 0 -0.987688
    outer loop
      vertex 34.059 -9.5 12.8511
      vertex 33.75 -12.5 12.9
      vertex 33.75 -9.5 12.9
    endloop
  endfacet
  facet normal 0.156434 0 0.987688
    outer loop
      vertex 33.441 -9.5 10.9489
      vertex 33.75 -12.5 10.9
      vertex 33.75 -9.5 10.9
    endloop
  endfacet
  facet normal 0.156434 0 0.987688
    outer loop
      vertex 33.75 -12.5 10.9
      vertex 33.441 -9.5 10.9489
      vertex 33.441 -12.5 10.9489
    endloop
  endfacet
  facet normal 0.707104 0 0.70711
    outer loop
      vertex 32.941 -9.5 11.3122
      vertex 33.1622 -12.5 11.091
      vertex 33.1622 -9.5 11.091
    endloop
  endfacet
  facet normal 0.707104 0 0.70711
    outer loop
      vertex 33.1622 -12.5 11.091
      vertex 32.941 -9.5 11.3122
      vertex 32.941 -12.5 11.3122
    endloop
  endfacet
  facet normal 0.987689 -0 0.156432
    outer loop
      vertex 32.75 -12.5 11.9
      vertex 32.7989 -9.5 11.591
      vertex 32.75 -9.5 11.9
    endloop
  endfacet
  facet normal 0.987689 0 0.156432
    outer loop
      vertex 32.7989 -9.5 11.591
      vertex 32.75 -12.5 11.9
      vertex 32.7989 -12.5 11.591
    endloop
  endfacet
  facet normal 0.707105 0 -0.707108
    outer loop
      vertex 32.941 -12.5 12.4878
      vertex 33.1622 -9.5 12.709
      vertex 33.1622 -12.5 12.709
    endloop
  endfacet
  facet normal 0.707105 0 -0.707108
    outer loop
      vertex 33.1622 -9.5 12.709
      vertex 32.941 -12.5 12.4878
      vertex 32.941 -9.5 12.4878
    endloop
  endfacet
  facet normal -1 0 0
    outer loop
      vertex 31.5 -12.5 6
      vertex 31.5 -9.5 17.8
      vertex 31.5 -9.5 6
    endloop
  endfacet
  facet normal -1 -0 0
    outer loop
      vertex 31.5 -9.5 17.8
      vertex 31.5 -12.5 6
      vertex 31.5 -12.5 17.8
    endloop
  endfacet
  facet normal 1 -0 0
    outer loop
      vertex 8.5 -12.5 17.8
      vertex 8.5 -9.5 6
      vertex 8.5 -9.5 17.8
    endloop
  endfacet
  facet normal 1 0 0
    outer loop
      vertex 8.5 -9.5 6
      vertex 8.5 -12.5 17.8
      vertex 8.5 -12.5 6
    endloop
  endfacet
  facet normal 0 1 0
    outer loop
      vertex 8.5 -9.5 17.8
      vertex 6.25 -9.5 12.9
      vertex 3.75 -9.5 17.8
    endloop
  endfacet
  facet normal 0 1 0
    outer loop
      vertex 8.5 -9.5 17.8
      vertex 6.55902 -9.5 12.8511
      vertex 6.25 -9.5 12.9
    endloop
  endfacet
  facet normal 0 1 0
    outer loop
      vertex 8.5 -9.5 17.8
      vertex 6.83779 -9.5 12.709
      vertex 6.55902 -9.5 12.8511
    endloop
  endfacet
  facet normal 0 1 0
    outer loop
      vertex 8.5 -9.5 17.8
      vertex 7.05902 -9.5 12.4878
      vertex 6.83779 -9.5 12.709
    endloop
  endfacet
  facet normal 0 1 0
    outer loop
      vertex 8.5 -9.5 17.8
      vertex 7.20106 -9.5 12.209
      vertex 7.05902 -9.5 12.4878
    endloop
  endfacet
  facet normal 0 1 0
    outer loop
      vertex 8.5 -9.5 17.8
      vertex 7.25 -9.5 11.9
      vertex 7.20106 -9.5 12.209
    endloop
  endfacet
  facet normal 0 1 -0
    outer loop
      vertex 8.5 -9.5 6
      vertex 7.25 -9.5 11.9
      vertex 8.5 -9.5 17.8
    endloop
  endfacet
  facet normal 0 1 0
    outer loop
      vertex 6.55902 -9.5 10.9489
      vertex 8.5 -9.5 6
      vertex 6.25 -9.5 10.9
    endloop
  endfacet
  facet normal 0 1 0
    outer loop
      vertex 6.83779 -9.5 11.091
      vertex 8.5 -9.5 6
      vertex 6.55902 -9.5 10.9489
    endloop
  endfacet
  facet normal 0 1 0
    outer loop
      vertex 7.05902 -9.5 11.3122
      vertex 8.5 -9.5 6
      vertex 6.83779 -9.5 11.091
    endloop
  endfacet
  facet normal 0 1 0
    outer loop
      vertex 7.20106 -9.5 11.591
      vertex 8.5 -9.5 6
      vertex 7.05902 -9.5 11.3122
    endloop
  endfacet
  facet normal 0 1 0
    outer loop
      vertex 7.25 -9.5 11.9
      vertex 8.5 -9.5 6
      vertex 7.20106 -9.5 11.591
    endloop
  endfacet
  facet normal 0 1 -0
    outer loop
      vertex 5.94098 -9.5 12.8511
      vertex 3.75 -9.5 17.8
      vertex 6.25 -9.5 12.9
    endloop
  endfacet
  facet normal 0 1 -0
    outer loop
      vertex 5.66222 -9.5 12.709
      vertex 3.75 -9.5 17.8
      vertex 5.94098 -9.5 12.8511
    endloop
  endfacet
  facet normal 0 1 -0
    outer loop
      vertex 5.44098 -9.5 12.4878
      vertex 3.75 -9.5 17.8
      vertex 5.66222 -9.5 12.709
    endloop
  endfacet
  facet normal 0 1 -0
    outer loop
      vertex 5.29894 -9.5 12.209
      vertex 3.75 -9.5 17.8
      vertex 5.44098 -9.5 12.4878
    endloop
  endfacet
  facet normal 0 1 -0
    outer loop
      vertex 5.25 -9.5 11.9
      vertex 3.75 -9.5 17.8
      vertex 5.29894 -9.5 12.209
    endloop
  endfacet
  facet normal 0 1 0
    outer loop
      vertex 3.75 -9.5 6
      vertex 5.25 -9.5 11.9
      vertex 5.29894 -9.5 11.591
    endloop
  endfacet
  facet normal 0 1 0
    outer loop
      vertex 3.75 -9.5 6
      vertex 6.25 -9.5 10.9
      vertex 8.5 -9.5 6
    endloop
  endfacet
  facet normal 0 1 0
    outer loop
      vertex 6.25 -9.5 10.9
      vertex 3.75 -9.5 6
      vertex 5.94098 -9.5 10.9489
    endloop
  endfacet
  facet normal 0 1 0
    outer loop
      vertex 5.94098 -9.5 10.9489
      vertex 3.75 -9.5 6
      vertex 5.66222 -9.5 11.091
    endloop
  endfacet
  facet normal 0 1 0
    outer loop
      vertex 5.25 -9.5 11.9
      vertex 3.75 -9.5 6
      vertex 3.75 -9.5 17.8
    endloop
  endfacet
  facet normal 0 1 0
    outer loop
      vertex 5.44098 -9.5 11.3122
      vertex 3.75 -9.5 6
      vertex 5.29894 -9.5 11.591
    endloop
  endfacet
  facet normal 0 1 0
    outer loop
      vertex 5.66222 -9.5 11.091
      vertex 3.75 -9.5 6
      vertex 5.44098 -9.5 11.3122
    endloop
  endfacet
  facet normal 0 1 0
    outer loop
      vertex 36.25 -9.5 17.8
      vertex 33.75 -9.5 12.9
      vertex 31.5 -9.5 17.8
    endloop
  endfacet
  facet normal 0 1 0
    outer loop
      vertex 36.25 -9.5 17.8
      vertex 34.059 -9.5 12.8511
      vertex 33.75 -9.5 12.9
    endloop
  endfacet
  facet normal 0 1 0
    outer loop
      vertex 36.25 -9.5 17.8
      vertex 34.3378 -9.5 12.709
      vertex 34.059 -9.5 12.8511
    endloop
  endfacet
  facet normal 0 1 0
    outer loop
      vertex 36.25 -9.5 17.8
      vertex 34.559 -9.5 12.4878
      vertex 34.3378 -9.5 12.709
    endloop
  endfacet
  facet normal 0 1 0
    outer loop
      vertex 36.25 -9.5 17.8
      vertex 34.7011 -9.5 12.209
      vertex 34.559 -9.5 12.4878
    endloop
  endfacet
  facet normal 0 1 0
    outer loop
      vertex 36.25 -9.5 17.8
      vertex 34.75 -9.5 11.9
      vertex 34.7011 -9.5 12.209
    endloop
  endfacet
  facet normal 0 1 -0
    outer loop
      vertex 36.25 -9.5 6
      vertex 34.75 -9.5 11.9
      vertex 36.25 -9.5 17.8
    endloop
  endfacet
  facet normal 0 1 0
    outer loop
      vertex 34.059 -9.5 10.9489
      vertex 36.25 -9.5 6
      vertex 33.75 -9.5 10.9
    endloop
  endfacet
  facet normal 0 1 0
    outer loop
      vertex 34.3378 -9.5 11.091
      vertex 36.25 -9.5 6
      vertex 34.059 -9.5 10.9489
    endloop
  endfacet
  facet normal 0 1 0
    outer loop
      vertex 34.559 -9.5 11.3122
      vertex 36.25 -9.5 6
      vertex 34.3378 -9.5 11.091
    endloop
  endfacet
  facet normal 0 1 0
    outer loop
      vertex 34.7011 -9.5 11.591
      vertex 36.25 -9.5 6
      vertex 34.559 -9.5 11.3122
    endloop
  endfacet
  facet normal 0 1 0
    outer loop
      vertex 34.75 -9.5 11.9
      vertex 36.25 -9.5 6
      vertex 34.7011 -9.5 11.591
    endloop
  endfacet
  facet normal 0 1 -0
    outer loop
      vertex 33.441 -9.5 12.8511
      vertex 31.5 -9.5 17.8
      vertex 33.75 -9.5 12.9
    endloop
  endfacet
  facet normal 0 1 -0
    outer loop
      vertex 33.1622 -9.5 12.709
      vertex 31.5 -9.5 17.8
      vertex 33.441 -9.5 12.8511
    endloop
  endfacet
  facet normal 0 1 -0
    outer loop
      vertex 32.941 -9.5 12.4878
      vertex 31.5 -9.5 17.8
      vertex 33.1622 -9.5 12.709
    endloop
  endfacet
  facet normal 0 1 -0
    outer loop
      vertex 32.7989 -9.5 12.209
      vertex 31.5 -9.5 17.8
      vertex 32.941 -9.5 12.4878
    endloop
  endfacet
  facet normal 0 1 -0
    outer loop
      vertex 32.75 -9.5 11.9
      vertex 31.5 -9.5 17.8
      vertex 32.7989 -9.5 12.209
    endloop
  endfacet
  facet normal 0 1 0
    outer loop
      vertex 31.5 -9.5 6
      vertex 32.75 -9.5 11.9
      vertex 32.7989 -9.5 11.591
    endloop
  endfacet
  facet normal 0 1 0
    outer loop
      vertex 31.5 -9.5 6
      vertex 33.75 -9.5 10.9
      vertex 36.25 -9.5 6
    endloop
  endfacet
  facet normal 0 1 0
    outer loop
      vertex 33.75 -9.5 10.9
      vertex 31.5 -9.5 6
      vertex 33.441 -9.5 10.9489
    endloop
  endfacet
  facet normal 0 1 0
    outer loop
      vertex 33.441 -9.5 10.9489
      vertex 31.5 -9.5 6
      vertex 33.1622 -9.5 11.091
    endloop
  endfacet
  facet normal 0 1 0
    outer loop
      vertex 32.75 -9.5 11.9
      vertex 31.5 -9.5 6
      vertex 31.5 -9.5 17.8
    endloop
  endfacet
  facet normal 0 1 0
    outer loop
      vertex 32.941 -9.5 11.3122
      vertex 31.5 -9.5 6
      vertex 32.7989 -9.5 11.591
    endloop
  endfacet
  facet normal 0 1 0
    outer loop
      vertex 33.1622 -9.5 11.091
      vertex 31.5 -9.5 6
      vertex 32.941 -9.5 11.3122
    endloop
  endfacet
  facet normal -0 0 1
    outer loop
      vertex 3.75 -9.5 17.8
      vertex 8.5 -12.5 17.8
      vertex 8.5 -9.5 17.8
    endloop
  endfacet
  facet normal 0 0 1
    outer loop
      vertex 8.5 -12.5 17.8
      vertex 3.75 -9.5 17.8
      vertex 3.75 -12.5 17.8
    endloop
  endfacet
  facet normal -0 0 1
    outer loop
      vertex 31.5 -9.5 17.8
      vertex 36.25 -12.5 17.8
      vertex 36.25 -9.5 17.8
    endloop
  endfacet
  facet normal 0 0 1
    outer loop
      vertex 36.25 -12.5 17.8
      vertex 31.5 -9.5 17.8
      vertex 31.5 -12.5 17.8
    endloop
  endfacet
  facet normal 0 -1 0
    outer loop
      vertex 3.75 -12.5 17.8
      vertex 6.25 -12.5 12.9
      vertex 8.5 -12.5 17.8
    endloop
  endfacet
  facet normal 0 -1 0
    outer loop
      vertex 3.75 -12.5 17.8
      vertex 5.94098 -12.5 12.8511
      vertex 6.25 -12.5 12.9
    endloop
  endfacet
  facet normal 0 -1 0
    outer loop
      vertex 3.75 -12.5 17.8
      vertex 5.66222 -12.5 12.709
      vertex 5.94098 -12.5 12.8511
    endloop
  endfacet
  facet normal 0 -1 0
    outer loop
      vertex 3.75 -12.5 17.8
      vertex 5.44098 -12.5 12.4878
      vertex 5.66222 -12.5 12.709
    endloop
  endfacet
  facet normal 0 -1 0
    outer loop
      vertex 3.75 -12.5 17.8
      vertex 5.29894 -12.5 12.209
      vertex 5.44098 -12.5 12.4878
    endloop
  endfacet
  facet normal 0 -1 0
    outer loop
      vertex 3.75 -12.5 17.8
      vertex 5.25 -12.5 11.9
      vertex 5.29894 -12.5 12.209
    endloop
  endfacet
  facet normal 0 -1 0
    outer loop
      vertex 3.75 -12.5 6
      vertex 5.25 -12.5 11.9
      vertex 3.75 -12.5 17.8
    endloop
  endfacet
  facet normal 0 -1 -0
    outer loop
      vertex 5.94098 -12.5 10.9489
      vertex 3.75 -12.5 6
      vertex 6.25 -12.5 10.9
    endloop
  endfacet
  facet normal 0 -1 -0
    outer loop
      vertex 5.66222 -12.5 11.091
      vertex 3.75 -12.5 6
      vertex 5.94098 -12.5 10.9489
    endloop
  endfacet
  facet normal 0 -1 -0
    outer loop
      vertex 5.44098 -12.5 11.3122
      vertex 3.75 -12.5 6
      vertex 5.66222 -12.5 11.091
    endloop
  endfacet
  facet normal 0 -1 -0
    outer loop
      vertex 5.29894 -12.5 11.591
      vertex 3.75 -12.5 6
      vertex 5.44098 -12.5 11.3122
    endloop
  endfacet
  facet normal 0 -1 -0
    outer loop
      vertex 5.25 -12.5 11.9
      vertex 3.75 -12.5 6
      vertex 5.29894 -12.5 11.591
    endloop
  endfacet
  facet normal 0 -1 0
    outer loop
      vertex 6.55902 -12.5 12.8511
      vertex 8.5 -12.5 17.8
      vertex 6.25 -12.5 12.9
    endloop
  endfacet
  facet normal 0 -1 0
    outer loop
      vertex 6.83779 -12.5 12.709
      vertex 8.5 -12.5 17.8
      vertex 6.55902 -12.5 12.8511
    endloop
  endfacet
  facet normal 0 -1 0
    outer loop
      vertex 7.05902 -12.5 12.4878
      vertex 8.5 -12.5 17.8
      vertex 6.83779 -12.5 12.709
    endloop
  endfacet
  facet normal 0 -1 0
    outer loop
      vertex 7.20106 -12.5 12.209
      vertex 8.5 -12.5 17.8
      vertex 7.05902 -12.5 12.4878
    endloop
  endfacet
  facet normal 0 -1 0
    outer loop
      vertex 7.25 -12.5 11.9
      vertex 8.5 -12.5 17.8
      vertex 7.20106 -12.5 12.209
    endloop
  endfacet
  facet normal 0 -1 0
    outer loop
      vertex 8.5 -12.5 6
      vertex 7.25 -12.5 11.9
      vertex 7.20106 -12.5 11.591
    endloop
  endfacet
  facet normal 0 -1 0
    outer loop
      vertex 8.5 -12.5 6
      vertex 6.25 -12.5 10.9
      vertex 3.75 -12.5 6
    endloop
  endfacet
  facet normal 0 -1 0
    outer loop
      vertex 6.25 -12.5 10.9
      vertex 8.5 -12.5 6
      vertex 6.55902 -12.5 10.9489
    endloop
  endfacet
  facet normal 0 -1 0
    outer loop
      vertex 6.55902 -12.5 10.9489
      vertex 8.5 -12.5 6
      vertex 6.83779 -12.5 11.091
    endloop
  endfacet
  facet normal 0 -1 0
    outer loop
      vertex 7.25 -12.5 11.9
      vertex 8.5 -12.5 6
      vertex 8.5 -12.5 17.8
    endloop
  endfacet
  facet normal 0 -1 0
    outer loop
      vertex 7.05902 -12.5 11.3122
      vertex 8.5 -12.5 6
      vertex 7.20106 -12.5 11.591
    endloop
  endfacet
  facet normal 0 -1 0
    outer loop
      vertex 6.83779 -12.5 11.091
      vertex 8.5 -12.5 6
      vertex 7.05902 -12.5 11.3122
    endloop
  endfacet
  facet normal 0 -1 0
    outer loop
      vertex 31.5 -12.5 17.8
      vertex 33.75 -12.5 12.9
      vertex 36.25 -12.5 17.8
    endloop
  endfacet
  facet normal 0 -1 0
    outer loop
      vertex 31.5 -12.5 17.8
      vertex 33.441 -12.5 12.8511
      vertex 33.75 -12.5 12.9
    endloop
  endfacet
  facet normal 0 -1 0
    outer loop
      vertex 31.5 -12.5 17.8
      vertex 33.1622 -12.5 12.709
      vertex 33.441 -12.5 12.8511
    endloop
  endfacet
  facet normal 0 -1 0
    outer loop
      vertex 31.5 -12.5 17.8
      vertex 32.941 -12.5 12.4878
      vertex 33.1622 -12.5 12.709
    endloop
  endfacet
  facet normal 0 -1 0
    outer loop
      vertex 31.5 -12.5 17.8
      vertex 32.7989 -12.5 12.209
      vertex 32.941 -12.5 12.4878
    endloop
  endfacet
  facet normal 0 -1 0
    outer loop
      vertex 31.5 -12.5 17.8
      vertex 32.75 -12.5 11.9
      vertex 32.7989 -12.5 12.209
    endloop
  endfacet
  facet normal 0 -1 0
    outer loop
      vertex 31.5 -12.5 6
      vertex 32.75 -12.5 11.9
      vertex 31.5 -12.5 17.8
    endloop
  endfacet
  facet normal 0 -1 -0
    outer loop
      vertex 33.441 -12.5 10.9489
      vertex 31.5 -12.5 6
      vertex 33.75 -12.5 10.9
    endloop
  endfacet
  facet normal 0 -1 -0
    outer loop
      vertex 33.1622 -12.5 11.091
      vertex 31.5 -12.5 6
      vertex 33.441 -12.5 10.9489
    endloop
  endfacet
  facet normal 0 -1 -0
    outer loop
      vertex 32.941 -12.5 11.3122
      vertex 31.5 -12.5 6
      vertex 33.1622 -12.5 11.091
    endloop
  endfacet
  facet normal 0 -1 -0
    outer loop
      vertex 32.7989 -12.5 11.591
      vertex 31.5 -12.5 6
      vertex 32.941 -12.5 11.3122
    endloop
  endfacet
  facet normal 0 -1 -0
    outer loop
      vertex 32.75 -12.5 11.9
      vertex 31.5 -12.5 6
      vertex 32.7989 -12.5 11.591
    endloop
  endfacet
  facet normal 0 -1 0
    outer loop
      vertex 34.059 -12.5 12.8511
      vertex 36.25 -12.5 17.8
      vertex 33.75 -12.5 12.9
    endloop
  endfacet
  facet normal 0 -1 0
    outer loop
      vertex 34.3378 -12.5 12.709
      vertex 36.25 -12.5 17.8
      vertex 34.059 -12.5 12.8511
    endloop
  endfacet
  facet normal 0 -1 0
    outer loop
      vertex 34.559 -12.5 12.4878
      vertex 36.25 -12.5 17.8
      vertex 34.3378 -12.5 12.709
    endloop
  endfacet
  facet normal 0 -1 0
    outer loop
      vertex 34.7011 -12.5 12.209
      vertex 36.25 -12.5 17.8
      vertex 34.559 -12.5 12.4878
    endloop
  endfacet
  facet normal 0 -1 0
    outer loop
      vertex 34.75 -12.5 11.9
      vertex 36.25 -12.5 17.8
      vertex 34.7011 -12.5 12.209
    endloop
  endfacet
  facet normal 0 -1 0
    outer loop
      vertex 36.25 -12.5 6
      vertex 34.75 -12.5 11.9
      vertex 34.7011 -12.5 11.591
    endloop
  endfacet
  facet normal 0 -1 0
    outer loop
      vertex 36.25 -12.5 6
      vertex 33.75 -12.5 10.9
      vertex 31.5 -12.5 6
    endloop
  endfacet
  facet normal 0 -1 0
    outer loop
      vertex 33.75 -12.5 10.9
      vertex 36.25 -12.5 6
      vertex 34.059 -12.5 10.9489
    endloop
  endfacet
  facet normal 0 -1 0
    outer loop
      vertex 34.059 -12.5 10.9489
      vertex 36.25 -12.5 6
      vertex 34.3378 -12.5 11.091
    endloop
  endfacet
  facet normal 0 -1 0
    outer loop
      vertex 34.75 -12.5 11.9
      vertex 36.25 -12.5 6
      vertex 36.25 -12.5 17.8
    endloop
  endfacet
  facet normal 0 -1 0
    outer loop
      vertex 34.559 -12.5 11.3122
      vertex 36.25 -12.5 6
      vertex 34.7011 -12.5 11.591
    endloop
  endfacet
  facet normal 0 -1 0
    outer loop
      vertex 34.3378 -12.5 11.091
      vertex 36.25 -12.5 6
      vertex 34.559 -12.5 11.3122
    endloop
  endfacet
  facet normal 1 -0 0
    outer loop
      vertex 36.25 -12.5 17.8
      vertex 36.25 -9.5 6
      vertex 36.25 -9.5 17.8
    endloop
  endfacet
  facet normal 1 0 0
    outer loop
      vertex 36.25 -9.5 6
      vertex 36.25 -12.5 17.8
      vertex 36.25 -12.5 6
    endloop
  endfacet
  facet normal -1 0 0
    outer loop
      vertex 3.75 -12.5 6
      vertex 3.75 -9.5 17.8
      vertex 3.75 -9.5 6
    endloop
  endfacet
  facet normal -1 -0 0
    outer loop
      vertex 3.75 -9.5 17.8
      vertex 3.75 -12.5 6
      vertex 3.75 -12.5 17.8
    endloop
  endfacet
endsolid OpenSCAD_Model
