solid OpenSCAD_Model
  facet normal -1 0 0
    outer loop
      vertex -7.5 7 0
      vertex -7.5 9.9 0
      vertex -7.5 10.0028 -0.648935
    endloop
  endfacet
  facet normal -1 0 0
    outer loop
      vertex -7.5 9.9 0
      vertex -7.5 7.95491 2.93893
      vertex -7.5 9.06107 4.04508
    endloop
  endfacet
  facet normal -1 0 0
    outer loop
      vertex -7.5 7.24472 -1.54508
      vertex -7.5 10.0028 -0.648935
      vertex -7.5 10.3011 -1.23435
    endloop
  endfacet
  facet normal -1 0 0
    outer loop
      vertex -7.5 7.24472 -1.54508
      vertex -7.5 10.3011 -1.23435
      vertex -7.5 10.6118 -1.54508
    endloop
  endfacet
  facet normal -1 -0 0
    outer loop
      vertex -7.5 10.0028 -0.648935
      vertex -7.5 7.24472 -1.54508
      vertex -7.5 7 0
    endloop
  endfacet
  facet normal -1 0 0
    outer loop
      vertex -7.5 9.9 0
      vertex -7.5 7.24472 1.54508
      vertex -7.5 7.95491 2.93893
    endloop
  endfacet
  facet normal -1 0 0
    outer loop
      vertex -7.5 9.9 0
      vertex -7.5 7 0
      vertex -7.5 7.24472 1.54508
    endloop
  endfacet
  facet normal -1 0 0
    outer loop
      vertex -7.5 11.3511 1.99722
      vertex -7.5 12 5
      vertex -7.5 12 2.1
    endloop
  endfacet
  facet normal -1 0 0
    outer loop
      vertex -7.5 10.4549 4.75528
      vertex -7.5 11.3511 1.99722
      vertex -7.5 10.7657 1.69894
    endloop
  endfacet
  facet normal -1 0 0
    outer loop
      vertex -7.5 11.3511 1.99722
      vertex -7.5 10.4549 4.75528
      vertex -7.5 12 5
    endloop
  endfacet
  facet normal -1 0 0
    outer loop
      vertex -7.5 9.06107 4.04508
      vertex -7.5 10.7657 1.69894
      vertex -7.5 10.3011 1.23435
    endloop
  endfacet
  facet normal -1 0 0
    outer loop
      vertex -7.5 9.06107 4.04508
      vertex -7.5 10.3011 1.23435
      vertex -7.5 10.0028 0.648935
    endloop
  endfacet
  facet normal -1 0 0
    outer loop
      vertex -7.5 9.06107 4.04508
      vertex -7.5 10.0028 0.648935
      vertex -7.5 9.9 0
    endloop
  endfacet
  facet normal -1 0 0
    outer loop
      vertex -7.5 10.7657 1.69894
      vertex -7.5 9.06107 4.04508
      vertex -7.5 10.4549 4.75528
    endloop
  endfacet
  facet normal -1 0 0
    outer loop
      vertex -7.5 70 -5
      vertex -7.5 14.1 0
      vertex -7.5 70 5
    endloop
  endfacet
  facet normal -1 0 0
    outer loop
      vertex -7.5 70 -5
      vertex -7.5 13.9972 -0.648935
      vertex -7.5 14.1 0
    endloop
  endfacet
  facet normal -1 0 0
    outer loop
      vertex -7.5 70 -5
      vertex -7.5 13.6989 -1.23435
      vertex -7.5 13.9972 -0.648935
    endloop
  endfacet
  facet normal -1 0 0
    outer loop
      vertex -7.5 12 -5
      vertex -7.5 13.6989 -1.23435
      vertex -7.5 70 -5
    endloop
  endfacet
  facet normal -1 0 0
    outer loop
      vertex -7.5 13.6989 -1.23435
      vertex -7.5 12 -5
      vertex -7.5 13.2343 -1.69894
    endloop
  endfacet
  facet normal -1 0 0
    outer loop
      vertex -7.5 13.2343 -1.69894
      vertex -7.5 12 -5
      vertex -7.5 12.6489 -1.99722
    endloop
  endfacet
  facet normal -1 0 0
    outer loop
      vertex -7.5 12.6489 -1.99722
      vertex -7.5 12 -5
      vertex -7.5 12 -2.1
    endloop
  endfacet
  facet normal -1 0 0
    outer loop
      vertex -7.5 13.9972 0.648935
      vertex -7.5 70 5
      vertex -7.5 14.1 0
    endloop
  endfacet
  facet normal -1 0 0
    outer loop
      vertex -7.5 13.6989 1.23435
      vertex -7.5 70 5
      vertex -7.5 13.9972 0.648935
    endloop
  endfacet
  facet normal -1 0 0
    outer loop
      vertex -7.5 12 5
      vertex -7.5 13.6989 1.23435
      vertex -7.5 13.2343 1.69894
    endloop
  endfacet
  facet normal -1 0 0
    outer loop
      vertex -7.5 12 5
      vertex -7.5 13.2343 1.69894
      vertex -7.5 12.6489 1.99722
    endloop
  endfacet
  facet normal -1 0 0
    outer loop
      vertex -7.5 12 5
      vertex -7.5 12.6489 1.99722
      vertex -7.5 12 2.1
    endloop
  endfacet
  facet normal -1 0 0
    outer loop
      vertex -7.5 13.6989 1.23435
      vertex -7.5 12 5
      vertex -7.5 70 5
    endloop
  endfacet
  facet normal -0 0 1
    outer loop
      vertex 5.5 42 5
      vertex 7.5 12 5
      vertex 7.5 70 5
    endloop
  endfacet
  facet normal -0 0 1
    outer loop
      vertex 5.5 17 5
      vertex 7.5 12 5
      vertex 5.5 42 5
    endloop
  endfacet
  facet normal 0 0 1
    outer loop
      vertex 5 50 5
      vertex 7.5 70 5
      vertex 5 60 5
    endloop
  endfacet
  facet normal 0 0 1
    outer loop
      vertex 7.5 70 5
      vertex 4 66.35 5
      vertex 5 60 5
    endloop
  endfacet
  facet normal 0 0 1
    outer loop
      vertex 7.5 70 5
      vertex -4 66.35 5
      vertex 4 66.35 5
    endloop
  endfacet
  facet normal 0 0 1
    outer loop
      vertex -4 66.35 5
      vertex -5 60 5
      vertex -4 61.65 5
    endloop
  endfacet
  facet normal 0 0 1
    outer loop
      vertex -7.5 70 5
      vertex -5 50 5
      vertex -5 60 5
    endloop
  endfacet
  facet normal 0 0 1
    outer loop
      vertex -7.5 12 5
      vertex -5.5 42 5
      vertex -7.5 70 5
    endloop
  endfacet
  facet normal 0 0 1
    outer loop
      vertex -5 50 5
      vertex -7.5 70 5
      vertex -5.5 42 5
    endloop
  endfacet
  facet normal 0 0 1
    outer loop
      vertex -4 66.35 5
      vertex -7.5 70 5
      vertex -5 60 5
    endloop
  endfacet
  facet normal -0 0 1
    outer loop
      vertex -7.5 70 5
      vertex -4 66.35 5
      vertex 7.5 70 5
    endloop
  endfacet
  facet normal -0 0 1
    outer loop
      vertex -5.5 17 5
      vertex 7.5 12 5
      vertex 5.5 17 5
    endloop
  endfacet
  facet normal 0 0 1
    outer loop
      vertex -5.5 17 5
      vertex -7.5 12 5
      vertex 7.5 12 5
    endloop
  endfacet
  facet normal 0 0 1
    outer loop
      vertex -5.5 42 5
      vertex -7.5 12 5
      vertex -5.5 17 5
    endloop
  endfacet
  facet normal 0 0 1
    outer loop
      vertex 7.5 70 5
      vertex 5 50 5
      vertex 5.5 42 5
    endloop
  endfacet
  facet normal -0 0 1
    outer loop
      vertex 4.75528 48.4549 5
      vertex 5.5 42 5
      vertex 5 50 5
    endloop
  endfacet
  facet normal -0 0 1
    outer loop
      vertex 4.04508 47.0611 5
      vertex 5.5 42 5
      vertex 4.75528 48.4549 5
    endloop
  endfacet
  facet normal -0 0 1
    outer loop
      vertex 2.93893 45.9549 5
      vertex 5.5 42 5
      vertex 4.04508 47.0611 5
    endloop
  endfacet
  facet normal -0 0 1
    outer loop
      vertex 1.54508 45.2447 5
      vertex 5.5 42 5
      vertex 2.93893 45.9549 5
    endloop
  endfacet
  facet normal -0 0 1
    outer loop
      vertex -6.12323e-16 45 5
      vertex 5.5 42 5
      vertex 1.54508 45.2447 5
    endloop
  endfacet
  facet normal 0 0 1
    outer loop
      vertex -5.5 42 5
      vertex -6.12323e-16 45 5
      vertex -1.54508 45.2447 5
    endloop
  endfacet
  facet normal 0 0 1
    outer loop
      vertex -6.12323e-16 45 5
      vertex -5.5 42 5
      vertex 5.5 42 5
    endloop
  endfacet
  facet normal 0 0 1
    outer loop
      vertex -2.93893 45.9549 5
      vertex -5.5 42 5
      vertex -1.54508 45.2447 5
    endloop
  endfacet
  facet normal 0 0 1
    outer loop
      vertex -4.04508 47.0611 5
      vertex -5.5 42 5
      vertex -2.93893 45.9549 5
    endloop
  endfacet
  facet normal 0 0 1
    outer loop
      vertex -4.75528 48.4549 5
      vertex -5.5 42 5
      vertex -4.04508 47.0611 5
    endloop
  endfacet
  facet normal 0 0 1
    outer loop
      vertex -5.5 42 5
      vertex -4.75528 48.4549 5
      vertex -5 50 5
    endloop
  endfacet
  facet normal -0 0 1
    outer loop
      vertex 4 61.65 5
      vertex 5 60 5
      vertex 4 66.35 5
    endloop
  endfacet
  facet normal -0 0 1
    outer loop
      vertex -4 61.65 5
      vertex 5 60 5
      vertex 4 61.65 5
    endloop
  endfacet
  facet normal 0 0 1
    outer loop
      vertex 5 60 5
      vertex -4 61.65 5
      vertex -5 60 5
    endloop
  endfacet
  facet normal 1 0 0
    outer loop
      vertex 7.5 7 0
      vertex 7.5 9.9 0
      vertex 7.5 10.0028 0.648935
    endloop
  endfacet
  facet normal 1 0 0
    outer loop
      vertex 7.5 9.9 0
      vertex 7.5 7.95491 -2.93893
      vertex 7.5 9.06107 -4.04508
    endloop
  endfacet
  facet normal 1 0 0
    outer loop
      vertex 7.5 7.24472 1.54508
      vertex 7.5 10.0028 0.648935
      vertex 7.5 10.3011 1.23435
    endloop
  endfacet
  facet normal 1 -0 0
    outer loop
      vertex 7.5 7.24472 1.54508
      vertex 7.5 10.3011 1.23435
      vertex 7.5 10.6118 1.54508
    endloop
  endfacet
  facet normal 1 0 0
    outer loop
      vertex 7.5 10.0028 0.648935
      vertex 7.5 7.24472 1.54508
      vertex 7.5 7 0
    endloop
  endfacet
  facet normal 1 0 0
    outer loop
      vertex 7.5 9.9 0
      vertex 7.5 7.24472 -1.54508
      vertex 7.5 7.95491 -2.93893
    endloop
  endfacet
  facet normal 1 0 0
    outer loop
      vertex 7.5 9.9 0
      vertex 7.5 7 0
      vertex 7.5 7.24472 -1.54508
    endloop
  endfacet
  facet normal 1 0 0
    outer loop
      vertex 7.5 11.3511 -1.99722
      vertex 7.5 12 -5
      vertex 7.5 12 -2.1
    endloop
  endfacet
  facet normal 1 0 0
    outer loop
      vertex 7.5 10.4549 -4.75528
      vertex 7.5 11.3511 -1.99722
      vertex 7.5 10.7657 -1.69894
    endloop
  endfacet
  facet normal 1 0 0
    outer loop
      vertex 7.5 11.3511 -1.99722
      vertex 7.5 10.4549 -4.75528
      vertex 7.5 12 -5
    endloop
  endfacet
  facet normal 1 0 0
    outer loop
      vertex 7.5 9.06107 -4.04508
      vertex 7.5 10.7657 -1.69894
      vertex 7.5 10.3011 -1.23435
    endloop
  endfacet
  facet normal 1 0 0
    outer loop
      vertex 7.5 9.06107 -4.04508
      vertex 7.5 10.3011 -1.23435
      vertex 7.5 10.0028 -0.648935
    endloop
  endfacet
  facet normal 1 0 0
    outer loop
      vertex 7.5 9.06107 -4.04508
      vertex 7.5 10.0028 -0.648935
      vertex 7.5 9.9 0
    endloop
  endfacet
  facet normal 1 0 0
    outer loop
      vertex 7.5 10.7657 -1.69894
      vertex 7.5 9.06107 -4.04508
      vertex 7.5 10.4549 -4.75528
    endloop
  endfacet
  facet normal 1 0 0
    outer loop
      vertex 7.5 70 5
      vertex 7.5 14.1 0
      vertex 7.5 70 -5
    endloop
  endfacet
  facet normal 1 0 0
    outer loop
      vertex 7.5 70 5
      vertex 7.5 13.9972 0.648935
      vertex 7.5 14.1 0
    endloop
  endfacet
  facet normal 1 0 0
    outer loop
      vertex 7.5 70 5
      vertex 7.5 13.6989 1.23435
      vertex 7.5 13.9972 0.648935
    endloop
  endfacet
  facet normal 1 -0 0
    outer loop
      vertex 7.5 12 5
      vertex 7.5 13.6989 1.23435
      vertex 7.5 70 5
    endloop
  endfacet
  facet normal 1 0 0
    outer loop
      vertex 7.5 13.6989 1.23435
      vertex 7.5 12 5
      vertex 7.5 13.2343 1.69894
    endloop
  endfacet
  facet normal 1 0 0
    outer loop
      vertex 7.5 13.2343 1.69894
      vertex 7.5 12 5
      vertex 7.5 12.6489 1.99722
    endloop
  endfacet
  facet normal 1 0 0
    outer loop
      vertex 7.5 12.6489 1.99722
      vertex 7.5 12 5
      vertex 7.5 12 2.1
    endloop
  endfacet
  facet normal 1 -0 0
    outer loop
      vertex 7.5 13.9972 -0.648935
      vertex 7.5 70 -5
      vertex 7.5 14.1 0
    endloop
  endfacet
  facet normal 1 -0 0
    outer loop
      vertex 7.5 13.6989 -1.23435
      vertex 7.5 70 -5
      vertex 7.5 13.9972 -0.648935
    endloop
  endfacet
  facet normal 1 0 0
    outer loop
      vertex 7.5 12 -5
      vertex 7.5 13.6989 -1.23435
      vertex 7.5 13.2343 -1.69894
    endloop
  endfacet
  facet normal 1 0 0
    outer loop
      vertex 7.5 12 -5
      vertex 7.5 13.2343 -1.69894
      vertex 7.5 12.6489 -1.99722
    endloop
  endfacet
  facet normal 1 0 0
    outer loop
      vertex 7.5 12 -5
      vertex 7.5 12.6489 -1.99722
      vertex 7.5 12 -2.1
    endloop
  endfacet
  facet normal 1 0 0
    outer loop
      vertex 7.5 13.6989 -1.23435
      vertex 7.5 12 -5
      vertex 7.5 70 -5
    endloop
  endfacet
  facet normal 0 1 0
    outer loop
      vertex 7.5 70 5
      vertex 0 70 2.1
      vertex -7.5 70 5
    endloop
  endfacet
  facet normal 0 1 0
    outer loop
      vertex 7.5 70 5
      vertex 0.648935 70 1.99722
      vertex 0 70 2.1
    endloop
  endfacet
  facet normal 0 1 0
    outer loop
      vertex 7.5 70 5
      vertex 1.23435 70 1.69894
      vertex 0.648935 70 1.99722
    endloop
  endfacet
  facet normal 0 1 0
    outer loop
      vertex 7.5 70 5
      vertex 1.69894 70 1.23435
      vertex 1.23435 70 1.69894
    endloop
  endfacet
  facet normal 0 1 0
    outer loop
      vertex 7.5 70 5
      vertex 1.99722 70 0.648935
      vertex 1.69894 70 1.23435
    endloop
  endfacet
  facet normal 0 1 0
    outer loop
      vertex 7.5 70 5
      vertex 2.1 70 0
      vertex 1.99722 70 0.648935
    endloop
  endfacet
  facet normal 0 1 -0
    outer loop
      vertex 7.5 70 -5
      vertex 2.1 70 0
      vertex 7.5 70 5
    endloop
  endfacet
  facet normal 0 1 0
    outer loop
      vertex 2.1 70 0
      vertex 7.5 70 -5
      vertex 1.99722 70 -0.648935
    endloop
  endfacet
  facet normal 0 1 0
    outer loop
      vertex 0.648935 70 -1.99722
      vertex 7.5 70 -5
      vertex 0 70 -2.1
    endloop
  endfacet
  facet normal 0 1 0
    outer loop
      vertex 1.23435 70 -1.69894
      vertex 7.5 70 -5
      vertex 0.648935 70 -1.99722
    endloop
  endfacet
  facet normal 0 1 0
    outer loop
      vertex 1.69894 70 -1.23435
      vertex 7.5 70 -5
      vertex 1.23435 70 -1.69894
    endloop
  endfacet
  facet normal 0 1 0
    outer loop
      vertex 1.99722 70 -0.648935
      vertex 7.5 70 -5
      vertex 1.69894 70 -1.23435
    endloop
  endfacet
  facet normal 0 1 -0
    outer loop
      vertex -0.648935 70 1.99722
      vertex -7.5 70 5
      vertex 0 70 2.1
    endloop
  endfacet
  facet normal 0 1 -0
    outer loop
      vertex -1.23435 70 1.69894
      vertex -7.5 70 5
      vertex -0.648935 70 1.99722
    endloop
  endfacet
  facet normal 0 1 -0
    outer loop
      vertex -1.69894 70 1.23435
      vertex -7.5 70 5
      vertex -1.23435 70 1.69894
    endloop
  endfacet
  facet normal 0 1 -0
    outer loop
      vertex -1.99722 70 0.648935
      vertex -7.5 70 5
      vertex -1.69894 70 1.23435
    endloop
  endfacet
  facet normal 0 1 -0
    outer loop
      vertex -2.1 70 0
      vertex -7.5 70 5
      vertex -1.99722 70 0.648935
    endloop
  endfacet
  facet normal 0 1 0
    outer loop
      vertex -7.5 70 -5
      vertex -2.1 70 0
      vertex -1.99722 70 -0.648935
    endloop
  endfacet
  facet normal 0 1 0
    outer loop
      vertex -7.5 70 -5
      vertex -1.99722 70 -0.648935
      vertex -1.69894 70 -1.23435
    endloop
  endfacet
  facet normal 0 1 0
    outer loop
      vertex -7.5 70 -5
      vertex 0 70 -2.1
      vertex 7.5 70 -5
    endloop
  endfacet
  facet normal 0 1 0
    outer loop
      vertex -2.1 70 0
      vertex -7.5 70 -5
      vertex -7.5 70 5
    endloop
  endfacet
  facet normal 0 1 0
    outer loop
      vertex -1.23435 70 -1.69894
      vertex -7.5 70 -5
      vertex -1.69894 70 -1.23435
    endloop
  endfacet
  facet normal 0 1 0
    outer loop
      vertex -0.648935 70 -1.99722
      vertex -7.5 70 -5
      vertex -1.23435 70 -1.69894
    endloop
  endfacet
  facet normal 0 1 0
    outer loop
      vertex 0 70 -2.1
      vertex -7.5 70 -5
      vertex -0.648935 70 -1.99722
    endloop
  endfacet
  facet normal 0 0 -1
    outer loop
      vertex 5 60 -5
      vertex -4 61.65 -5
      vertex 4 61.65 -5
    endloop
  endfacet
  facet normal -0 0 -1
    outer loop
      vertex -4 61.65 -5
      vertex -5 60 -5
      vertex -4 66.35 -5
    endloop
  endfacet
  facet normal 0 0 -1
    outer loop
      vertex -5 60 -5
      vertex -4 61.65 -5
      vertex 5 60 -5
    endloop
  endfacet
  facet normal 0 0 -1
    outer loop
      vertex 7.5 12 -5
      vertex 5 50 -5
      vertex 7.5 70 -5
    endloop
  endfacet
  facet normal 0 0 -1
    outer loop
      vertex 7.5 12 -5
      vertex 4.75528 48.4549 -5
      vertex 5 50 -5
    endloop
  endfacet
  facet normal 0 0 -1
    outer loop
      vertex 7.5 12 -5
      vertex 4.04508 47.0611 -5
      vertex 4.75528 48.4549 -5
    endloop
  endfacet
  facet normal 0 0 -1
    outer loop
      vertex 7.5 12 -5
      vertex 2.93893 45.9549 -5
      vertex 4.04508 47.0611 -5
    endloop
  endfacet
  facet normal 0 0 -1
    outer loop
      vertex 7.5 12 -5
      vertex 1.54508 45.2447 -5
      vertex 2.93893 45.9549 -5
    endloop
  endfacet
  facet normal 0 0 -1
    outer loop
      vertex 7.5 12 -5
      vertex 6.12323e-16 45 -5
      vertex 1.54508 45.2447 -5
    endloop
  endfacet
  facet normal 0 0 -1
    outer loop
      vertex -7.5 12 -5
      vertex 6.12323e-16 45 -5
      vertex 7.5 12 -5
    endloop
  endfacet
  facet normal -0 0 -1
    outer loop
      vertex 6.12323e-16 45 -5
      vertex -7.5 12 -5
      vertex -1.54508 45.2447 -5
    endloop
  endfacet
  facet normal -0 0 -1
    outer loop
      vertex -1.54508 45.2447 -5
      vertex -7.5 12 -5
      vertex -2.93893 45.9549 -5
    endloop
  endfacet
  facet normal -0 0 -1
    outer loop
      vertex -4.75528 48.4549 -5
      vertex -7.5 12 -5
      vertex -5 50 -5
    endloop
  endfacet
  facet normal -0 0 -1
    outer loop
      vertex -4.04508 47.0611 -5
      vertex -7.5 12 -5
      vertex -4.75528 48.4549 -5
    endloop
  endfacet
  facet normal -0 0 -1
    outer loop
      vertex -2.93893 45.9549 -5
      vertex -7.5 12 -5
      vertex -4.04508 47.0611 -5
    endloop
  endfacet
  facet normal 0 0 -1
    outer loop
      vertex 5 60 -5
      vertex 7.5 70 -5
      vertex 5 50 -5
    endloop
  endfacet
  facet normal 0 0 -1
    outer loop
      vertex 4 66.35 -5
      vertex 5 60 -5
      vertex 4 61.65 -5
    endloop
  endfacet
  facet normal 0 0 -1
    outer loop
      vertex 5 60 -5
      vertex 4 66.35 -5
      vertex 7.5 70 -5
    endloop
  endfacet
  facet normal 0 0 -1
    outer loop
      vertex -4 66.35 -5
      vertex 7.5 70 -5
      vertex 4 66.35 -5
    endloop
  endfacet
  facet normal 0 0 -1
    outer loop
      vertex -7.5 70 -5
      vertex -5 50 -5
      vertex -7.5 12 -5
    endloop
  endfacet
  facet normal 0 0 -1
    outer loop
      vertex -4 66.35 -5
      vertex -7.5 70 -5
      vertex 7.5 70 -5
    endloop
  endfacet
  facet normal 0 0 -1
    outer loop
      vertex -5 60 -5
      vertex -7.5 70 -5
      vertex -4 66.35 -5
    endloop
  endfacet
  facet normal 0 0 -1
    outer loop
      vertex -5 50 -5
      vertex -7.5 70 -5
      vertex -5 60 -5
    endloop
  endfacet
  facet normal 1 -5.20852e-08 3.28853e-07
    outer loop
      vertex 7.5 12 5
      vertex 7.5 11.3511 1.99722
      vertex 7.5 12 2.1
    endloop
  endfacet
  facet normal 1 -1.81848e-07 3.56896e-07
    outer loop
      vertex 7.5 12 5
      vertex 7.5 10.7657 1.69894
      vertex 7.5 11.3511 1.99722
    endloop
  endfacet
  facet normal 1 -1.28334e-08 2.93698e-07
    outer loop
      vertex 7.5 7.24472 1.54508
      vertex 7.5 10.7657 1.69894
      vertex 7.5 12 5
    endloop
  endfacet
  facet normal 1 0 0
    outer loop
      vertex 7.5 10.7657 1.69894
      vertex 7.5 7.24472 1.54508
      vertex 7.5 10.6118 1.54508
    endloop
  endfacet
  facet normal -0 -0.156434 -0.987688
    outer loop
      vertex 7.5 10.4549 -4.75528
      vertex -7.5 10.4549 -4.75528
      vertex -7.5 12 -5
    endloop
  endfacet
  facet normal -1 -5.20852e-08 -3.28853e-07
    outer loop
      vertex -7.5 12 -5
      vertex -7.5 11.3511 -1.99722
      vertex -7.5 12 -2.1
    endloop
  endfacet
  facet normal -1 -1.81848e-07 -3.56896e-07
    outer loop
      vertex -7.5 12 -5
      vertex -7.5 10.7657 -1.69894
      vertex -7.5 11.3511 -1.99722
    endloop
  endfacet
  facet normal -1 -1.28334e-08 -2.93698e-07
    outer loop
      vertex -7.5 7.24472 -1.54508
      vertex -7.5 10.7657 -1.69894
      vertex -7.5 12 -5
    endloop
  endfacet
  facet normal -1 0 0
    outer loop
      vertex -7.5 10.7657 -1.69894
      vertex -7.5 7.24472 -1.54508
      vertex -7.5 10.6118 -1.54508
    endloop
  endfacet
  facet normal 1 -1.39499e-06 1.39499e-06
    outer loop
      vertex 7.5 9.06107 4.04508
      vertex 7.5 7.95491 2.93893
      vertex 7.5 7.24472 1.54508
    endloop
  endfacet
  facet normal 6.27955e-08 -0.156434 -0.987688
    outer loop
      vertex 7.5 10.4549 -4.75528
      vertex -7.5 12 -5
      vertex 7.5 12 -5
    endloop
  endfacet
  facet normal 0 -0.453991 0.891006
    outer loop
      vertex -7.5 10.4549 4.75528
      vertex 7.5 9.06107 4.04508
      vertex 7.5 10.4549 4.75528
    endloop
  endfacet
  facet normal 0 -0.453991 0.891006
    outer loop
      vertex 7.5 9.06107 4.04508
      vertex -7.5 10.4549 4.75528
      vertex -7.5 9.06107 4.04508
    endloop
  endfacet
  facet normal 0 -0.156434 0.987688
    outer loop
      vertex 7.5 12 5
      vertex -7.5 10.4549 4.75528
      vertex 7.5 10.4549 4.75528
    endloop
  endfacet
  facet normal 0 -0.891006 -0.453991
    outer loop
      vertex -7.5 7.95491 -2.93893
      vertex 7.5 7.24472 -1.54508
      vertex -7.5 7.24472 -1.54508
    endloop
  endfacet
  facet normal 0 -0.891006 -0.453991
    outer loop
      vertex 7.5 7.24472 -1.54508
      vertex -7.5 7.95491 -2.93893
      vertex 7.5 7.95491 -2.93893
    endloop
  endfacet
  facet normal 0 -0.987688 -0.156434
    outer loop
      vertex -7.5 7.24472 -1.54508
      vertex 7.5 7 0
      vertex -7.5 7 0
    endloop
  endfacet
  facet normal 0 -0.987688 -0.156434
    outer loop
      vertex 7.5 7 0
      vertex -7.5 7.24472 -1.54508
      vertex 7.5 7.24472 -1.54508
    endloop
  endfacet
  facet normal -6.27955e-08 -0.156434 0.987688
    outer loop
      vertex -7.5 12 5
      vertex -7.5 10.4549 4.75528
      vertex 7.5 12 5
    endloop
  endfacet
  facet normal 1 -3.08616e-07 6.05692e-07
    outer loop
      vertex 7.5 10.4549 4.75528
      vertex 7.5 9.06107 4.04508
      vertex 7.5 7.24472 1.54508
    endloop
  endfacet
  facet normal 1 -5.59071e-08 3.52984e-07
    outer loop
      vertex 7.5 12 5
      vertex 7.5 10.4549 4.75528
      vertex 7.5 7.24472 1.54508
    endloop
  endfacet
  facet normal 0 -0.891006 0.453991
    outer loop
      vertex -7.5 7.24472 1.54508
      vertex 7.5 7.95491 2.93893
      vertex -7.5 7.95491 2.93893
    endloop
  endfacet
  facet normal 0 -0.891006 0.453991
    outer loop
      vertex 7.5 7.95491 2.93893
      vertex -7.5 7.24472 1.54508
      vertex 7.5 7.24472 1.54508
    endloop
  endfacet
  facet normal 0 -0.707107 0.707107
    outer loop
      vertex -7.5 7.95491 2.93893
      vertex 7.5 9.06107 4.04508
      vertex -7.5 9.06107 4.04508
    endloop
  endfacet
  facet normal 0 -0.707107 0.707107
    outer loop
      vertex 7.5 9.06107 4.04508
      vertex -7.5 7.95491 2.93893
      vertex 7.5 7.95491 2.93893
    endloop
  endfacet
  facet normal -1 -3.08616e-07 -6.05692e-07
    outer loop
      vertex -7.5 9.06107 -4.04508
      vertex -7.5 7.24472 -1.54508
      vertex -7.5 10.4549 -4.75528
    endloop
  endfacet
  facet normal -1 -5.59071e-08 -3.52984e-07
    outer loop
      vertex -7.5 10.4549 -4.75528
      vertex -7.5 7.24472 -1.54508
      vertex -7.5 12 -5
    endloop
  endfacet
  facet normal 0 -0.453991 -0.891006
    outer loop
      vertex -7.5 9.06107 -4.04508
      vertex 7.5 10.4549 -4.75528
      vertex 7.5 9.06107 -4.04508
    endloop
  endfacet
  facet normal -0 -0.453991 -0.891006
    outer loop
      vertex 7.5 10.4549 -4.75528
      vertex -7.5 9.06107 -4.04508
      vertex -7.5 10.4549 -4.75528
    endloop
  endfacet
  facet normal -1 -1.39499e-06 -1.39499e-06
    outer loop
      vertex -7.5 7.95491 -2.93893
      vertex -7.5 7.24472 -1.54508
      vertex -7.5 9.06107 -4.04508
    endloop
  endfacet
  facet normal 0 -0.707107 -0.707107
    outer loop
      vertex -7.5 9.06107 -4.04508
      vertex 7.5 7.95491 -2.93893
      vertex -7.5 7.95491 -2.93893
    endloop
  endfacet
  facet normal 0 -0.707107 -0.707107
    outer loop
      vertex 7.5 7.95491 -2.93893
      vertex -7.5 9.06107 -4.04508
      vertex 7.5 9.06107 -4.04508
    endloop
  endfacet
  facet normal 0 -0.987688 0.156434
    outer loop
      vertex -7.5 7 0
      vertex 7.5 7.24472 1.54508
      vertex -7.5 7.24472 1.54508
    endloop
  endfacet
  facet normal 0 -0.987688 0.156434
    outer loop
      vertex 7.5 7.24472 1.54508
      vertex -7.5 7 0
      vertex 7.5 7 0
    endloop
  endfacet
  facet normal -0.453991 0.891006 0
    outer loop
      vertex 2.93893 45.9549 -5
      vertex 1.54508 45.2447 5
      vertex 2.93893 45.9549 5
    endloop
  endfacet
  facet normal -0.453991 0.891006 0
    outer loop
      vertex 1.54508 45.2447 5
      vertex 2.93893 45.9549 -5
      vertex 1.54508 45.2447 -5
    endloop
  endfacet
  facet normal 0.707107 0.707107 0
    outer loop
      vertex -2.93893 45.9549 5
      vertex -4.04508 47.0611 -5
      vertex -4.04508 47.0611 5
    endloop
  endfacet
  facet normal 0.707107 0.707107 0
    outer loop
      vertex -4.04508 47.0611 -5
      vertex -2.93893 45.9549 5
      vertex -2.93893 45.9549 -5
    endloop
  endfacet
  facet normal -0.987688 0.156434 0
    outer loop
      vertex 4.75528 48.4549 -5
      vertex 5 50 5
      vertex 5 50 -5
    endloop
  endfacet
  facet normal -0.987688 0.156434 0
    outer loop
      vertex 5 50 5
      vertex 4.75528 48.4549 -5
      vertex 4.75528 48.4549 5
    endloop
  endfacet
  facet normal -0.707107 0.707107 0
    outer loop
      vertex 2.93893 45.9549 -5
      vertex 4.04508 47.0611 5
      vertex 4.04508 47.0611 -5
    endloop
  endfacet
  facet normal -0.707107 0.707107 0
    outer loop
      vertex 4.04508 47.0611 5
      vertex 2.93893 45.9549 -5
      vertex 2.93893 45.9549 5
    endloop
  endfacet
  facet normal -0.891006 0.453991 0
    outer loop
      vertex 4.04508 47.0611 -5
      vertex 4.75528 48.4549 5
      vertex 4.75528 48.4549 -5
    endloop
  endfacet
  facet normal -0.891006 0.453991 0
    outer loop
      vertex 4.75528 48.4549 5
      vertex 4.04508 47.0611 -5
      vertex 4.04508 47.0611 5
    endloop
  endfacet
  facet normal 0.891006 0.453991 0
    outer loop
      vertex -4.04508 47.0611 5
      vertex -4.75528 48.4549 -5
      vertex -4.75528 48.4549 5
    endloop
  endfacet
  facet normal 0.891006 0.453991 0
    outer loop
      vertex -4.75528 48.4549 -5
      vertex -4.04508 47.0611 5
      vertex -4.04508 47.0611 -5
    endloop
  endfacet
  facet normal 0.156434 0.987688 1.91576e-17
    outer loop
      vertex 6.12323e-16 45 -5
      vertex -1.54508 45.2447 5
      vertex -6.12323e-16 45 5
    endloop
  endfacet
  facet normal 0.156434 0.987688 0
    outer loop
      vertex -1.54508 45.2447 5
      vertex 6.12323e-16 45 -5
      vertex -1.54508 45.2447 -5
    endloop
  endfacet
  facet normal 0.453991 0.891006 -0
    outer loop
      vertex -1.54508 45.2447 -5
      vertex -2.93893 45.9549 5
      vertex -1.54508 45.2447 5
    endloop
  endfacet
  facet normal 0.453991 0.891006 0
    outer loop
      vertex -2.93893 45.9549 5
      vertex -1.54508 45.2447 -5
      vertex -2.93893 45.9549 -5
    endloop
  endfacet
  facet normal -0.156434 0.987688 0
    outer loop
      vertex 1.54508 45.2447 -5
      vertex -6.12323e-16 45 5
      vertex 1.54508 45.2447 5
    endloop
  endfacet
  facet normal -0.156434 0.987688 -1.91576e-17
    outer loop
      vertex -6.12323e-16 45 5
      vertex 1.54508 45.2447 -5
      vertex 6.12323e-16 45 -5
    endloop
  endfacet
  facet normal 0.987688 0.156434 0
    outer loop
      vertex -4.75528 48.4549 5
      vertex -5 50 -5
      vertex -5 50 5
    endloop
  endfacet
  facet normal 0.987688 0.156434 0
    outer loop
      vertex -5 50 -5
      vertex -4.75528 48.4549 5
      vertex -4.75528 48.4549 -5
    endloop
  endfacet
  facet normal -1 0 0
    outer loop
      vertex 5 50 -5
      vertex 5 60 5
      vertex 5 60 -5
    endloop
  endfacet
  facet normal -1 -0 0
    outer loop
      vertex 5 60 5
      vertex 5 50 -5
      vertex 5 50 5
    endloop
  endfacet
  facet normal 1 -0 0
    outer loop
      vertex -5 50 5
      vertex -5 60 -5
      vertex -5 60 5
    endloop
  endfacet
  facet normal 1 0 0
    outer loop
      vertex -5 60 -5
      vertex -5 50 5
      vertex -5 50 -5
    endloop
  endfacet
  facet normal 0 -1 0
    outer loop
      vertex -5 60 5
      vertex 0 60 2.1
      vertex 5 60 5
    endloop
  endfacet
  facet normal 0 -1 0
    outer loop
      vertex -5 60 5
      vertex -0.648935 60 1.99722
      vertex 0 60 2.1
    endloop
  endfacet
  facet normal 0 -1 0
    outer loop
      vertex -5 60 5
      vertex -1.23435 60 1.69894
      vertex -0.648935 60 1.99722
    endloop
  endfacet
  facet normal 0 -1 0
    outer loop
      vertex -5 60 5
      vertex -1.69894 60 1.23435
      vertex -1.23435 60 1.69894
    endloop
  endfacet
  facet normal 0 -1 0
    outer loop
      vertex -5 60 5
      vertex -1.99722 60 0.648935
      vertex -1.69894 60 1.23435
    endloop
  endfacet
  facet normal 0 -1 0
    outer loop
      vertex -5 60 5
      vertex -2.1 60 0
      vertex -1.99722 60 0.648935
    endloop
  endfacet
  facet normal 0 -1 0
    outer loop
      vertex -5 60 -5
      vertex -2.1 60 0
      vertex -5 60 5
    endloop
  endfacet
  facet normal 0 -1 -0
    outer loop
      vertex -2.1 60 0
      vertex -5 60 -5
      vertex -1.99722 60 -0.648935
    endloop
  endfacet
  facet normal 0 -1 -0
    outer loop
      vertex -0.648935 60 -1.99722
      vertex -5 60 -5
      vertex 0 60 -2.1
    endloop
  endfacet
  facet normal 0 -1 -0
    outer loop
      vertex -1.23435 60 -1.69894
      vertex -5 60 -5
      vertex -0.648935 60 -1.99722
    endloop
  endfacet
  facet normal 0 -1 -0
    outer loop
      vertex -1.69894 60 -1.23435
      vertex -5 60 -5
      vertex -1.23435 60 -1.69894
    endloop
  endfacet
  facet normal 0 -1 -0
    outer loop
      vertex -1.99722 60 -0.648935
      vertex -5 60 -5
      vertex -1.69894 60 -1.23435
    endloop
  endfacet
  facet normal 0 -1 0
    outer loop
      vertex 0.648935 60 1.99722
      vertex 5 60 5
      vertex 0 60 2.1
    endloop
  endfacet
  facet normal 0 -1 0
    outer loop
      vertex 1.23435 60 1.69894
      vertex 5 60 5
      vertex 0.648935 60 1.99722
    endloop
  endfacet
  facet normal 0 -1 0
    outer loop
      vertex 1.69894 60 1.23435
      vertex 5 60 5
      vertex 1.23435 60 1.69894
    endloop
  endfacet
  facet normal 0 -1 0
    outer loop
      vertex 1.99722 60 0.648935
      vertex 5 60 5
      vertex 1.69894 60 1.23435
    endloop
  endfacet
  facet normal 0 -1 0
    outer loop
      vertex 2.1 60 0
      vertex 5 60 5
      vertex 1.99722 60 0.648935
    endloop
  endfacet
  facet normal 0 -1 0
    outer loop
      vertex 5 60 -5
      vertex 2.1 60 0
      vertex 1.99722 60 -0.648935
    endloop
  endfacet
  facet normal 0 -1 0
    outer loop
      vertex 5 60 -5
      vertex 1.99722 60 -0.648935
      vertex 1.69894 60 -1.23435
    endloop
  endfacet
  facet normal 0 -1 0
    outer loop
      vertex 5 60 -5
      vertex 0 60 -2.1
      vertex -5 60 -5
    endloop
  endfacet
  facet normal 0 -1 0
    outer loop
      vertex 0 60 -2.1
      vertex 5 60 -5
      vertex 0.648935 60 -1.99722
    endloop
  endfacet
  facet normal 0 -1 0
    outer loop
      vertex 2.1 60 0
      vertex 5 60 -5
      vertex 5 60 5
    endloop
  endfacet
  facet normal 0 -1 0
    outer loop
      vertex 1.23435 60 -1.69894
      vertex 5 60 -5
      vertex 1.69894 60 -1.23435
    endloop
  endfacet
  facet normal 0 -1 0
    outer loop
      vertex 0.648935 60 -1.99722
      vertex 5 60 -5
      vertex 1.23435 60 -1.69894
    endloop
  endfacet
  facet normal 0 -0.156435 0.987688
    outer loop
      vertex -7.5 12.6489 -1.99722
      vertex 7.5 12 -2.1
      vertex 7.5 12.6489 -1.99722
    endloop
  endfacet
  facet normal 0 -0.156435 0.987688
    outer loop
      vertex 7.5 12 -2.1
      vertex -7.5 12.6489 -1.99722
      vertex -7.5 12 -2.1
    endloop
  endfacet
  facet normal 0 0.156434 -0.987688
    outer loop
      vertex -7.5 11.3511 1.99722
      vertex 7.5 12 2.1
      vertex 7.5 11.3511 1.99722
    endloop
  endfacet
  facet normal 0 0.156434 -0.987688
    outer loop
      vertex 7.5 12 2.1
      vertex -7.5 11.3511 1.99722
      vertex -7.5 12 2.1
    endloop
  endfacet
  facet normal 0 -0.987688 -0.156435
    outer loop
      vertex -7.5 14.1 0
      vertex 7.5 13.9972 0.648935
      vertex -7.5 13.9972 0.648935
    endloop
  endfacet
  facet normal 0 -0.987688 -0.156435
    outer loop
      vertex 7.5 13.9972 0.648935
      vertex -7.5 14.1 0
      vertex 7.5 14.1 0
    endloop
  endfacet
  facet normal 0 0.707107 -0.707107
    outer loop
      vertex 7.5 10.6118 1.54508
      vertex -7.5 10.7657 1.69894
      vertex 7.5 10.7657 1.69894
    endloop
  endfacet
  facet normal 0 0.707107 -0.707107
    outer loop
      vertex -7.5 10.3011 1.23435
      vertex 7.5 10.6118 1.54508
      vertex 7.5 10.3011 1.23435
    endloop
  endfacet
  facet normal 0 0.707107 -0.707107
    outer loop
      vertex 7.5 10.6118 1.54508
      vertex -7.5 10.3011 1.23435
      vertex -7.5 10.7657 1.69894
    endloop
  endfacet
  facet normal 0 -0.45399 0.891007
    outer loop
      vertex -7.5 13.2343 -1.69894
      vertex 7.5 12.6489 -1.99722
      vertex 7.5 13.2343 -1.69894
    endloop
  endfacet
  facet normal 0 -0.45399 0.891007
    outer loop
      vertex 7.5 12.6489 -1.99722
      vertex -7.5 13.2343 -1.69894
      vertex -7.5 12.6489 -1.99722
    endloop
  endfacet
  facet normal 0 -0.707107 -0.707107
    outer loop
      vertex -7.5 13.6989 1.23435
      vertex 7.5 13.2343 1.69894
      vertex -7.5 13.2343 1.69894
    endloop
  endfacet
  facet normal 0 -0.707107 -0.707107
    outer loop
      vertex 7.5 13.2343 1.69894
      vertex -7.5 13.6989 1.23435
      vertex 7.5 13.6989 1.23435
    endloop
  endfacet
  facet normal 0 -0.891007 -0.45399
    outer loop
      vertex -7.5 13.9972 0.648935
      vertex 7.5 13.6989 1.23435
      vertex -7.5 13.6989 1.23435
    endloop
  endfacet
  facet normal 0 -0.891007 -0.45399
    outer loop
      vertex 7.5 13.6989 1.23435
      vertex -7.5 13.9972 0.648935
      vertex 7.5 13.9972 0.648935
    endloop
  endfacet
  facet normal 0 0.891007 0.45399
    outer loop
      vertex 7.5 10.3011 -1.23435
      vertex -7.5 10.0028 -0.648935
      vertex 7.5 10.0028 -0.648935
    endloop
  endfacet
  facet normal 0 0.891007 0.45399
    outer loop
      vertex -7.5 10.0028 -0.648935
      vertex 7.5 10.3011 -1.23435
      vertex -7.5 10.3011 -1.23435
    endloop
  endfacet
  facet normal -0 0.45399 0.891007
    outer loop
      vertex -7.5 11.3511 -1.99722
      vertex 7.5 10.7657 -1.69894
      vertex 7.5 11.3511 -1.99722
    endloop
  endfacet
  facet normal 0 0.45399 0.891007
    outer loop
      vertex 7.5 10.7657 -1.69894
      vertex -7.5 11.3511 -1.99722
      vertex -7.5 10.7657 -1.69894
    endloop
  endfacet
  facet normal 0 0.45399 -0.891007
    outer loop
      vertex -7.5 10.7657 1.69894
      vertex 7.5 11.3511 1.99722
      vertex 7.5 10.7657 1.69894
    endloop
  endfacet
  facet normal 0 0.45399 -0.891007
    outer loop
      vertex 7.5 11.3511 1.99722
      vertex -7.5 10.7657 1.69894
      vertex -7.5 11.3511 1.99722
    endloop
  endfacet
  facet normal 0 -0.707107 0.707107
    outer loop
      vertex -7.5 13.2343 -1.69894
      vertex 7.5 13.6989 -1.23435
      vertex -7.5 13.6989 -1.23435
    endloop
  endfacet
  facet normal 0 -0.707107 0.707107
    outer loop
      vertex 7.5 13.6989 -1.23435
      vertex -7.5 13.2343 -1.69894
      vertex 7.5 13.2343 -1.69894
    endloop
  endfacet
  facet normal 0 -0.891007 0.45399
    outer loop
      vertex -7.5 13.6989 -1.23435
      vertex 7.5 13.9972 -0.648935
      vertex -7.5 13.9972 -0.648935
    endloop
  endfacet
  facet normal 0 -0.891007 0.45399
    outer loop
      vertex 7.5 13.9972 -0.648935
      vertex -7.5 13.6989 -1.23435
      vertex 7.5 13.6989 -1.23435
    endloop
  endfacet
  facet normal 0 -0.45399 -0.891007
    outer loop
      vertex -7.5 12.6489 1.99722
      vertex 7.5 13.2343 1.69894
      vertex 7.5 12.6489 1.99722
    endloop
  endfacet
  facet normal -0 -0.45399 -0.891007
    outer loop
      vertex 7.5 13.2343 1.69894
      vertex -7.5 12.6489 1.99722
      vertex -7.5 13.2343 1.69894
    endloop
  endfacet
  facet normal 0 -0.156435 -0.987688
    outer loop
      vertex -7.5 12 2.1
      vertex 7.5 12.6489 1.99722
      vertex 7.5 12 2.1
    endloop
  endfacet
  facet normal -0 -0.156435 -0.987688
    outer loop
      vertex 7.5 12.6489 1.99722
      vertex -7.5 12 2.1
      vertex -7.5 12.6489 1.99722
    endloop
  endfacet
  facet normal 0 0.707107 0.707107
    outer loop
      vertex 7.5 10.3011 -1.23435
      vertex -7.5 10.6118 -1.54508
      vertex -7.5 10.3011 -1.23435
    endloop
  endfacet
  facet normal 0 0.707107 0.707107
    outer loop
      vertex 7.5 10.7657 -1.69894
      vertex -7.5 10.6118 -1.54508
      vertex 7.5 10.3011 -1.23435
    endloop
  endfacet
  facet normal 0 0.707107 0.707107
    outer loop
      vertex -7.5 10.6118 -1.54508
      vertex 7.5 10.7657 -1.69894
      vertex -7.5 10.7657 -1.69894
    endloop
  endfacet
  facet normal -0 0.156434 0.987688
    outer loop
      vertex -7.5 12 -2.1
      vertex 7.5 11.3511 -1.99722
      vertex 7.5 12 -2.1
    endloop
  endfacet
  facet normal 0 0.156434 0.987688
    outer loop
      vertex 7.5 11.3511 -1.99722
      vertex -7.5 12 -2.1
      vertex -7.5 11.3511 -1.99722
    endloop
  endfacet
  facet normal 0 0.891007 -0.45399
    outer loop
      vertex 7.5 10.0028 0.648935
      vertex -7.5 10.3011 1.23435
      vertex 7.5 10.3011 1.23435
    endloop
  endfacet
  facet normal 0 0.891007 -0.45399
    outer loop
      vertex -7.5 10.3011 1.23435
      vertex 7.5 10.0028 0.648935
      vertex -7.5 10.0028 0.648935
    endloop
  endfacet
  facet normal 0 0.987688 -0.156435
    outer loop
      vertex 7.5 9.9 0
      vertex -7.5 10.0028 0.648935
      vertex 7.5 10.0028 0.648935
    endloop
  endfacet
  facet normal 0 0.987688 -0.156435
    outer loop
      vertex -7.5 10.0028 0.648935
      vertex 7.5 9.9 0
      vertex -7.5 9.9 0
    endloop
  endfacet
  facet normal 0 0.987688 0.156435
    outer loop
      vertex 7.5 10.0028 -0.648935
      vertex -7.5 9.9 0
      vertex 7.5 9.9 0
    endloop
  endfacet
  facet normal 0 0.987688 0.156435
    outer loop
      vertex -7.5 9.9 0
      vertex 7.5 10.0028 -0.648935
      vertex -7.5 10.0028 -0.648935
    endloop
  endfacet
  facet normal 0 -0.987688 0.156435
    outer loop
      vertex -7.5 13.9972 -0.648935
      vertex 7.5 14.1 0
      vertex -7.5 14.1 0
    endloop
  endfacet
  facet normal 0 -0.987688 0.156435
    outer loop
      vertex 7.5 14.1 0
      vertex -7.5 13.9972 -0.648935
      vertex 7.5 13.9972 -0.648935
    endloop
  endfacet
  facet normal 1 -0 0
    outer loop
      vertex -4 61.65 5
      vertex -4 66.35 -5
      vertex -4 66.35 5
    endloop
  endfacet
  facet normal 1 0 0
    outer loop
      vertex -4 66.35 -5
      vertex -4 61.65 5
      vertex -4 61.65 -5
    endloop
  endfacet
  facet normal -1 0 0
    outer loop
      vertex 4 61.65 -5
      vertex 4 66.35 5
      vertex 4 66.35 -5
    endloop
  endfacet
  facet normal -1 -0 0
    outer loop
      vertex 4 66.35 5
      vertex 4 61.65 -5
      vertex 4 61.65 5
    endloop
  endfacet
  facet normal 0 1 0
    outer loop
      vertex 4 61.65 5
      vertex 0 61.65 2.1
      vertex -4 61.65 5
    endloop
  endfacet
  facet normal 0 1 0
    outer loop
      vertex 4 61.65 5
      vertex 0.648935 61.65 1.99722
      vertex 0 61.65 2.1
    endloop
  endfacet
  facet normal 0 1 0
    outer loop
      vertex 4 61.65 5
      vertex 1.23435 61.65 1.69894
      vertex 0.648935 61.65 1.99722
    endloop
  endfacet
  facet normal 0 1 0
    outer loop
      vertex 4 61.65 5
      vertex 1.69894 61.65 1.23435
      vertex 1.23435 61.65 1.69894
    endloop
  endfacet
  facet normal 0 1 0
    outer loop
      vertex 4 61.65 5
      vertex 1.99722 61.65 0.648935
      vertex 1.69894 61.65 1.23435
    endloop
  endfacet
  facet normal 0 1 0
    outer loop
      vertex 4 61.65 5
      vertex 2.1 61.65 0
      vertex 1.99722 61.65 0.648935
    endloop
  endfacet
  facet normal 0 1 -0
    outer loop
      vertex 4 61.65 -5
      vertex 2.1 61.65 0
      vertex 4 61.65 5
    endloop
  endfacet
  facet normal 0 1 0
    outer loop
      vertex 0.648935 61.65 -1.99722
      vertex 4 61.65 -5
      vertex 0 61.65 -2.1
    endloop
  endfacet
  facet normal 0 1 0
    outer loop
      vertex 1.23435 61.65 -1.69894
      vertex 4 61.65 -5
      vertex 0.648935 61.65 -1.99722
    endloop
  endfacet
  facet normal 0 1 0
    outer loop
      vertex 1.69894 61.65 -1.23435
      vertex 4 61.65 -5
      vertex 1.23435 61.65 -1.69894
    endloop
  endfacet
  facet normal 0 1 0
    outer loop
      vertex 1.99722 61.65 -0.648935
      vertex 4 61.65 -5
      vertex 1.69894 61.65 -1.23435
    endloop
  endfacet
  facet normal 0 1 0
    outer loop
      vertex 2.1 61.65 0
      vertex 4 61.65 -5
      vertex 1.99722 61.65 -0.648935
    endloop
  endfacet
  facet normal 0 1 -0
    outer loop
      vertex -0.648935 61.65 1.99722
      vertex -4 61.65 5
      vertex 0 61.65 2.1
    endloop
  endfacet
  facet normal 0 1 -0
    outer loop
      vertex -1.23435 61.65 1.69894
      vertex -4 61.65 5
      vertex -0.648935 61.65 1.99722
    endloop
  endfacet
  facet normal 0 1 -0
    outer loop
      vertex -1.69894 61.65 1.23435
      vertex -4 61.65 5
      vertex -1.23435 61.65 1.69894
    endloop
  endfacet
  facet normal 0 1 -0
    outer loop
      vertex -1.99722 61.65 0.648935
      vertex -4 61.65 5
      vertex -1.69894 61.65 1.23435
    endloop
  endfacet
  facet normal 0 1 -0
    outer loop
      vertex -2.1 61.65 0
      vertex -4 61.65 5
      vertex -1.99722 61.65 0.648935
    endloop
  endfacet
  facet normal 0 1 0
    outer loop
      vertex -4 61.65 -5
      vertex -2.1 61.65 0
      vertex -1.99722 61.65 -0.648935
    endloop
  endfacet
  facet normal 0 1 0
    outer loop
      vertex -4 61.65 -5
      vertex 0 61.65 -2.1
      vertex 4 61.65 -5
    endloop
  endfacet
  facet normal 0 1 0
    outer loop
      vertex 0 61.65 -2.1
      vertex -4 61.65 -5
      vertex -0.648935 61.65 -1.99722
    endloop
  endfacet
  facet normal 0 1 0
    outer loop
      vertex -2.1 61.65 0
      vertex -4 61.65 -5
      vertex -4 61.65 5
    endloop
  endfacet
  facet normal 0 1 0
    outer loop
      vertex -1.69894 61.65 -1.23435
      vertex -4 61.65 -5
      vertex -1.99722 61.65 -0.648935
    endloop
  endfacet
  facet normal 0 1 0
    outer loop
      vertex -1.23435 61.65 -1.69894
      vertex -4 61.65 -5
      vertex -1.69894 61.65 -1.23435
    endloop
  endfacet
  facet normal 0 1 0
    outer loop
      vertex -0.648935 61.65 -1.99722
      vertex -4 61.65 -5
      vertex -1.23435 61.65 -1.69894
    endloop
  endfacet
  facet normal 0 -1 0
    outer loop
      vertex -4 66.35 5
      vertex 0 66.35 2.1
      vertex 4 66.35 5
    endloop
  endfacet
  facet normal 0 -1 0
    outer loop
      vertex -4 66.35 5
      vertex -0.648935 66.35 1.99722
      vertex 0 66.35 2.1
    endloop
  endfacet
  facet normal 0 -1 0
    outer loop
      vertex -4 66.35 5
      vertex -1.23435 66.35 1.69894
      vertex -0.648935 66.35 1.99722
    endloop
  endfacet
  facet normal 0 -1 0
    outer loop
      vertex -4 66.35 5
      vertex -1.69894 66.35 1.23435
      vertex -1.23435 66.35 1.69894
    endloop
  endfacet
  facet normal 0 -1 0
    outer loop
      vertex -4 66.35 5
      vertex -1.99722 66.35 0.648935
      vertex -1.69894 66.35 1.23435
    endloop
  endfacet
  facet normal 0 -1 0
    outer loop
      vertex -4 66.35 5
      vertex -2.1 66.35 0
      vertex -1.99722 66.35 0.648935
    endloop
  endfacet
  facet normal 0 -1 0
    outer loop
      vertex -4 66.35 -5
      vertex -2.1 66.35 0
      vertex -4 66.35 5
    endloop
  endfacet
  facet normal 0 -1 -0
    outer loop
      vertex -0.648935 66.35 -1.99722
      vertex -4 66.35 -5
      vertex 0 66.35 -2.1
    endloop
  endfacet
  facet normal 0 -1 -0
    outer loop
      vertex -1.23435 66.35 -1.69894
      vertex -4 66.35 -5
      vertex -0.648935 66.35 -1.99722
    endloop
  endfacet
  facet normal 0 -1 -0
    outer loop
      vertex -1.69894 66.35 -1.23435
      vertex -4 66.35 -5
      vertex -1.23435 66.35 -1.69894
    endloop
  endfacet
  facet normal 0 -1 -0
    outer loop
      vertex -1.99722 66.35 -0.648935
      vertex -4 66.35 -5
      vertex -1.69894 66.35 -1.23435
    endloop
  endfacet
  facet normal 0 -1 -0
    outer loop
      vertex -2.1 66.35 0
      vertex -4 66.35 -5
      vertex -1.99722 66.35 -0.648935
    endloop
  endfacet
  facet normal 0 -1 0
    outer loop
      vertex 0.648935 66.35 1.99722
      vertex 4 66.35 5
      vertex 0 66.35 2.1
    endloop
  endfacet
  facet normal 0 -1 0
    outer loop
      vertex 1.23435 66.35 1.69894
      vertex 4 66.35 5
      vertex 0.648935 66.35 1.99722
    endloop
  endfacet
  facet normal 0 -1 0
    outer loop
      vertex 1.69894 66.35 1.23435
      vertex 4 66.35 5
      vertex 1.23435 66.35 1.69894
    endloop
  endfacet
  facet normal 0 -1 0
    outer loop
      vertex 1.99722 66.35 0.648935
      vertex 4 66.35 5
      vertex 1.69894 66.35 1.23435
    endloop
  endfacet
  facet normal 0 -1 0
    outer loop
      vertex 2.1 66.35 0
      vertex 4 66.35 5
      vertex 1.99722 66.35 0.648935
    endloop
  endfacet
  facet normal 0 -1 0
    outer loop
      vertex 4 66.35 -5
      vertex 2.1 66.35 0
      vertex 1.99722 66.35 -0.648935
    endloop
  endfacet
  facet normal 0 -1 0
    outer loop
      vertex 4 66.35 -5
      vertex 0 66.35 -2.1
      vertex -4 66.35 -5
    endloop
  endfacet
  facet normal 0 -1 0
    outer loop
      vertex 0 66.35 -2.1
      vertex 4 66.35 -5
      vertex 0.648935 66.35 -1.99722
    endloop
  endfacet
  facet normal 0 -1 0
    outer loop
      vertex 2.1 66.35 0
      vertex 4 66.35 -5
      vertex 4 66.35 5
    endloop
  endfacet
  facet normal 0 -1 0
    outer loop
      vertex 1.69894 66.35 -1.23435
      vertex 4 66.35 -5
      vertex 1.99722 66.35 -0.648935
    endloop
  endfacet
  facet normal 0 -1 0
    outer loop
      vertex 1.23435 66.35 -1.69894
      vertex 4 66.35 -5
      vertex 1.69894 66.35 -1.23435
    endloop
  endfacet
  facet normal 0 -1 0
    outer loop
      vertex 0.648935 66.35 -1.99722
      vertex 4 66.35 -5
      vertex 1.23435 66.35 -1.69894
    endloop
  endfacet
  facet normal -0.987688 0 -0.156435
    outer loop
      vertex 2.1 60 0
      vertex 1.99722 61.65 0.648935
      vertex 2.1 61.65 0
    endloop
  endfacet
  facet normal -0.987688 -0 -0.156435
    outer loop
      vertex 1.99722 61.65 0.648935
      vertex 2.1 60 0
      vertex 1.99722 60 0.648935
    endloop
  endfacet
  facet normal -0.987688 0 -0.156435
    outer loop
      vertex 2.1 66.35 0
      vertex 1.99722 70 0.648935
      vertex 2.1 70 0
    endloop
  endfacet
  facet normal -0.987688 -0 -0.156435
    outer loop
      vertex 1.99722 70 0.648935
      vertex 2.1 66.35 0
      vertex 1.99722 66.35 0.648935
    endloop
  endfacet
  facet normal -0.891007 0 -0.45399
    outer loop
      vertex 1.99722 60 0.648935
      vertex 1.69894 61.65 1.23435
      vertex 1.99722 61.65 0.648935
    endloop
  endfacet
  facet normal -0.891007 -0 -0.45399
    outer loop
      vertex 1.69894 61.65 1.23435
      vertex 1.99722 60 0.648935
      vertex 1.69894 60 1.23435
    endloop
  endfacet
  facet normal -0.891007 0 -0.45399
    outer loop
      vertex 1.99722 66.35 0.648935
      vertex 1.69894 70 1.23435
      vertex 1.99722 70 0.648935
    endloop
  endfacet
  facet normal -0.891007 -0 -0.45399
    outer loop
      vertex 1.69894 70 1.23435
      vertex 1.99722 66.35 0.648935
      vertex 1.69894 66.35 1.23435
    endloop
  endfacet
  facet normal 0.987688 0 -0.156435
    outer loop
      vertex -1.99722 60 0.648935
      vertex -2.1 61.65 0
      vertex -1.99722 61.65 0.648935
    endloop
  endfacet
  facet normal 0.987688 0 -0.156435
    outer loop
      vertex -2.1 61.65 0
      vertex -1.99722 60 0.648935
      vertex -2.1 60 0
    endloop
  endfacet
  facet normal 0.987688 0 -0.156435
    outer loop
      vertex -1.99722 66.35 0.648935
      vertex -2.1 70 0
      vertex -1.99722 70 0.648935
    endloop
  endfacet
  facet normal 0.987688 0 -0.156435
    outer loop
      vertex -2.1 70 0
      vertex -1.99722 66.35 0.648935
      vertex -2.1 66.35 0
    endloop
  endfacet
  facet normal -0.156435 0 -0.987688
    outer loop
      vertex 0 60 2.1
      vertex 0.648935 61.65 1.99722
      vertex 0.648935 60 1.99722
    endloop
  endfacet
  facet normal -0.156435 0 -0.987688
    outer loop
      vertex 0.648935 61.65 1.99722
      vertex 0 60 2.1
      vertex 0 61.65 2.1
    endloop
  endfacet
  facet normal -0.156435 0 -0.987688
    outer loop
      vertex 0 66.35 2.1
      vertex 0.648935 70 1.99722
      vertex 0.648935 66.35 1.99722
    endloop
  endfacet
  facet normal -0.156435 0 -0.987688
    outer loop
      vertex 0.648935 70 1.99722
      vertex 0 66.35 2.1
      vertex 0 70 2.1
    endloop
  endfacet
  facet normal -0.707107 0 -0.707107
    outer loop
      vertex 1.69894 60 1.23435
      vertex 1.23435 61.65 1.69894
      vertex 1.69894 61.65 1.23435
    endloop
  endfacet
  facet normal -0.707107 -0 -0.707107
    outer loop
      vertex 1.23435 61.65 1.69894
      vertex 1.69894 60 1.23435
      vertex 1.23435 60 1.69894
    endloop
  endfacet
  facet normal -0.707107 0 -0.707107
    outer loop
      vertex 1.69894 66.35 1.23435
      vertex 1.23435 70 1.69894
      vertex 1.69894 70 1.23435
    endloop
  endfacet
  facet normal -0.707107 -0 -0.707107
    outer loop
      vertex 1.23435 70 1.69894
      vertex 1.69894 66.35 1.23435
      vertex 1.23435 66.35 1.69894
    endloop
  endfacet
  facet normal 0.45399 0 -0.891007
    outer loop
      vertex -1.23435 60 1.69894
      vertex -0.648935 61.65 1.99722
      vertex -0.648935 60 1.99722
    endloop
  endfacet
  facet normal 0.45399 0 -0.891007
    outer loop
      vertex -0.648935 61.65 1.99722
      vertex -1.23435 60 1.69894
      vertex -1.23435 61.65 1.69894
    endloop
  endfacet
  facet normal 0.45399 0 -0.891007
    outer loop
      vertex -1.23435 66.35 1.69894
      vertex -0.648935 70 1.99722
      vertex -0.648935 66.35 1.99722
    endloop
  endfacet
  facet normal 0.45399 0 -0.891007
    outer loop
      vertex -0.648935 70 1.99722
      vertex -1.23435 66.35 1.69894
      vertex -1.23435 70 1.69894
    endloop
  endfacet
  facet normal 0.156435 0 -0.987688
    outer loop
      vertex -0.648935 60 1.99722
      vertex 0 61.65 2.1
      vertex 0 60 2.1
    endloop
  endfacet
  facet normal 0.156435 0 -0.987688
    outer loop
      vertex 0 61.65 2.1
      vertex -0.648935 60 1.99722
      vertex -0.648935 61.65 1.99722
    endloop
  endfacet
  facet normal 0.156435 0 -0.987688
    outer loop
      vertex -0.648935 66.35 1.99722
      vertex 0 70 2.1
      vertex 0 66.35 2.1
    endloop
  endfacet
  facet normal 0.156435 0 -0.987688
    outer loop
      vertex 0 70 2.1
      vertex -0.648935 66.35 1.99722
      vertex -0.648935 70 1.99722
    endloop
  endfacet
  facet normal -0.156435 0 0.987688
    outer loop
      vertex 0 61.65 -2.1
      vertex 0.648935 60 -1.99722
      vertex 0.648935 61.65 -1.99722
    endloop
  endfacet
  facet normal -0.156435 0 0.987688
    outer loop
      vertex 0.648935 60 -1.99722
      vertex 0 61.65 -2.1
      vertex 0 60 -2.1
    endloop
  endfacet
  facet normal -0.156435 0 0.987688
    outer loop
      vertex 0 70 -2.1
      vertex 0.648935 66.35 -1.99722
      vertex 0.648935 70 -1.99722
    endloop
  endfacet
  facet normal -0.156435 0 0.987688
    outer loop
      vertex 0.648935 66.35 -1.99722
      vertex 0 70 -2.1
      vertex 0 66.35 -2.1
    endloop
  endfacet
  facet normal 0.987688 -0 0.156435
    outer loop
      vertex -2.1 60 0
      vertex -1.99722 61.65 -0.648935
      vertex -2.1 61.65 0
    endloop
  endfacet
  facet normal 0.987688 0 0.156435
    outer loop
      vertex -1.99722 61.65 -0.648935
      vertex -2.1 60 0
      vertex -1.99722 60 -0.648935
    endloop
  endfacet
  facet normal 0.987688 -0 0.156435
    outer loop
      vertex -2.1 66.35 0
      vertex -1.99722 70 -0.648935
      vertex -2.1 70 0
    endloop
  endfacet
  facet normal 0.987688 0 0.156435
    outer loop
      vertex -1.99722 70 -0.648935
      vertex -2.1 66.35 0
      vertex -1.99722 66.35 -0.648935
    endloop
  endfacet
  facet normal -0.45399 0 -0.891007
    outer loop
      vertex 0.648935 60 1.99722
      vertex 1.23435 61.65 1.69894
      vertex 1.23435 60 1.69894
    endloop
  endfacet
  facet normal -0.45399 0 -0.891007
    outer loop
      vertex 1.23435 61.65 1.69894
      vertex 0.648935 60 1.99722
      vertex 0.648935 61.65 1.99722
    endloop
  endfacet
  facet normal -0.45399 0 -0.891007
    outer loop
      vertex 0.648935 66.35 1.99722
      vertex 1.23435 70 1.69894
      vertex 1.23435 66.35 1.69894
    endloop
  endfacet
  facet normal -0.45399 0 -0.891007
    outer loop
      vertex 1.23435 70 1.69894
      vertex 0.648935 66.35 1.99722
      vertex 0.648935 70 1.99722
    endloop
  endfacet
  facet normal 0.707107 0 -0.707107
    outer loop
      vertex -1.23435 60 1.69894
      vertex -1.69894 61.65 1.23435
      vertex -1.23435 61.65 1.69894
    endloop
  endfacet
  facet normal 0.707107 0 -0.707107
    outer loop
      vertex -1.69894 61.65 1.23435
      vertex -1.23435 60 1.69894
      vertex -1.69894 60 1.23435
    endloop
  endfacet
  facet normal 0.707107 0 -0.707107
    outer loop
      vertex -1.23435 66.35 1.69894
      vertex -1.69894 70 1.23435
      vertex -1.23435 70 1.69894
    endloop
  endfacet
  facet normal 0.707107 0 -0.707107
    outer loop
      vertex -1.69894 70 1.23435
      vertex -1.23435 66.35 1.69894
      vertex -1.69894 66.35 1.23435
    endloop
  endfacet
  facet normal -0.707107 0 0.707107
    outer loop
      vertex 1.23435 60 -1.69894
      vertex 1.69894 61.65 -1.23435
      vertex 1.23435 61.65 -1.69894
    endloop
  endfacet
  facet normal -0.707107 0 0.707107
    outer loop
      vertex 1.69894 61.65 -1.23435
      vertex 1.23435 60 -1.69894
      vertex 1.69894 60 -1.23435
    endloop
  endfacet
  facet normal -0.707107 0 0.707107
    outer loop
      vertex 1.23435 66.35 -1.69894
      vertex 1.69894 70 -1.23435
      vertex 1.23435 70 -1.69894
    endloop
  endfacet
  facet normal -0.707107 0 0.707107
    outer loop
      vertex 1.69894 70 -1.23435
      vertex 1.23435 66.35 -1.69894
      vertex 1.69894 66.35 -1.23435
    endloop
  endfacet
  facet normal 0.707107 -0 0.707107
    outer loop
      vertex -1.69894 60 -1.23435
      vertex -1.23435 61.65 -1.69894
      vertex -1.69894 61.65 -1.23435
    endloop
  endfacet
  facet normal 0.707107 0 0.707107
    outer loop
      vertex -1.23435 61.65 -1.69894
      vertex -1.69894 60 -1.23435
      vertex -1.23435 60 -1.69894
    endloop
  endfacet
  facet normal 0.707107 -0 0.707107
    outer loop
      vertex -1.69894 66.35 -1.23435
      vertex -1.23435 70 -1.69894
      vertex -1.69894 70 -1.23435
    endloop
  endfacet
  facet normal 0.707107 0 0.707107
    outer loop
      vertex -1.23435 70 -1.69894
      vertex -1.69894 66.35 -1.23435
      vertex -1.23435 66.35 -1.69894
    endloop
  endfacet
  facet normal 0.891007 -0 0.45399
    outer loop
      vertex -1.99722 60 -0.648935
      vertex -1.69894 61.65 -1.23435
      vertex -1.99722 61.65 -0.648935
    endloop
  endfacet
  facet normal 0.891007 0 0.45399
    outer loop
      vertex -1.69894 61.65 -1.23435
      vertex -1.99722 60 -0.648935
      vertex -1.69894 60 -1.23435
    endloop
  endfacet
  facet normal 0.891007 -0 0.45399
    outer loop
      vertex -1.99722 66.35 -0.648935
      vertex -1.69894 70 -1.23435
      vertex -1.99722 70 -0.648935
    endloop
  endfacet
  facet normal 0.891007 0 0.45399
    outer loop
      vertex -1.69894 70 -1.23435
      vertex -1.99722 66.35 -0.648935
      vertex -1.69894 66.35 -1.23435
    endloop
  endfacet
  facet normal 0.891007 0 -0.45399
    outer loop
      vertex -1.69894 60 1.23435
      vertex -1.99722 61.65 0.648935
      vertex -1.69894 61.65 1.23435
    endloop
  endfacet
  facet normal 0.891007 0 -0.45399
    outer loop
      vertex -1.99722 61.65 0.648935
      vertex -1.69894 60 1.23435
      vertex -1.99722 60 0.648935
    endloop
  endfacet
  facet normal 0.891007 0 -0.45399
    outer loop
      vertex -1.69894 66.35 1.23435
      vertex -1.99722 70 0.648935
      vertex -1.69894 70 1.23435
    endloop
  endfacet
  facet normal 0.891007 0 -0.45399
    outer loop
      vertex -1.99722 70 0.648935
      vertex -1.69894 66.35 1.23435
      vertex -1.99722 66.35 0.648935
    endloop
  endfacet
  facet normal -0.891007 0 0.45399
    outer loop
      vertex 1.69894 60 -1.23435
      vertex 1.99722 61.65 -0.648935
      vertex 1.69894 61.65 -1.23435
    endloop
  endfacet
  facet normal -0.891007 0 0.45399
    outer loop
      vertex 1.99722 61.65 -0.648935
      vertex 1.69894 60 -1.23435
      vertex 1.99722 60 -0.648935
    endloop
  endfacet
  facet normal -0.891007 0 0.45399
    outer loop
      vertex 1.69894 66.35 -1.23435
      vertex 1.99722 70 -0.648935
      vertex 1.69894 70 -1.23435
    endloop
  endfacet
  facet normal -0.891007 0 0.45399
    outer loop
      vertex 1.99722 70 -0.648935
      vertex 1.69894 66.35 -1.23435
      vertex 1.99722 66.35 -0.648935
    endloop
  endfacet
  facet normal -0.987688 0 0.156435
    outer loop
      vertex 1.99722 60 -0.648935
      vertex 2.1 61.65 0
      vertex 1.99722 61.65 -0.648935
    endloop
  endfacet
  facet normal -0.987688 0 0.156435
    outer loop
      vertex 2.1 61.65 0
      vertex 1.99722 60 -0.648935
      vertex 2.1 60 0
    endloop
  endfacet
  facet normal -0.987688 0 0.156435
    outer loop
      vertex 1.99722 66.35 -0.648935
      vertex 2.1 70 0
      vertex 1.99722 70 -0.648935
    endloop
  endfacet
  facet normal -0.987688 0 0.156435
    outer loop
      vertex 2.1 70 0
      vertex 1.99722 66.35 -0.648935
      vertex 2.1 66.35 0
    endloop
  endfacet
  facet normal -0.45399 0 0.891007
    outer loop
      vertex 0.648935 61.65 -1.99722
      vertex 1.23435 60 -1.69894
      vertex 1.23435 61.65 -1.69894
    endloop
  endfacet
  facet normal -0.45399 0 0.891007
    outer loop
      vertex 1.23435 60 -1.69894
      vertex 0.648935 61.65 -1.99722
      vertex 0.648935 60 -1.99722
    endloop
  endfacet
  facet normal -0.45399 0 0.891007
    outer loop
      vertex 0.648935 70 -1.99722
      vertex 1.23435 66.35 -1.69894
      vertex 1.23435 70 -1.69894
    endloop
  endfacet
  facet normal -0.45399 0 0.891007
    outer loop
      vertex 1.23435 66.35 -1.69894
      vertex 0.648935 70 -1.99722
      vertex 0.648935 66.35 -1.99722
    endloop
  endfacet
  facet normal 0.45399 0 0.891007
    outer loop
      vertex -1.23435 61.65 -1.69894
      vertex -0.648935 60 -1.99722
      vertex -0.648935 61.65 -1.99722
    endloop
  endfacet
  facet normal 0.45399 0 0.891007
    outer loop
      vertex -0.648935 60 -1.99722
      vertex -1.23435 61.65 -1.69894
      vertex -1.23435 60 -1.69894
    endloop
  endfacet
  facet normal 0.45399 0 0.891007
    outer loop
      vertex -1.23435 70 -1.69894
      vertex -0.648935 66.35 -1.99722
      vertex -0.648935 70 -1.99722
    endloop
  endfacet
  facet normal 0.45399 0 0.891007
    outer loop
      vertex -0.648935 66.35 -1.99722
      vertex -1.23435 70 -1.69894
      vertex -1.23435 66.35 -1.69894
    endloop
  endfacet
  facet normal 0.156435 0 0.987688
    outer loop
      vertex -0.648935 61.65 -1.99722
      vertex 0 60 -2.1
      vertex 0 61.65 -2.1
    endloop
  endfacet
  facet normal 0.156435 0 0.987688
    outer loop
      vertex 0 60 -2.1
      vertex -0.648935 61.65 -1.99722
      vertex -0.648935 60 -1.99722
    endloop
  endfacet
  facet normal 0.156435 0 0.987688
    outer loop
      vertex -0.648935 70 -1.99722
      vertex 0 66.35 -2.1
      vertex 0 70 -2.1
    endloop
  endfacet
  facet normal 0.156435 0 0.987688
    outer loop
      vertex 0 66.35 -2.1
      vertex -0.648935 70 -1.99722
      vertex -0.648935 66.35 -1.99722
    endloop
  endfacet
  facet normal 1 -0 0
    outer loop
      vertex -5.5 17 5
      vertex -5.5 42 -3
      vertex -5.5 42 5
    endloop
  endfacet
  facet normal 1 0 0
    outer loop
      vertex -5.5 42 -3
      vertex -5.5 17 5
      vertex -5.5 17 -3
    endloop
  endfacet
  facet normal -1 0 0
    outer loop
      vertex 5.5 17 -3
      vertex 5.5 42 5
      vertex 5.5 42 -3
    endloop
  endfacet
  facet normal -1 -0 0
    outer loop
      vertex 5.5 42 5
      vertex 5.5 17 -3
      vertex 5.5 17 5
    endloop
  endfacet
  facet normal -0 0 1
    outer loop
      vertex -5.5 42 -3
      vertex 5.5 17 -3
      vertex 5.5 42 -3
    endloop
  endfacet
  facet normal 0 0 1
    outer loop
      vertex 5.5 17 -3
      vertex -5.5 42 -3
      vertex -5.5 17 -3
    endloop
  endfacet
  facet normal 0 1 -0
    outer loop
      vertex 5.5 17 -3
      vertex -5.5 17 5
      vertex 5.5 17 5
    endloop
  endfacet
  facet normal 0 1 0
    outer loop
      vertex -5.5 17 5
      vertex 5.5 17 -3
      vertex -5.5 17 -3
    endloop
  endfacet
  facet normal 0 -1 0
    outer loop
      vertex -5.5 42 -3
      vertex 5.5 42 5
      vertex -5.5 42 5
    endloop
  endfacet
  facet normal 0 -1 -0
    outer loop
      vertex 5.5 42 5
      vertex -5.5 42 -3
      vertex 5.5 42 -3
    endloop
  endfacet
endsolid OpenSCAD_Model
